<svg xmlns="http://www.w3.org/2000/svg" xmlns:xlink="http://www.w3.org/1999/xlink" width="500" zoomAndPan="magnify" viewBox="0 0 375 374.999991" height="500" preserveAspectRatio="xMidYMid meet" version="1.0"><defs><g/><clipPath id="849d425d35"><path d="M 67 23 L 196 23 L 196 111 L 67 111 Z M 67 23 " clip-rule="nonzero"/></clipPath><clipPath id="a4290e19be"><path d="M 67.546875 89.390625 L 185.347656 22.734375 L 197.464844 44.152344 L 79.664062 110.808594 Z M 67.546875 89.390625 " clip-rule="nonzero"/></clipPath><clipPath id="fef0b168f3"><path d="M 67.546875 89.390625 L 184.503906 23.207031 L 196.59375 44.570312 L 79.632812 110.75 Z M 67.546875 89.390625 " clip-rule="nonzero"/></clipPath><clipPath id="c9c5466452"><path d="M 171 23 L 275 23 L 275 98 L 171 98 Z M 171 23 " clip-rule="nonzero"/></clipPath><clipPath id="9d3635b7f9"><path d="M 183.695312 23.210938 L 274.683594 76.550781 L 262.238281 97.78125 L 171.25 44.441406 Z M 183.695312 23.210938 " clip-rule="nonzero"/></clipPath><clipPath id="02a9190ba6"><path d="M 183.695312 23.210938 L 274.25 76.296875 L 261.835938 97.472656 L 171.285156 44.382812 Z M 183.695312 23.210938 " clip-rule="nonzero"/></clipPath><clipPath id="013c799841"><path d="M 67.546875 89.730469 L 92.089844 89.730469 L 92.089844 219.917969 L 67.546875 219.917969 Z M 67.546875 89.730469 " clip-rule="nonzero"/></clipPath><clipPath id="716b96eceb"><path d="M 67 199 L 194 199 L 194 287 L 67 287 Z M 67 199 " clip-rule="nonzero"/></clipPath><clipPath id="0d47e99e60"><path d="M 79.957031 199.054688 L 193.6875 265.730469 L 181.242188 286.957031 L 67.511719 220.28125 Z M 79.957031 199.054688 " clip-rule="nonzero"/></clipPath><clipPath id="e83135a51d"><path d="M 79.957031 199.054688 L 193.390625 265.550781 L 180.976562 286.726562 L 67.542969 220.226562 Z M 79.957031 199.054688 " clip-rule="nonzero"/></clipPath><clipPath id="7def7bdba4"><path d="M 169 213 L 274 213 L 274 287 L 169 287 Z M 169 213 " clip-rule="nonzero"/></clipPath><clipPath id="aea4c9ed3a"><path d="M 169.660156 265.363281 L 262.984375 212.554688 L 275.101562 233.972656 L 181.78125 286.78125 Z M 169.660156 265.363281 " clip-rule="nonzero"/></clipPath><clipPath id="682efa719b"><path d="M 169.660156 265.363281 L 262.164062 213.019531 L 274.25 234.378906 L 181.746094 286.722656 Z M 169.660156 265.363281 " clip-rule="nonzero"/></clipPath><clipPath id="55b6531cff"><path d="M 106 66 L 197 66 L 197 133 L 106 133 Z M 106 66 " clip-rule="nonzero"/></clipPath><clipPath id="bc1946bd16"><path d="M 106.503906 110.863281 L 184.527344 66.714844 L 196.648438 88.132812 L 118.625 132.28125 Z M 106.503906 110.863281 " clip-rule="nonzero"/></clipPath><clipPath id="949b68e62d"><path d="M 106.503906 110.863281 L 184.058594 66.980469 L 196.144531 88.339844 L 118.589844 132.222656 Z M 106.503906 110.863281 " clip-rule="nonzero"/></clipPath><clipPath id="3612aaab69"><path d="M 171 66 L 260 66 L 260 131 L 171 131 Z M 171 66 " clip-rule="nonzero"/></clipPath><clipPath id="de2d769ccc"><path d="M 247.910156 130.566406 L 171.332031 87.429688 L 183.410156 65.988281 L 259.988281 109.125 Z M 247.910156 130.566406 " clip-rule="nonzero"/></clipPath><clipPath id="e0fb890a78"><path d="M 247.910156 130.566406 L 171.722656 87.648438 L 183.769531 66.265625 L 259.953125 109.179688 Z M 247.910156 130.566406 " clip-rule="nonzero"/></clipPath><clipPath id="fc93ce4eda"><path d="M 106.5 111 L 131.042969 111 L 131.042969 199.457031 L 106.5 199.457031 Z M 106.5 111 " clip-rule="nonzero"/></clipPath><clipPath id="1d60ca2afc"><path d="M 235.457031 110.007812 L 260 110.007812 L 260 197.496094 L 235.457031 197.496094 Z M 235.457031 110.007812 " clip-rule="nonzero"/></clipPath><clipPath id="5724e2261c"><path d="M 106.460938 23.203125 L 131.003906 23.203125 L 131.003906 80.882812 L 106.460938 80.882812 Z M 106.460938 23.203125 " clip-rule="nonzero"/></clipPath><clipPath id="e0b1d19531"><path d="M 106.3125 184.832031 L 131.003906 184.832031 L 131.003906 214.09375 L 106.3125 214.09375 Z M 106.3125 184.832031 " clip-rule="nonzero"/></clipPath><clipPath id="ac8725063c"><path d="M 106.460938 199.460938 L 131.003906 214.09375 L 131.003906 184.832031 L 106.460938 199.460938 " clip-rule="nonzero"/></clipPath><clipPath id="2f5dfb9b85"><path d="M 235.417969 182.867188 L 260 182.867188 L 260 212.132812 L 235.417969 212.132812 Z M 235.417969 182.867188 " clip-rule="nonzero"/></clipPath><clipPath id="08af37768d"><path d="M 259.960938 197.5 L 235.417969 182.867188 L 235.417969 212.132812 L 259.960938 197.5 " clip-rule="nonzero"/></clipPath><clipPath id="6f905d8e87"><path d="M 250.109375 76.363281 L 274.242188 76.363281 L 274.242188 104.964844 L 250.109375 104.964844 Z M 250.109375 76.363281 " clip-rule="nonzero"/></clipPath><clipPath id="f9956e6c1f"><path d="M 250.253906 90.664062 L 274.242188 104.964844 L 274.242188 76.363281 L 250.253906 90.664062 " clip-rule="nonzero"/></clipPath><clipPath id="91bc545557"><path d="M 250.109375 205.617188 L 274.242188 205.617188 L 274.242188 234.21875 L 250.109375 234.21875 Z M 250.109375 205.617188 " clip-rule="nonzero"/></clipPath><clipPath id="88bbde9697"><path d="M 250.253906 219.917969 L 274.242188 234.21875 L 274.242188 205.617188 L 250.253906 219.917969 " clip-rule="nonzero"/></clipPath></defs><g clip-path="url(#849d425d35)"><g clip-path="url(#a4290e19be)"><g clip-path="url(#fef0b168f3)"><path fill="#607eaa" d="M 67.546875 89.390625 L 183.816406 23.597656 L 195.9375 45.015625 L 79.664062 110.808594 Z M 67.546875 89.390625 " fill-opacity="1" fill-rule="nonzero"/></g></g></g><g clip-path="url(#c9c5466452)"><g clip-path="url(#9d3635b7f9)"><g clip-path="url(#02a9190ba6)"><path fill="#607eaa" d="M 183.695312 23.210938 L 274.683594 76.550781 L 262.238281 97.78125 L 171.25 44.441406 Z M 183.695312 23.210938 " fill-opacity="1" fill-rule="nonzero"/></g></g></g><g clip-path="url(#013c799841)"><path fill="#607eaa" d="M 67.546875 219.917969 L 67.546875 89.839844 L 92.15625 89.839844 L 92.15625 219.917969 Z M 67.546875 219.917969 " fill-opacity="1" fill-rule="nonzero"/></g><g clip-path="url(#716b96eceb)"><g clip-path="url(#0d47e99e60)"><g clip-path="url(#e83135a51d)"><path fill="#607eaa" d="M 79.957031 199.054688 L 193.6875 265.730469 L 181.242188 286.957031 L 67.511719 220.28125 Z M 79.957031 199.054688 " fill-opacity="1" fill-rule="nonzero"/></g></g></g><g clip-path="url(#7def7bdba4)"><g clip-path="url(#aea4c9ed3a)"><g clip-path="url(#682efa719b)"><path fill="#607eaa" d="M 169.660156 265.363281 L 261.453125 213.421875 L 273.570312 234.839844 L 181.78125 286.78125 Z M 169.660156 265.363281 " fill-opacity="1" fill-rule="nonzero"/></g></g></g><g clip-path="url(#55b6531cff)"><g clip-path="url(#bc1946bd16)"><g clip-path="url(#949b68e62d)"><path fill="#607eaa" d="M 106.503906 110.863281 L 184.527344 66.714844 L 196.648438 88.132812 L 118.625 132.28125 Z M 106.503906 110.863281 " fill-opacity="1" fill-rule="nonzero"/></g></g></g><g clip-path="url(#3612aaab69)"><g clip-path="url(#de2d769ccc)"><g clip-path="url(#e0fb890a78)"><path fill="#607eaa" d="M 247.910156 130.566406 L 171.332031 87.429688 L 183.410156 65.988281 L 259.988281 109.125 Z M 247.910156 130.566406 " fill-opacity="1" fill-rule="nonzero"/></g></g></g><g clip-path="url(#fc93ce4eda)"><path fill="#607eaa" d="M 106.5 199.457031 L 106.5 111.566406 L 131.109375 111.566406 L 131.109375 199.457031 Z M 106.5 199.457031 " fill-opacity="1" fill-rule="nonzero"/></g><g clip-path="url(#1d60ca2afc)"><path fill="#607eaa" d="M 235.457031 197.496094 L 235.457031 109.605469 L 260.066406 109.605469 L 260.066406 197.496094 Z M 235.457031 197.496094 " fill-opacity="1" fill-rule="nonzero"/></g><g clip-path="url(#5724e2261c)"><path fill="#607eaa" d="M 106.460938 80.882812 L 106.460938 22.875 L 131.070312 22.875 L 131.070312 80.882812 Z M 106.460938 80.882812 " fill-opacity="1" fill-rule="nonzero"/></g><g clip-path="url(#e0b1d19531)"><g clip-path="url(#ac8725063c)"><path fill="#607eaa" d="M 131.003906 184.832031 L 131.003906 214.09375 L 106.3125 214.09375 L 106.3125 184.832031 Z M 131.003906 184.832031 " fill-opacity="1" fill-rule="nonzero"/></g></g><g fill="#1c3879" fill-opacity="1"><g transform="translate(52.342153, 323.975019)"><g><path d="M 21.15625 0 L 15.765625 -7.796875 L 9.796875 -7.796875 L 9.796875 0 L 3.3125 0 L 3.3125 -28 L 15.4375 -28 C 17.914062 -28 20.066406 -27.582031 21.890625 -26.75 C 23.722656 -25.925781 25.128906 -24.753906 26.109375 -23.234375 C 27.097656 -21.710938 27.59375 -19.914062 27.59375 -17.84375 C 27.59375 -15.757812 27.09375 -13.960938 26.09375 -12.453125 C 25.09375 -10.953125 23.675781 -9.800781 21.84375 -9 L 28.125 0 Z M 21.046875 -17.84375 C 21.046875 -19.414062 20.535156 -20.617188 19.515625 -21.453125 C 18.503906 -22.296875 17.023438 -22.71875 15.078125 -22.71875 L 9.796875 -22.71875 L 9.796875 -12.953125 L 15.078125 -12.953125 C 17.023438 -12.953125 18.503906 -13.378906 19.515625 -14.234375 C 20.535156 -15.085938 21.046875 -16.289062 21.046875 -17.84375 Z M 21.046875 -17.84375 "/></g></g></g><g fill="#1c3879" fill-opacity="1"><g transform="translate(81.73923, 323.975019)"><g><path d="M 25 -5.203125 L 25 0 L 3.3125 0 L 3.3125 -28 L 24.484375 -28 L 24.484375 -22.796875 L 9.765625 -22.796875 L 9.765625 -16.71875 L 22.765625 -16.71875 L 22.765625 -11.6875 L 9.765625 -11.6875 L 9.765625 -5.203125 Z M 25 -5.203125 "/></g></g></g><g fill="#1c3879" fill-opacity="1"><g transform="translate(108.576562, 323.975019)"><g><path d="M 9.796875 -22.796875 L 9.796875 -15.40625 L 22.765625 -15.40625 L 22.765625 -10.203125 L 9.796875 -10.203125 L 9.796875 0 L 3.3125 0 L 3.3125 -28 L 24.484375 -28 L 24.484375 -22.796875 Z M 9.796875 -22.796875 "/></g></g></g><g fill="#1c3879" fill-opacity="1"><g transform="translate(134.134021, 323.975019)"><g><path d="M 16.875 0.484375 C 13.96875 0.484375 11.347656 -0.140625 9.015625 -1.390625 C 6.679688 -2.648438 4.851562 -4.378906 3.53125 -6.578125 C 2.21875 -8.773438 1.5625 -11.25 1.5625 -14 C 1.5625 -16.75 2.21875 -19.222656 3.53125 -21.421875 C 4.851562 -23.617188 6.679688 -25.34375 9.015625 -26.59375 C 11.347656 -27.851562 13.96875 -28.484375 16.875 -28.484375 C 19.78125 -28.484375 22.394531 -27.851562 24.71875 -26.59375 C 27.039062 -25.34375 28.867188 -23.617188 30.203125 -21.421875 C 31.535156 -19.222656 32.203125 -16.75 32.203125 -14 C 32.203125 -11.25 31.535156 -8.773438 30.203125 -6.578125 C 28.867188 -4.378906 27.039062 -2.648438 24.71875 -1.390625 C 22.394531 -0.140625 19.78125 0.484375 16.875 0.484375 Z M 16.875 -5.046875 C 18.53125 -5.046875 20.023438 -5.421875 21.359375 -6.171875 C 22.691406 -6.929688 23.738281 -7.992188 24.5 -9.359375 C 25.257812 -10.722656 25.640625 -12.269531 25.640625 -14 C 25.640625 -15.726562 25.257812 -17.273438 24.5 -18.640625 C 23.738281 -20.003906 22.691406 -21.0625 21.359375 -21.8125 C 20.023438 -22.570312 18.53125 -22.953125 16.875 -22.953125 C 15.226562 -22.953125 13.738281 -22.570312 12.40625 -21.8125 C 11.070312 -21.0625 10.023438 -20.003906 9.265625 -18.640625 C 8.503906 -17.273438 8.125 -15.726562 8.125 -14 C 8.125 -12.269531 8.503906 -10.722656 9.265625 -9.359375 C 10.023438 -7.992188 11.070312 -6.929688 12.40625 -6.171875 C 13.738281 -5.421875 15.226562 -5.046875 16.875 -5.046875 Z M 16.875 -5.046875 "/></g></g></g><g fill="#1c3879" fill-opacity="1"><g transform="translate(167.890668, 323.975019)"><g><path d="M 21.15625 0 L 15.765625 -7.796875 L 9.796875 -7.796875 L 9.796875 0 L 3.3125 0 L 3.3125 -28 L 15.4375 -28 C 17.914062 -28 20.066406 -27.582031 21.890625 -26.75 C 23.722656 -25.925781 25.128906 -24.753906 26.109375 -23.234375 C 27.097656 -21.710938 27.59375 -19.914062 27.59375 -17.84375 C 27.59375 -15.757812 27.09375 -13.960938 26.09375 -12.453125 C 25.09375 -10.953125 23.675781 -9.800781 21.84375 -9 L 28.125 0 Z M 21.046875 -17.84375 C 21.046875 -19.414062 20.535156 -20.617188 19.515625 -21.453125 C 18.503906 -22.296875 17.023438 -22.71875 15.078125 -22.71875 L 9.796875 -22.71875 L 9.796875 -12.953125 L 15.078125 -12.953125 C 17.023438 -12.953125 18.503906 -13.378906 19.515625 -14.234375 C 20.535156 -15.085938 21.046875 -16.289062 21.046875 -17.84375 Z M 21.046875 -17.84375 "/></g></g></g><g fill="#1c3879" fill-opacity="1"><g transform="translate(197.279647, 323.975019)"><g/></g></g><g fill="#607eaa" fill-opacity="1"><g transform="translate(123.299322, 348.263677)"><g><path d="M 12.636719 2.496094 C 10.8125 2.464844 8.320312 3.871094 6.128906 5.121094 C 4.304688 6.144531 2.222656 7.328125 1.632812 6.878906 C 1.472656 6.765625 1.265625 6.382812 1.550781 5.070312 C 2.207031 2.175781 3.550781 -2.960938 4.734375 -7.136719 C 6.175781 -12.191406 6.925781 -14.269531 7.292969 -15.117188 C 7.292969 -14.988281 7.277344 -14.8125 7.261719 -14.605469 C 7.246094 -14.429688 7.375 -14.285156 7.535156 -14.269531 C 7.710938 -14.253906 7.855469 -14.382812 7.871094 -14.558594 C 7.964844 -15.695312 7.949219 -16.222656 7.535156 -16.285156 C 7.167969 -16.347656 6.75 -16.414062 4.289062 -7.757812 C 3.054688 -3.457031 1.648438 1.886719 0.960938 4.925781 C 0.65625 6.222656 0.75 7.007812 1.265625 7.375 C 1.457031 7.519531 1.695312 7.582031 1.984375 7.582031 C 3.007812 7.582031 4.574219 6.703125 6.429688 5.648438 C 8.558594 4.449219 10.972656 3.070312 12.621094 3.101562 C 12.78125 3.121094 12.925781 2.976562 12.925781 2.816406 C 12.941406 2.640625 12.796875 2.496094 12.636719 2.496094 Z M 12.636719 2.496094 "/></g></g></g><g fill="#607eaa" fill-opacity="1"><g transform="translate(134.144715, 348.263677)"><g><path d="M 6.6875 -3.550781 C 6.542969 -3.617188 6.351562 -3.550781 6.285156 -3.40625 C 5.070312 -0.929688 4.160156 -0.144531 3.726562 -0.222656 C 3.550781 -0.257812 2.976562 -0.59375 2.832031 -3.390625 C 2.832031 -3.519531 2.734375 -3.632812 2.625 -3.664062 C 2.496094 -3.695312 2.351562 -3.664062 2.289062 -3.550781 C 2.191406 -3.441406 2.09375 -3.3125 2 -3.167969 C 1.601562 -2.625 1.070312 -1.886719 0.433594 -1.199219 C 0.335938 -1.085938 0.257812 -1.023438 0.207031 -0.992188 C 0.0976562 -1.550781 0.6875 -3.695312 1.632812 -4.367188 C 1.902344 -4.558594 2.273438 -4.703125 2.765625 -4.128906 C 2.878906 -4 3.070312 -3.984375 3.199219 -4.09375 C 3.328125 -4.191406 3.34375 -4.398438 3.246094 -4.527344 C 2.640625 -5.230469 2.0625 -5.214844 1.679688 -5.085938 C 0.449219 -4.65625 -0.382812 -2.289062 -0.414062 -1.199219 C -0.433594 -0.75 -0.304688 -0.464844 -0.046875 -0.367188 C 0.351562 -0.207031 0.75 -0.640625 0.878906 -0.785156 C 1.421875 -1.375 1.917969 -2.015625 2.273438 -2.511719 C 2.449219 -0.6875 2.878906 0.222656 3.597656 0.382812 C 3.664062 0.382812 3.726562 0.398438 3.792969 0.398438 C 4.878906 0.398438 6.046875 -1.503906 6.832031 -3.136719 C 6.910156 -3.296875 6.847656 -3.472656 6.6875 -3.550781 Z M 6.6875 -3.550781 "/></g></g></g><g fill="#607eaa" fill-opacity="1"><g transform="translate(140.095288, 348.263677)"><g/></g></g><g fill="#607eaa" fill-opacity="1"><g transform="translate(145.006108, 348.263677)"><g><path d="M 7.023438 -3.617188 C 6.863281 -3.695312 6.671875 -3.632812 6.605469 -3.472656 C 4.765625 0.398438 3.023438 2.382812 2.640625 2.320312 C 2.609375 2.304688 2.046875 1.757812 3.855469 -3.792969 C 3.902344 -3.933594 4.015625 -4.269531 3.757812 -4.449219 C 3.519531 -4.640625 3.246094 -4.464844 2.800781 -4.160156 C 2.320312 -3.855469 1.664062 -3.421875 1.152344 -3.488281 C 2.785156 -6.304688 2.625 -6.925781 2.253906 -7.167969 C 1.679688 -7.503906 0.847656 -6.527344 0.464844 -5.96875 C -0.320312 -4.75 -0.304688 -3.648438 0.527344 -3.085938 C 1.375 -2.496094 2.480469 -3.214844 3.136719 -3.648438 C 3.152344 -3.664062 3.152344 -3.664062 3.167969 -3.679688 C 2.542969 -1.710938 2.144531 -0.160156 2 0.910156 C 1.824219 2.09375 1.953125 2.71875 2.398438 2.894531 C 2.480469 2.910156 2.542969 2.925781 2.625 2.925781 C 3.902344 2.925781 6.128906 -1.007812 7.167969 -3.199219 C 7.230469 -3.359375 7.167969 -3.550781 7.023438 -3.617188 Z M 0.558594 -4.71875 C 0.785156 -5.582031 1.535156 -6.382812 1.871094 -6.574219 C 1.839844 -6.320312 1.664062 -5.597656 0.640625 -3.824219 C 0.527344 -4 0.449219 -4.269531 0.558594 -4.71875 Z M 0.558594 -4.71875 "/></g></g></g><g fill="#607eaa" fill-opacity="1"><g transform="translate(151.388569, 348.263677)"><g><path d="M 5.40625 -3.566406 C 5.261719 -3.664062 5.070312 -3.632812 4.976562 -3.488281 C 3.777344 -1.808594 2.800781 -0.75 1.839844 -0.0625 C 1.359375 0.273438 0.894531 0.335938 0.59375 0.113281 C 0.398438 -0.03125 -0.191406 -0.671875 0.496094 -2.910156 C 2.046875 -4.191406 2.894531 -5.40625 2.671875 -6.046875 C 2.589844 -6.238281 2.398438 -6.367188 2.191406 -6.367188 C 1.550781 -6.351562 0.574219 -5.246094 -0.0625 -3.183594 C -0.847656 -0.640625 -0.207031 0.289062 0.238281 0.609375 C 0.464844 0.785156 0.71875 0.863281 1.007812 0.863281 C 1.375 0.863281 1.792969 0.71875 2.191406 0.433594 C 3.214844 -0.304688 4.222656 -1.390625 5.472656 -3.136719 C 5.566406 -3.28125 5.535156 -3.472656 5.40625 -3.566406 Z M 2.0625 -5.695312 C 2 -5.4375 1.726562 -4.925781 0.976562 -4.160156 C 1.390625 -5.085938 1.839844 -5.535156 2.0625 -5.695312 Z M 2.0625 -5.695312 "/></g></g></g><g fill="#607eaa" fill-opacity="1"><g transform="translate(156.043453, 348.263677)"><g><path d="M 3.246094 -4.222656 C 2.527344 -4.144531 1.953125 -4.0625 1.296875 -4 C 1.359375 -4.269531 1.421875 -4.527344 1.488281 -4.785156 C 1.503906 -4.785156 1.503906 -4.800781 1.519531 -4.816406 C 3.152344 -7.40625 4.527344 -10.558594 4 -11.375 C 3.886719 -11.519531 3.726562 -11.582031 3.566406 -11.550781 C 2.65625 -11.40625 1.695312 -8 1.40625 -6.957031 C 1.167969 -6.046875 0.910156 -5.039062 0.65625 -3.953125 C 0.222656 -3.902344 -0.257812 -3.871094 -0.832031 -3.824219 C -0.992188 -3.808594 -1.121094 -3.664062 -1.105469 -3.488281 C -1.105469 -3.328125 -0.960938 -3.214844 -0.800781 -3.214844 C -0.800781 -3.214844 -0.785156 -3.214844 -0.785156 -3.214844 C -0.289062 -3.246094 0.128906 -3.28125 0.496094 -3.3125 C -0.078125 -0.894531 -0.6875 1.808594 -1.214844 4.335938 C -1.601562 6.160156 -1.902344 7.710938 -2.078125 8.847656 C -2.398438 10.734375 -2.367188 10.957031 -2.0625 11.054688 C -2.03125 11.054688 -1.984375 11.070312 -1.953125 11.070312 C -1.679688 11.070312 -1.535156 10.671875 -1.390625 10.269531 C -1.328125 10.109375 -1.421875 9.933594 -1.582031 9.871094 C -1.601562 9.871094 -1.617188 9.855469 -1.632812 9.855469 C -1.328125 7.742188 -0.128906 1.917969 1.152344 -3.375 C 1.902344 -3.441406 2.527344 -3.519531 3.328125 -3.617188 C 3.488281 -3.648438 3.617188 -3.792969 3.582031 -3.96875 C 3.566406 -4.128906 3.40625 -4.253906 3.246094 -4.222656 Z M 3.472656 -10.703125 C 3.40625 -10.125 3.054688 -8.847656 2.046875 -6.941406 C 2.65625 -9.183594 3.183594 -10.269531 3.472656 -10.703125 Z M 3.472656 -10.703125 "/></g></g></g><g fill="#607eaa" fill-opacity="1"><g transform="translate(159.674583, 348.263677)"><g><path d="M 5.792969 -3.472656 C 5.648438 -3.582031 5.457031 -3.550781 5.359375 -3.421875 C 4.6875 -2.558594 3.582031 -1.839844 2.734375 -2 C 2.75 -2.113281 2.765625 -2.222656 2.765625 -2.335938 C 2.878906 -4.144531 2.320312 -4.511719 1.984375 -4.574219 C 1.601562 -4.65625 1.199219 -4.367188 1.007812 -3.886719 C 0.929688 -3.917969 0.832031 -3.917969 0.75 -3.855469 C 0.113281 -3.457031 -0.414062 -2.429688 -0.128906 -1.328125 C 0.0625 -0.671875 0.511719 -0.257812 1.105469 -0.257812 C 1.664062 -0.257812 2.253906 -0.671875 2.558594 -1.40625 C 3.679688 -1.167969 5.023438 -2 5.839844 -3.039062 C 5.949219 -3.183594 5.917969 -3.375 5.792969 -3.472656 Z M 1.121094 -0.863281 C 1.105469 -0.863281 1.105469 -0.863281 1.105469 -0.863281 C 0.703125 -0.878906 0.527344 -1.265625 0.480469 -1.488281 C 0.320312 -2.03125 0.449219 -2.785156 0.894531 -3.199219 C 0.929688 -2.65625 1.230469 -2.0625 2 -1.648438 C 1.777344 -1.136719 1.390625 -0.863281 1.121094 -0.863281 Z M 2.160156 -2.367188 C 2.144531 -2.335938 2.144531 -2.304688 2.144531 -2.273438 C 1.535156 -2.671875 1.441406 -3.183594 1.550781 -3.582031 C 1.632812 -3.839844 1.792969 -3.96875 1.871094 -3.96875 C 1.953125 -3.953125 2.222656 -3.648438 2.160156 -2.367188 Z M 2.160156 -2.367188 "/></g></g></g><g fill="#607eaa" fill-opacity="1"><g transform="translate(164.793353, 348.263677)"><g><path d="M 7.023438 -3.617188 C 6.863281 -3.695312 6.671875 -3.632812 6.605469 -3.472656 C 4.765625 0.398438 3.023438 2.382812 2.640625 2.320312 C 2.609375 2.304688 2.046875 1.757812 3.855469 -3.792969 C 3.902344 -3.933594 4.015625 -4.269531 3.757812 -4.449219 C 3.519531 -4.640625 3.246094 -4.464844 2.800781 -4.160156 C 2.320312 -3.855469 1.664062 -3.421875 1.152344 -3.488281 C 2.785156 -6.304688 2.625 -6.925781 2.253906 -7.167969 C 1.679688 -7.503906 0.847656 -6.527344 0.464844 -5.96875 C -0.320312 -4.75 -0.304688 -3.648438 0.527344 -3.085938 C 1.375 -2.496094 2.480469 -3.214844 3.136719 -3.648438 C 3.152344 -3.664062 3.152344 -3.664062 3.167969 -3.679688 C 2.542969 -1.710938 2.144531 -0.160156 2 0.910156 C 1.824219 2.09375 1.953125 2.71875 2.398438 2.894531 C 2.480469 2.910156 2.542969 2.925781 2.625 2.925781 C 3.902344 2.925781 6.128906 -1.007812 7.167969 -3.199219 C 7.230469 -3.359375 7.167969 -3.550781 7.023438 -3.617188 Z M 0.558594 -4.71875 C 0.785156 -5.582031 1.535156 -6.382812 1.871094 -6.574219 C 1.839844 -6.320312 1.664062 -5.597656 0.640625 -3.824219 C 0.527344 -4 0.449219 -4.269531 0.558594 -4.71875 Z M 0.558594 -4.71875 "/></g></g></g><g fill="#607eaa" fill-opacity="1"><g transform="translate(171.175814, 348.263677)"><g><path d="M 9.023438 -3.566406 C 8.894531 -3.679688 8.6875 -3.664062 8.574219 -3.535156 C 7.292969 -2.03125 6.429688 -1.648438 6.046875 -1.792969 C 5.710938 -1.917969 5.519531 -2.558594 5.535156 -3.566406 C 5.535156 -3.742188 5.550781 -4.175781 5.199219 -4.253906 C 4.800781 -4.351562 4.511719 -3.886719 3.664062 -2.113281 C 3.519531 -1.808594 3.390625 -1.535156 3.3125 -1.375 C 3.214844 -1.199219 3.152344 -1.105469 3.101562 -1.054688 C 3.023438 -1.214844 2.910156 -1.632812 2.925781 -2.253906 C 2.925781 -2.574219 2.925781 -2.847656 2.945312 -3.070312 C 2.960938 -3.777344 2.976562 -4.03125 2.6875 -4.144531 C 2.429688 -4.222656 2.253906 -3.984375 2.207031 -3.902344 C 1.503906 -2.945312 0.878906 -1.96875 0.222656 -0.785156 C 0.480469 -1.886719 0.945312 -3.472656 1.535156 -4.800781 C 1.601562 -4.960938 1.535156 -5.152344 1.375 -5.214844 C 1.214844 -5.277344 1.039062 -5.214844 0.960938 -5.054688 C 0.511719 -4.015625 0.0625 -2.6875 -0.273438 -1.375 C -0.800781 0.734375 -0.59375 0.832031 -0.398438 0.929688 C -0.351562 0.945312 -0.304688 0.960938 -0.257812 0.960938 C -0.0976562 0.960938 0.046875 0.847656 0.175781 0.609375 C 0.945312 -0.863281 1.582031 -1.953125 2.320312 -3.023438 C 2.320312 -2.800781 2.304688 -2.542969 2.304688 -2.253906 C 2.304688 -1.757812 2.367188 -0.574219 2.960938 -0.414062 C 3.441406 -0.304688 3.742188 -0.894531 3.855469 -1.085938 C 3.953125 -1.265625 4.078125 -1.535156 4.222656 -1.839844 C 4.398438 -2.207031 4.6875 -2.816406 4.925781 -3.230469 C 4.960938 -2.113281 5.261719 -1.421875 5.839844 -1.214844 C 6.621094 -0.910156 7.695312 -1.566406 9.054688 -3.136719 C 9.167969 -3.261719 9.152344 -3.457031 9.023438 -3.566406 Z M 9.023438 -3.566406 "/></g></g></g><g fill="#607eaa" fill-opacity="1"><g transform="translate(179.509813, 348.263677)"><g><path d="M 6.6875 -3.550781 C 6.542969 -3.617188 6.351562 -3.550781 6.285156 -3.40625 C 5.070312 -0.929688 4.160156 -0.144531 3.726562 -0.222656 C 3.550781 -0.257812 2.976562 -0.59375 2.832031 -3.390625 C 2.832031 -3.519531 2.734375 -3.632812 2.625 -3.664062 C 2.496094 -3.695312 2.351562 -3.664062 2.289062 -3.550781 C 2.191406 -3.441406 2.09375 -3.3125 2 -3.167969 C 1.601562 -2.625 1.070312 -1.886719 0.433594 -1.199219 C 0.335938 -1.085938 0.257812 -1.023438 0.207031 -0.992188 C 0.0976562 -1.550781 0.6875 -3.695312 1.632812 -4.367188 C 1.902344 -4.558594 2.273438 -4.703125 2.765625 -4.128906 C 2.878906 -4 3.070312 -3.984375 3.199219 -4.09375 C 3.328125 -4.191406 3.34375 -4.398438 3.246094 -4.527344 C 2.640625 -5.230469 2.0625 -5.214844 1.679688 -5.085938 C 0.449219 -4.65625 -0.382812 -2.289062 -0.414062 -1.199219 C -0.433594 -0.75 -0.304688 -0.464844 -0.046875 -0.367188 C 0.351562 -0.207031 0.75 -0.640625 0.878906 -0.785156 C 1.421875 -1.375 1.917969 -2.015625 2.273438 -2.511719 C 2.449219 -0.6875 2.878906 0.222656 3.597656 0.382812 C 3.664062 0.382812 3.726562 0.398438 3.792969 0.398438 C 4.878906 0.398438 6.046875 -1.503906 6.832031 -3.136719 C 6.910156 -3.296875 6.847656 -3.472656 6.6875 -3.550781 Z M 6.6875 -3.550781 "/></g></g></g><g fill="#607eaa" fill-opacity="1"><g transform="translate(185.460386, 348.263677)"><g/></g></g><g fill="#607eaa" fill-opacity="1"><g transform="translate(190.371206, 348.263677)"><g><path d="M 6.832031 -13.359375 C 6.71875 -13.453125 6.574219 -13.484375 6.429688 -13.453125 C 5.742188 -13.230469 4.511719 -9.886719 3.328125 -4.382812 C 3.296875 -4.289062 3.246094 -4.207031 3.199219 -4.113281 C 3.121094 -4.734375 2.703125 -4.910156 2.558594 -4.960938 C 1.871094 -5.167969 0.785156 -4.542969 0.03125 -2.945312 C -0.542969 -1.742188 -0.65625 -0.175781 0.0625 0.238281 C 0.414062 0.449219 1.023438 0.414062 1.902344 -0.863281 C 2.289062 -1.40625 2.625 -1.9375 2.945312 -2.449219 C 2.765625 -1.535156 2.589844 -0.574219 2.429688 0.433594 C 2.128906 2.222656 1.902344 3.726562 1.777344 4.816406 C 1.519531 6.941406 1.648438 7.230469 1.96875 7.328125 C 2 7.34375 2.046875 7.34375 2.078125 7.34375 C 2.367188 7.34375 2.558594 6.976562 2.65625 6.734375 C 2.734375 6.589844 2.671875 6.398438 2.511719 6.335938 C 2.429688 6.285156 2.335938 6.285156 2.253906 6.320312 C 2.289062 5.632812 2.449219 4.0625 3.039062 0.542969 C 3.328125 -1.214844 3.632812 -2.785156 3.917969 -4.160156 C 5.121094 -6.429688 5.726562 -8.351562 6.222656 -9.871094 C 6.285156 -10.0625 6.351562 -10.238281 6.398438 -10.398438 C 7.246094 -12.941406 6.925781 -13.246094 6.832031 -13.359375 Z M 1.390625 -1.214844 C 0.785156 -0.335938 0.449219 -0.257812 0.367188 -0.289062 C 0.128906 -0.433594 0.046875 -1.535156 0.59375 -2.6875 C 1.136719 -3.839844 1.871094 -4.382812 2.273438 -4.382812 C 2.320312 -4.382812 2.351562 -4.382812 2.382812 -4.367188 C 2.640625 -4.304688 2.589844 -3.839844 2.574219 -3.710938 C 2.558594 -3.566406 2.640625 -3.421875 2.785156 -3.375 C 2.382812 -2.6875 1.917969 -1.96875 1.390625 -1.214844 Z M 5.824219 -10.589844 C 5.757812 -10.429688 5.695312 -10.253906 5.648438 -10.0625 C 5.359375 -9.199219 5.039062 -8.222656 4.605469 -7.117188 C 5.277344 -9.773438 5.886719 -11.4375 6.269531 -12.269531 C 6.207031 -11.886719 6.0625 -11.34375 5.824219 -10.589844 Z M 5.824219 -10.589844 "/></g></g></g><g fill="#607eaa" fill-opacity="1"><g transform="translate(195.378007, 348.263677)"><g><path d="M 5.40625 -3.566406 C 5.261719 -3.664062 5.070312 -3.632812 4.976562 -3.488281 C 3.777344 -1.808594 2.800781 -0.75 1.839844 -0.0625 C 1.359375 0.273438 0.894531 0.335938 0.59375 0.113281 C 0.398438 -0.03125 -0.191406 -0.671875 0.496094 -2.910156 C 2.046875 -4.191406 2.894531 -5.40625 2.671875 -6.046875 C 2.589844 -6.238281 2.398438 -6.367188 2.191406 -6.367188 C 1.550781 -6.351562 0.574219 -5.246094 -0.0625 -3.183594 C -0.847656 -0.640625 -0.207031 0.289062 0.238281 0.609375 C 0.464844 0.785156 0.71875 0.863281 1.007812 0.863281 C 1.375 0.863281 1.792969 0.71875 2.191406 0.433594 C 3.214844 -0.304688 4.222656 -1.390625 5.472656 -3.136719 C 5.566406 -3.28125 5.535156 -3.472656 5.40625 -3.566406 Z M 2.0625 -5.695312 C 2 -5.4375 1.726562 -4.925781 0.976562 -4.160156 C 1.390625 -5.085938 1.839844 -5.535156 2.0625 -5.695312 Z M 2.0625 -5.695312 "/></g></g></g><g fill="#607eaa" fill-opacity="1"><g transform="translate(200.032891, 348.263677)"><g/></g></g><g fill="#607eaa" fill-opacity="1"><g transform="translate(204.943711, 348.263677)"><g><path d="M 13.5 -9.4375 C 13.292969 -9.726562 12.367188 -9.902344 2.429688 -9.679688 C 2.75 -10.972656 3.039062 -12.140625 3.296875 -13.085938 C 3.34375 -13.261719 3.246094 -13.421875 3.085938 -13.46875 C 2.925781 -13.519531 2.75 -13.421875 2.703125 -13.261719 C 2.429688 -12.253906 2.128906 -11.039062 1.792969 -9.664062 C 0.910156 -9.648438 -0.046875 -9.628906 -1.085938 -9.597656 C -2.511719 -9.566406 -3.632812 -9.535156 -4.0625 -9.535156 C -4.238281 -9.535156 -4.382812 -9.390625 -4.382812 -9.230469 C -4.382812 -9.054688 -4.238281 -8.910156 -4.0625 -8.910156 C -3.617188 -8.925781 -2.496094 -8.941406 -1.070312 -8.992188 C -0.320312 -9.007812 0.609375 -9.023438 1.648438 -9.054688 C 0.960938 -6.144531 0.175781 -2.65625 -0.527344 0.75 C -1.039062 3.246094 -1.457031 5.40625 -1.726562 6.992188 C -1.871094 7.824219 -1.96875 8.480469 -2.015625 8.925781 C -2.078125 9.535156 -2.113281 9.886719 -1.808594 10 C -1.757812 10 -1.726562 10.015625 -1.679688 10.015625 C -1.40625 10.015625 -1.265625 9.628906 -1.136719 9.277344 C -1.070312 9.117188 -1.152344 8.941406 -1.3125 8.878906 C -1.34375 8.878906 -1.359375 8.863281 -1.390625 8.863281 C -1.230469 7.613281 -0.75 4.816406 0.175781 0.398438 C 0.863281 -2.945312 1.617188 -6.285156 2.289062 -9.070312 C 6.6875 -9.167969 12.398438 -9.246094 13.054688 -9.023438 C 13.164062 -8.925781 13.308594 -8.925781 13.4375 -9.007812 C 13.566406 -9.101562 13.597656 -9.292969 13.5 -9.4375 Z M 13.5 -9.4375 "/></g></g></g><g fill="#607eaa" fill-opacity="1"><g transform="translate(207.071202, 348.263677)"><g><path d="M 6.367188 -3.457031 C 6.222656 -3.535156 6.03125 -3.488281 5.949219 -3.34375 C 4.429688 -0.910156 3.152344 0.175781 2.878906 0.078125 C 2.878906 0.078125 2.558594 -0.0976562 2.863281 -1.9375 C 2.976562 -2.558594 3.023438 -2.910156 2.71875 -3.039062 C 2.429688 -3.152344 2.253906 -2.910156 1.917969 -2.429688 C 1.648438 -2.046875 1.28125 -1.535156 0.878906 -1.183594 C 0.832031 -1.152344 0.65625 -0.992188 0.574219 -1.054688 C 0.335938 -1.246094 0.289062 -2.289062 0.847656 -3.246094 C 0.945312 -3.390625 0.878906 -3.582031 0.734375 -3.679688 C 0.59375 -3.757812 0.398438 -3.710938 0.320312 -3.566406 C -0.320312 -2.449219 -0.382812 -1.054688 0.175781 -0.59375 C 0.320312 -0.464844 0.71875 -0.238281 1.28125 -0.703125 C 1.648438 -1.023438 1.96875 -1.441406 2.222656 -1.792969 C 2 -0.304688 2.128906 0.449219 2.65625 0.65625 C 2.734375 0.6875 2.816406 0.6875 2.878906 0.6875 C 4.09375 0.6875 6.0625 -2.382812 6.464844 -3.023438 C 6.558594 -3.167969 6.511719 -3.359375 6.367188 -3.457031 Z M 6.367188 -3.457031 "/></g></g></g><g fill="#607eaa" fill-opacity="1"><g transform="translate(212.797825, 348.263677)"><g/></g></g><g fill="#607eaa" fill-opacity="1"><g transform="translate(217.708644, 348.263677)"><g><path d="M 8.03125 -3.488281 C 7.902344 -3.597656 7.710938 -3.582031 7.597656 -3.457031 C 6.941406 -2.6875 6.0625 -2.304688 5.34375 -2.496094 C 4.75 -2.65625 4.320312 -3.230469 4.160156 -4.09375 C 4.128906 -4.238281 3.984375 -4.335938 3.839844 -4.335938 C 3.695312 -4.335938 3.566406 -4.222656 3.550781 -4.078125 C 3.214844 -1.679688 1.3125 1.183594 0.398438 1.488281 C 0.289062 1.519531 0.257812 1.503906 0.257812 1.488281 C 0.175781 1.421875 -0.367188 0.671875 1.328125 -4.367188 C 1.375 -4.527344 1.296875 -4.703125 1.136719 -4.75 C 0.976562 -4.816406 0.800781 -4.71875 0.734375 -4.558594 C -1.121094 0.992188 -0.414062 1.695312 -0.191406 1.917969 C -0.0976562 2 0.0625 2.128906 0.304688 2.128906 C 0.382812 2.128906 0.480469 2.113281 0.59375 2.0625 C 1.183594 1.871094 1.984375 1.023438 2.703125 -0.175781 C 3.246094 -1.070312 3.664062 -2.03125 3.917969 -2.925781 C 4.222656 -2.398438 4.65625 -2.046875 5.183594 -1.902344 C 6.128906 -1.664062 7.246094 -2.113281 8.0625 -3.054688 C 8.175781 -3.183594 8.160156 -3.375 8.03125 -3.488281 Z M 8.03125 -3.488281 "/></g></g></g><g fill="#607eaa" fill-opacity="1"><g transform="translate(225.258826, 348.263677)"><g><path d="M 4.671875 -3.632812 C 4.527344 -3.726562 4.351562 -3.679688 4.253906 -3.535156 C 3.183594 -1.808594 1.390625 -0.175781 0.847656 -0.398438 C 0.785156 -0.433594 0.273438 -0.734375 0.976562 -3.441406 C 1.007812 -3.617188 0.910156 -3.777344 0.75 -3.824219 C 0.574219 -3.855469 0.414062 -3.757812 0.367188 -3.597656 C -0.207031 -1.34375 -0.128906 -0.144531 0.59375 0.160156 C 0.703125 0.207031 0.816406 0.222656 0.929688 0.222656 C 2.128906 0.222656 3.96875 -1.917969 4.785156 -3.214844 C 4.863281 -3.359375 4.816406 -3.550781 4.671875 -3.632812 Z M 0.894531 -4.925781 C 1.710938 -4.878906 1.695312 -5.902344 1.039062 -5.679688 C 0.703125 -5.582031 0.273438 -4.960938 0.894531 -4.925781 Z M 0.894531 -4.925781 "/></g></g></g><g fill="#607eaa" fill-opacity="1"><g transform="translate(229.305857, 348.263677)"><g><path d="M 6.832031 -13.359375 C 6.71875 -13.453125 6.574219 -13.484375 6.429688 -13.453125 C 5.742188 -13.230469 4.511719 -9.886719 3.328125 -4.382812 C 3.296875 -4.289062 3.246094 -4.207031 3.199219 -4.113281 C 3.121094 -4.734375 2.703125 -4.910156 2.558594 -4.960938 C 1.871094 -5.167969 0.785156 -4.542969 0.03125 -2.945312 C -0.542969 -1.742188 -0.65625 -0.175781 0.0625 0.238281 C 0.414062 0.449219 1.023438 0.414062 1.902344 -0.863281 C 2.289062 -1.40625 2.625 -1.9375 2.945312 -2.449219 C 2.765625 -1.535156 2.589844 -0.574219 2.429688 0.433594 C 2.128906 2.222656 1.902344 3.726562 1.777344 4.816406 C 1.519531 6.941406 1.648438 7.230469 1.96875 7.328125 C 2 7.34375 2.046875 7.34375 2.078125 7.34375 C 2.367188 7.34375 2.558594 6.976562 2.65625 6.734375 C 2.734375 6.589844 2.671875 6.398438 2.511719 6.335938 C 2.429688 6.285156 2.335938 6.285156 2.253906 6.320312 C 2.289062 5.632812 2.449219 4.0625 3.039062 0.542969 C 3.328125 -1.214844 3.632812 -2.785156 3.917969 -4.160156 C 5.121094 -6.429688 5.726562 -8.351562 6.222656 -9.871094 C 6.285156 -10.0625 6.351562 -10.238281 6.398438 -10.398438 C 7.246094 -12.941406 6.925781 -13.246094 6.832031 -13.359375 Z M 1.390625 -1.214844 C 0.785156 -0.335938 0.449219 -0.257812 0.367188 -0.289062 C 0.128906 -0.433594 0.046875 -1.535156 0.59375 -2.6875 C 1.136719 -3.839844 1.871094 -4.382812 2.273438 -4.382812 C 2.320312 -4.382812 2.351562 -4.382812 2.382812 -4.367188 C 2.640625 -4.304688 2.589844 -3.839844 2.574219 -3.710938 C 2.558594 -3.566406 2.640625 -3.421875 2.785156 -3.375 C 2.382812 -2.6875 1.917969 -1.96875 1.390625 -1.214844 Z M 5.824219 -10.589844 C 5.757812 -10.429688 5.695312 -10.253906 5.648438 -10.0625 C 5.359375 -9.199219 5.039062 -8.222656 4.605469 -7.117188 C 5.277344 -9.773438 5.886719 -11.4375 6.269531 -12.269531 C 6.207031 -11.886719 6.0625 -11.34375 5.824219 -10.589844 Z M 5.824219 -10.589844 "/></g></g></g><g fill="#607eaa" fill-opacity="1"><g transform="translate(234.312659, 348.263677)"><g><path d="M 6.6875 -3.550781 C 6.542969 -3.617188 6.351562 -3.550781 6.285156 -3.40625 C 5.070312 -0.929688 4.160156 -0.144531 3.726562 -0.222656 C 3.550781 -0.257812 2.976562 -0.59375 2.832031 -3.390625 C 2.832031 -3.519531 2.734375 -3.632812 2.625 -3.664062 C 2.496094 -3.695312 2.351562 -3.664062 2.289062 -3.550781 C 2.191406 -3.441406 2.09375 -3.3125 2 -3.167969 C 1.601562 -2.625 1.070312 -1.886719 0.433594 -1.199219 C 0.335938 -1.085938 0.257812 -1.023438 0.207031 -0.992188 C 0.0976562 -1.550781 0.6875 -3.695312 1.632812 -4.367188 C 1.902344 -4.558594 2.273438 -4.703125 2.765625 -4.128906 C 2.878906 -4 3.070312 -3.984375 3.199219 -4.09375 C 3.328125 -4.191406 3.34375 -4.398438 3.246094 -4.527344 C 2.640625 -5.230469 2.0625 -5.214844 1.679688 -5.085938 C 0.449219 -4.65625 -0.382812 -2.289062 -0.414062 -1.199219 C -0.433594 -0.75 -0.304688 -0.464844 -0.046875 -0.367188 C 0.351562 -0.207031 0.75 -0.640625 0.878906 -0.785156 C 1.421875 -1.375 1.917969 -2.015625 2.273438 -2.511719 C 2.449219 -0.6875 2.878906 0.222656 3.597656 0.382812 C 3.664062 0.382812 3.726562 0.398438 3.792969 0.398438 C 4.878906 0.398438 6.046875 -1.503906 6.832031 -3.136719 C 6.910156 -3.296875 6.847656 -3.472656 6.6875 -3.550781 Z M 6.6875 -3.550781 "/></g></g></g><g fill="#607eaa" fill-opacity="1"><g transform="translate(240.252439, 348.263677)"><g/></g></g><path stroke-linecap="butt" transform="matrix(0.75, 0, 0, 0.75, 198.631866, 282.725021)" fill="none" stroke-linejoin="miter" d="M 4.443971 17.673931 L 13.089805 17.673931 L 13.089805 47.955183 L 31.798139 47.955183 L 31.798139 55.002058 L 4.443971 55.002058 Z M 36.652306 17.673931 L 45.29814 17.673931 L 45.29814 55.002058 L 36.652306 55.002058 Z M 62.787725 24.595806 L 62.787725 34.465599 L 80.068976 34.465599 L 80.068976 41.408307 L 62.787725 41.408307 L 62.787725 55.002058 L 54.141891 55.002058 L 54.141891 17.673931 L 82.360643 17.673931 L 82.360643 24.595806 Z M 117.12627 48.074975 L 117.12627 55.002058 L 88.220018 55.002058 L 88.220018 17.673931 L 116.433562 17.673931 L 116.433562 24.595806 L 96.803352 24.595806 L 96.803352 32.71039 L 114.141895 32.71039 L 114.141895 39.429141 L 96.803352 39.429141 L 96.803352 48.074975 Z M 117.12627 48.074975 " stroke="#1c3879" stroke-width="1.999999" stroke-opacity="1" stroke-miterlimit="4"/><g clip-path="url(#2f5dfb9b85)"><g clip-path="url(#08af37768d)"><path fill="#607eaa" d="M 235.417969 212.132812 L 235.417969 182.867188 L 260.109375 182.867188 L 260.109375 212.132812 Z M 235.417969 212.132812 " fill-opacity="1" fill-rule="nonzero"/></g></g><g clip-path="url(#6f905d8e87)"><g clip-path="url(#f9956e6c1f)"><path fill="#607eaa" d="M 274.242188 76.363281 L 274.242188 104.964844 L 250.109375 104.964844 L 250.109375 76.363281 Z M 274.242188 76.363281 " fill-opacity="1" fill-rule="nonzero"/></g></g><g clip-path="url(#91bc545557)"><g clip-path="url(#88bbde9697)"><path fill="#607eaa" d="M 274.242188 205.617188 L 274.242188 234.21875 L 250.109375 234.21875 L 250.109375 205.617188 Z M 274.242188 205.617188 " fill-opacity="1" fill-rule="nonzero"/></g></g></svg>