<svg xmlns="http://www.w3.org/2000/svg" xmlns:xlink="http://www.w3.org/1999/xlink" width="500" zoomAndPan="magnify" viewBox="0 0 375 374.999991" height="500" preserveAspectRatio="xMidYMid meet" version="1.0"><defs><clipPath id="158d5be404"><path d="M 72 44 L 216 44 L 216 142 L 72 142 Z M 72 44 " clip-rule="nonzero"/></clipPath><clipPath id="eb009bb0cf"><path d="M 72.5 117.925781 L 203.574219 43.757812 L 217.0625 67.589844 L 85.984375 141.757812 Z M 72.5 117.925781 " clip-rule="nonzero"/></clipPath><clipPath id="c43c036dd0"><path d="M 72.5 117.925781 L 202.640625 44.289062 L 216.089844 68.054688 L 85.949219 141.695312 Z M 72.5 117.925781 " clip-rule="nonzero"/></clipPath><clipPath id="66916a3a60"><path d="M 187 44 L 303 44 L 303 127 L 187 127 Z M 187 44 " clip-rule="nonzero"/></clipPath><clipPath id="dc2c55860f"><path d="M 201.742188 44.292969 L 302.980469 103.644531 L 289.132812 127.265625 L 187.890625 67.914062 Z M 201.742188 44.292969 " clip-rule="nonzero"/></clipPath><clipPath id="7cfff9a46f"><path d="M 201.742188 44.292969 L 302.496094 103.359375 L 288.6875 126.921875 L 187.929688 67.851562 Z M 201.742188 44.292969 " clip-rule="nonzero"/></clipPath><clipPath id="6199542fb9"><path d="M 72.496094 118.304688 L 99.804688 118.304688 L 99.804688 263.160156 L 72.496094 263.160156 Z M 72.496094 118.304688 " clip-rule="nonzero"/></clipPath><clipPath id="41014f0242"><path d="M 72 239 L 213 239 L 213 338 L 72 338 Z M 72 239 " clip-rule="nonzero"/></clipPath><clipPath id="ec4fe2be02"><path d="M 86.308594 239.949219 L 212.859375 314.136719 L 199.011719 337.761719 L 72.460938 263.570312 Z M 86.308594 239.949219 " clip-rule="nonzero"/></clipPath><clipPath id="81dd717813"><path d="M 86.308594 239.949219 L 212.527344 313.941406 L 198.714844 337.5 L 72.5 263.507812 Z M 86.308594 239.949219 " clip-rule="nonzero"/></clipPath><clipPath id="0dd8076295"><path d="M 186 255 L 302 255 L 302 338 L 186 338 Z M 186 255 " clip-rule="nonzero"/></clipPath><clipPath id="3fc28a2138"><path d="M 186.121094 313.730469 L 289.960938 254.972656 L 303.445312 278.804688 L 199.609375 337.5625 Z M 186.121094 313.730469 " clip-rule="nonzero"/></clipPath><clipPath id="3d6f01f68a"><path d="M 186.121094 313.730469 L 289.050781 255.488281 L 302.5 279.253906 L 199.570312 337.496094 Z M 186.121094 313.730469 " clip-rule="nonzero"/></clipPath><clipPath id="7dad7bd738"><path d="M 115 92 L 216 92 L 216 166 L 115 166 Z M 115 92 " clip-rule="nonzero"/></clipPath><clipPath id="fd794c0a19"><path d="M 115.851562 141.820312 L 202.667969 92.695312 L 216.152344 116.527344 L 129.335938 165.652344 Z M 115.851562 141.820312 " clip-rule="nonzero"/></clipPath><clipPath id="930abd02de"><path d="M 115.851562 141.820312 L 202.144531 92.992188 L 215.59375 116.757812 L 129.300781 165.589844 Z M 115.851562 141.820312 " clip-rule="nonzero"/></clipPath><clipPath id="01a3a25930"><path d="M 188 92 L 287 92 L 287 164 L 188 164 Z M 188 92 " clip-rule="nonzero"/></clipPath><clipPath id="2ddf54a594"><path d="M 273.191406 163.742188 L 187.984375 115.746094 L 201.425781 91.886719 L 286.628906 139.886719 Z M 273.191406 163.742188 " clip-rule="nonzero"/></clipPath><clipPath id="767af3848e"><path d="M 273.191406 163.742188 L 188.421875 115.992188 L 201.824219 92.199219 L 286.59375 139.949219 Z M 273.191406 163.742188 " clip-rule="nonzero"/></clipPath><clipPath id="843b9bd8e8"><path d="M 115.851562 142 L 143.160156 142 L 143.160156 240.402344 L 115.851562 240.402344 Z M 115.851562 142 " clip-rule="nonzero"/></clipPath><clipPath id="f06057d3b3"><path d="M 259.332031 140.867188 L 286.640625 140.867188 L 286.640625 238.214844 L 259.332031 238.214844 Z M 259.332031 140.867188 " clip-rule="nonzero"/></clipPath><clipPath id="866083bce8"><path d="M 115.800781 44.285156 L 143.109375 44.285156 L 143.109375 108.464844 L 115.800781 108.464844 Z M 115.800781 44.285156 " clip-rule="nonzero"/></clipPath><clipPath id="6bd4c56d14"><path d="M 115.632812 224.125 L 143.105469 224.125 L 143.105469 256.6875 L 115.632812 256.6875 Z M 115.632812 224.125 " clip-rule="nonzero"/></clipPath><clipPath id="fb6654f3c0"><path d="M 115.796875 240.40625 L 143.105469 256.6875 L 143.105469 224.125 L 115.796875 240.40625 " clip-rule="nonzero"/></clipPath><clipPath id="f0e05e02fb"><path d="M 259.289062 221.9375 L 286.761719 221.9375 L 286.761719 254.5 L 259.289062 254.5 Z M 259.289062 221.9375 " clip-rule="nonzero"/></clipPath><clipPath id="a1fb4a1b9c"><path d="M 286.597656 238.21875 L 259.289062 221.9375 L 259.289062 254.5 L 286.597656 238.21875 " clip-rule="nonzero"/></clipPath><clipPath id="46396b25ce"><path d="M 275.640625 103.433594 L 302.492188 103.433594 L 302.492188 135.257812 L 275.640625 135.257812 Z M 275.640625 103.433594 " clip-rule="nonzero"/></clipPath><clipPath id="9fadedb9d6"><path d="M 275.800781 119.347656 L 302.492188 135.257812 L 302.492188 103.433594 L 275.800781 119.347656 " clip-rule="nonzero"/></clipPath><clipPath id="3f1f00a82c"><path d="M 275.640625 247.253906 L 302.492188 247.253906 L 302.492188 279.078125 L 275.640625 279.078125 Z M 275.640625 247.253906 " clip-rule="nonzero"/></clipPath><clipPath id="174028de57"><path d="M 275.800781 263.167969 L 302.492188 279.078125 L 302.492188 247.253906 L 275.800781 263.167969 " clip-rule="nonzero"/></clipPath></defs><g clip-path="url(#158d5be404)"><g clip-path="url(#eb009bb0cf)"><g clip-path="url(#c43c036dd0)"><path fill="#607eaa" d="M 72.5 117.925781 L 201.875 44.722656 L 215.359375 68.554688 L 85.984375 141.757812 Z M 72.5 117.925781 " fill-opacity="1" fill-rule="nonzero"/></g></g></g><g clip-path="url(#66916a3a60)"><g clip-path="url(#dc2c55860f)"><g clip-path="url(#7cfff9a46f)"><path fill="#607eaa" d="M 201.742188 44.292969 L 302.980469 103.644531 L 289.132812 127.265625 L 187.890625 67.914062 Z M 201.742188 44.292969 " fill-opacity="1" fill-rule="nonzero"/></g></g></g><g clip-path="url(#6199542fb9)"><path fill="#607eaa" d="M 72.496094 263.160156 L 72.496094 118.421875 L 99.878906 118.421875 L 99.878906 263.160156 Z M 72.496094 263.160156 " fill-opacity="1" fill-rule="nonzero"/></g><g clip-path="url(#41014f0242)"><g clip-path="url(#ec4fe2be02)"><g clip-path="url(#81dd717813)"><path fill="#607eaa" d="M 86.308594 239.949219 L 212.859375 314.136719 L 199.011719 337.761719 L 72.460938 263.570312 Z M 86.308594 239.949219 " fill-opacity="1" fill-rule="nonzero"/></g></g></g><g clip-path="url(#0dd8076295)"><g clip-path="url(#3fc28a2138)"><g clip-path="url(#3d6f01f68a)"><path fill="#607eaa" d="M 186.121094 313.730469 L 288.257812 255.9375 L 301.742188 279.769531 L 199.609375 337.5625 Z M 186.121094 313.730469 " fill-opacity="1" fill-rule="nonzero"/></g></g></g><g clip-path="url(#7dad7bd738)"><g clip-path="url(#fd794c0a19)"><g clip-path="url(#930abd02de)"><path fill="#607eaa" d="M 115.851562 141.820312 L 202.667969 92.695312 L 216.152344 116.527344 L 129.335938 165.652344 Z M 115.851562 141.820312 " fill-opacity="1" fill-rule="nonzero"/></g></g></g><g clip-path="url(#01a3a25930)"><g clip-path="url(#2ddf54a594)"><g clip-path="url(#767af3848e)"><path fill="#607eaa" d="M 273.191406 163.742188 L 187.984375 115.746094 L 201.425781 91.886719 L 286.628906 139.886719 Z M 273.191406 163.742188 " fill-opacity="1" fill-rule="nonzero"/></g></g></g><g clip-path="url(#843b9bd8e8)"><path fill="#607eaa" d="M 115.851562 240.402344 L 115.851562 142.609375 L 143.234375 142.609375 L 143.234375 240.402344 Z M 115.851562 240.402344 " fill-opacity="1" fill-rule="nonzero"/></g><g clip-path="url(#f06057d3b3)"><path fill="#607eaa" d="M 259.332031 238.214844 L 259.332031 140.421875 L 286.714844 140.421875 L 286.714844 238.214844 Z M 259.332031 238.214844 " fill-opacity="1" fill-rule="nonzero"/></g><g clip-path="url(#866083bce8)"><path fill="#607eaa" d="M 115.800781 108.464844 L 115.800781 43.917969 L 143.183594 43.917969 L 143.183594 108.464844 Z M 115.800781 108.464844 " fill-opacity="1" fill-rule="nonzero"/></g><g clip-path="url(#6bd4c56d14)"><g clip-path="url(#fb6654f3c0)"><path fill="#607eaa" d="M 143.105469 224.125 L 143.105469 256.6875 L 115.632812 256.6875 L 115.632812 224.125 Z M 143.105469 224.125 " fill-opacity="1" fill-rule="nonzero"/></g></g><g clip-path="url(#f0e05e02fb)"><g clip-path="url(#a1fb4a1b9c)"><path fill="#607eaa" d="M 259.289062 254.5 L 259.289062 221.9375 L 286.761719 221.9375 L 286.761719 254.5 Z M 259.289062 254.5 " fill-opacity="1" fill-rule="nonzero"/></g></g><g clip-path="url(#46396b25ce)"><g clip-path="url(#9fadedb9d6)"><path fill="#607eaa" d="M 302.492188 103.433594 L 302.492188 135.257812 L 275.640625 135.257812 L 275.640625 103.433594 Z M 302.492188 103.433594 " fill-opacity="1" fill-rule="nonzero"/></g></g><g clip-path="url(#3f1f00a82c)"><g clip-path="url(#174028de57)"><path fill="#607eaa" d="M 302.492188 247.253906 L 302.492188 279.078125 L 275.640625 279.078125 L 275.640625 247.253906 Z M 302.492188 247.253906 " fill-opacity="1" fill-rule="nonzero"/></g></g></svg>