<svg xmlns="http://www.w3.org/2000/svg" xmlns:xlink="http://www.w3.org/1999/xlink" width="180" zoomAndPan="magnify" viewBox="0 0 135 44.999999" height="60" preserveAspectRatio="xMidYMid meet" version="1.0"><defs><g/><clipPath id="cd2c350265"><path d="M 0 2 L 20 2 L 20 16 L 0 16 Z M 0 2 " clip-rule="nonzero"/></clipPath><clipPath id="6cdd50fa47"><path d="M 0 12.503906 L 17.953125 2.347656 L 19.796875 5.613281 L 1.847656 15.769531 Z M 0 12.503906 " clip-rule="nonzero"/></clipPath><clipPath id="b8f3a1fe91"><path d="M 0 12.503906 L 17.824219 2.421875 L 19.664062 5.675781 L 1.84375 15.761719 Z M 0 12.503906 " clip-rule="nonzero"/></clipPath><clipPath id="1af0bbf05f"><path d="M 15 2 L 32 2 L 32 14 L 15 14 Z M 15 2 " clip-rule="nonzero"/></clipPath><clipPath id="7177ef81ac"><path d="M 17.699219 2.425781 L 31.5625 10.554688 L 29.667969 13.789062 L 15.800781 5.660156 Z M 17.699219 2.425781 " clip-rule="nonzero"/></clipPath><clipPath id="2232728d36"><path d="M 17.699219 2.425781 L 31.496094 10.515625 L 29.605469 13.742188 L 15.808594 5.652344 Z M 17.699219 2.425781 " clip-rule="nonzero"/></clipPath><clipPath id="7790526a85"><path d="M 0 12.554688 L 3.734375 12.554688 L 3.734375 32.390625 L 0 32.390625 Z M 0 12.554688 " clip-rule="nonzero"/></clipPath><clipPath id="47b6c9bc11"><path d="M 0 29 L 20 29 L 20 43 L 0 43 Z M 0 29 " clip-rule="nonzero"/></clipPath><clipPath id="d6fa5ca735"><path d="M 1.890625 29.21875 L 19.222656 39.378906 L 17.324219 42.617188 L -0.0078125 32.457031 Z M 1.890625 29.21875 " clip-rule="nonzero"/></clipPath><clipPath id="33d87cf339"><path d="M 1.890625 29.21875 L 19.175781 39.355469 L 17.285156 42.582031 L 0 32.445312 Z M 1.890625 29.21875 " clip-rule="nonzero"/></clipPath><clipPath id="ffe2eeecee"><path d="M 15 31 L 32 31 L 32 43 L 15 43 Z M 15 31 " clip-rule="nonzero"/></clipPath><clipPath id="e67e363c77"><path d="M 15.5625 39.324219 L 29.78125 31.277344 L 31.628906 34.539062 L 17.40625 42.585938 Z M 15.5625 39.324219 " clip-rule="nonzero"/></clipPath><clipPath id="cd9cbb3c91"><path d="M 15.5625 39.324219 L 29.65625 31.347656 L 31.5 34.601562 L 17.402344 42.578125 Z M 15.5625 39.324219 " clip-rule="nonzero"/></clipPath><clipPath id="d4364e4c7a"><path d="M 5 9 L 20 9 L 20 20 L 5 20 Z M 5 9 " clip-rule="nonzero"/></clipPath><clipPath id="5913f616cc"><path d="M 5.9375 15.777344 L 17.828125 9.050781 L 19.671875 12.3125 L 7.785156 19.039062 Z M 5.9375 15.777344 " clip-rule="nonzero"/></clipPath><clipPath id="f62e79bea4"><path d="M 5.9375 15.777344 L 17.753906 9.089844 L 19.597656 12.34375 L 7.777344 19.03125 Z M 5.9375 15.777344 " clip-rule="nonzero"/></clipPath><clipPath id="f8e781a17b"><path d="M 15 8 L 30 8 L 30 19 L 15 19 Z M 15 8 " clip-rule="nonzero"/></clipPath><clipPath id="19573ef615"><path d="M 27.484375 18.78125 L 15.816406 12.207031 L 17.65625 8.941406 L 29.324219 15.511719 Z M 27.484375 18.78125 " clip-rule="nonzero"/></clipPath><clipPath id="3dfaa14888"><path d="M 27.484375 18.78125 L 15.875 12.242188 L 17.710938 8.980469 L 29.320312 15.523438 Z M 27.484375 18.78125 " clip-rule="nonzero"/></clipPath><clipPath id="74d3c115b4"><path d="M 5.933594 15.757812 L 9.675781 15.757812 L 9.675781 29.277344 L 5.933594 29.277344 Z M 5.933594 15.757812 " clip-rule="nonzero"/></clipPath><clipPath id="2c34488d4c"><path d="M 25.585938 15.644531 L 29.324219 15.644531 L 29.324219 28.976562 L 25.585938 28.976562 Z M 25.585938 15.644531 " clip-rule="nonzero"/></clipPath><clipPath id="33533ef22b"><path d="M 5.929688 2.421875 L 9.671875 2.421875 L 9.671875 11.210938 L 5.929688 11.210938 Z M 5.929688 2.421875 " clip-rule="nonzero"/></clipPath><clipPath id="60c3e9481c"><path d="M 5.902344 27.054688 L 9.667969 27.054688 L 9.667969 31.511719 L 5.902344 31.511719 Z M 5.902344 27.054688 " clip-rule="nonzero"/></clipPath><clipPath id="f5f1dede85"><path d="M 5.925781 29.28125 L 9.667969 31.511719 L 9.667969 27.054688 L 5.925781 29.28125 " clip-rule="nonzero"/></clipPath><clipPath id="a50463a5c3"><path d="M 25.578125 26.746094 L 29.339844 26.746094 L 29.339844 31.207031 L 25.578125 31.207031 Z M 25.578125 26.746094 " clip-rule="nonzero"/></clipPath><clipPath id="8e7b562be8"><path d="M 29.320312 28.976562 L 25.578125 26.746094 L 25.578125 31.207031 L 29.320312 28.976562 " clip-rule="nonzero"/></clipPath><clipPath id="e0d2ca0392"><path d="M 27.8125 10.523438 L 31.488281 10.523438 L 31.488281 14.878906 L 27.8125 14.878906 Z M 27.8125 10.523438 " clip-rule="nonzero"/></clipPath><clipPath id="14bbcc7705"><path d="M 27.832031 12.703125 L 31.488281 14.878906 L 31.488281 10.523438 L 27.832031 12.703125 " clip-rule="nonzero"/></clipPath><clipPath id="6eed3d1b2b"><path d="M 27.8125 30.21875 L 31.488281 30.21875 L 31.488281 34.578125 L 27.8125 34.578125 Z M 27.8125 30.21875 " clip-rule="nonzero"/></clipPath><clipPath id="3ebd974871"><path d="M 27.832031 32.398438 L 31.488281 34.578125 L 31.488281 30.21875 L 27.832031 32.398438 " clip-rule="nonzero"/></clipPath></defs><g fill="#607eaa" fill-opacity="1"><g transform="translate(57.055491, 36.14601)"><g><path d="M 5.289062 1.042969 C 4.527344 1.03125 3.480469 1.621094 2.5625 2.140625 C 1.800781 2.570312 0.929688 3.066406 0.683594 2.878906 C 0.617188 2.832031 0.527344 2.671875 0.648438 2.121094 C 0.925781 0.910156 1.488281 -1.238281 1.980469 -2.984375 C 2.585938 -5.101562 2.898438 -5.972656 3.054688 -6.328125 C 3.054688 -6.273438 3.046875 -6.199219 3.039062 -6.113281 C 3.03125 -6.039062 3.085938 -5.980469 3.152344 -5.972656 C 3.226562 -5.964844 3.289062 -6.019531 3.292969 -6.09375 C 3.335938 -6.566406 3.328125 -6.789062 3.152344 -6.816406 C 3 -6.84375 2.824219 -6.871094 1.792969 -3.246094 C 1.277344 -1.445312 0.691406 0.789062 0.402344 2.0625 C 0.273438 2.605469 0.316406 2.933594 0.527344 3.085938 C 0.609375 3.148438 0.710938 3.171875 0.832031 3.171875 C 1.257812 3.171875 1.914062 2.804688 2.691406 2.363281 C 3.582031 1.859375 4.59375 1.285156 5.28125 1.300781 C 5.347656 1.304688 5.410156 1.246094 5.410156 1.179688 C 5.417969 1.105469 5.355469 1.042969 5.289062 1.042969 Z M 5.289062 1.042969 "/></g></g></g><g fill="#607eaa" fill-opacity="1"><g transform="translate(61.594558, 36.14601)"><g><path d="M 2.796875 -1.488281 C 2.738281 -1.511719 2.65625 -1.488281 2.632812 -1.425781 C 2.121094 -0.386719 1.742188 -0.0585938 1.558594 -0.09375 C 1.488281 -0.105469 1.246094 -0.246094 1.183594 -1.417969 C 1.183594 -1.472656 1.144531 -1.519531 1.097656 -1.535156 C 1.042969 -1.546875 0.984375 -1.535156 0.957031 -1.488281 C 0.917969 -1.441406 0.878906 -1.386719 0.835938 -1.324219 C 0.667969 -1.097656 0.449219 -0.789062 0.179688 -0.503906 C 0.140625 -0.457031 0.105469 -0.429688 0.0859375 -0.414062 C 0.0390625 -0.648438 0.289062 -1.546875 0.683594 -1.828125 C 0.796875 -1.90625 0.949219 -1.96875 1.160156 -1.726562 C 1.207031 -1.675781 1.285156 -1.667969 1.339844 -1.714844 C 1.394531 -1.753906 1.398438 -1.839844 1.359375 -1.894531 C 1.105469 -2.1875 0.863281 -2.183594 0.703125 -2.128906 C 0.1875 -1.949219 -0.160156 -0.957031 -0.175781 -0.503906 C -0.179688 -0.316406 -0.128906 -0.195312 -0.0195312 -0.152344 C 0.148438 -0.0859375 0.316406 -0.269531 0.367188 -0.328125 C 0.597656 -0.574219 0.804688 -0.84375 0.949219 -1.050781 C 1.023438 -0.289062 1.207031 0.09375 1.507812 0.160156 C 1.535156 0.160156 1.558594 0.167969 1.585938 0.167969 C 2.042969 0.167969 2.53125 -0.628906 2.859375 -1.3125 C 2.890625 -1.378906 2.867188 -1.453125 2.796875 -1.488281 Z M 2.796875 -1.488281 "/></g></g></g><g fill="#607eaa" fill-opacity="1"><g transform="translate(64.085021, 36.14601)"><g/></g></g><g fill="#607eaa" fill-opacity="1"><g transform="translate(66.140322, 36.14601)"><g><path d="M 2.9375 -1.511719 C 2.871094 -1.546875 2.792969 -1.519531 2.765625 -1.453125 C 1.996094 0.167969 1.265625 0.996094 1.105469 0.972656 C 1.089844 0.964844 0.855469 0.738281 1.613281 -1.585938 C 1.632812 -1.648438 1.679688 -1.789062 1.574219 -1.859375 C 1.472656 -1.941406 1.359375 -1.867188 1.171875 -1.742188 C 0.972656 -1.613281 0.695312 -1.433594 0.480469 -1.460938 C 1.164062 -2.636719 1.097656 -2.898438 0.945312 -3 C 0.703125 -3.140625 0.355469 -2.730469 0.195312 -2.496094 C -0.132812 -1.988281 -0.128906 -1.527344 0.222656 -1.292969 C 0.574219 -1.042969 1.039062 -1.347656 1.3125 -1.527344 C 1.320312 -1.535156 1.320312 -1.535156 1.324219 -1.539062 C 1.066406 -0.714844 0.898438 -0.0664062 0.835938 0.382812 C 0.761719 0.878906 0.816406 1.136719 1.003906 1.210938 C 1.039062 1.21875 1.066406 1.226562 1.097656 1.226562 C 1.632812 1.226562 2.5625 -0.421875 3 -1.339844 C 3.027344 -1.40625 3 -1.488281 2.9375 -1.511719 Z M 0.234375 -1.976562 C 0.328125 -2.335938 0.644531 -2.671875 0.785156 -2.75 C 0.769531 -2.644531 0.695312 -2.34375 0.269531 -1.601562 C 0.222656 -1.675781 0.1875 -1.789062 0.234375 -1.976562 Z M 0.234375 -1.976562 "/></g></g></g><g fill="#607eaa" fill-opacity="1"><g transform="translate(68.811541, 36.14601)"><g><path d="M 2.261719 -1.492188 C 2.203125 -1.535156 2.121094 -1.519531 2.082031 -1.460938 C 1.582031 -0.757812 1.171875 -0.316406 0.769531 -0.0273438 C 0.570312 0.113281 0.375 0.140625 0.246094 0.046875 C 0.167969 -0.0117188 -0.0820312 -0.28125 0.207031 -1.21875 C 0.855469 -1.753906 1.210938 -2.261719 1.117188 -2.53125 C 1.085938 -2.609375 1.003906 -2.664062 0.917969 -2.664062 C 0.648438 -2.65625 0.242188 -2.195312 -0.0273438 -1.332031 C -0.355469 -0.269531 -0.0859375 0.121094 0.101562 0.253906 C 0.195312 0.328125 0.300781 0.363281 0.421875 0.363281 C 0.574219 0.363281 0.75 0.300781 0.917969 0.179688 C 1.347656 -0.128906 1.765625 -0.582031 2.289062 -1.3125 C 2.328125 -1.371094 2.316406 -1.453125 2.261719 -1.492188 Z M 0.863281 -2.382812 C 0.835938 -2.277344 0.722656 -2.0625 0.410156 -1.742188 C 0.582031 -2.128906 0.769531 -2.316406 0.863281 -2.382812 Z M 0.863281 -2.382812 "/></g></g></g><g fill="#607eaa" fill-opacity="1"><g transform="translate(70.759726, 36.14601)"><g><path d="M 1.359375 -1.765625 C 1.058594 -1.734375 0.816406 -1.699219 0.542969 -1.675781 C 0.570312 -1.789062 0.597656 -1.894531 0.621094 -2 C 0.628906 -2 0.628906 -2.007812 0.636719 -2.015625 C 1.320312 -3.101562 1.894531 -4.417969 1.675781 -4.761719 C 1.628906 -4.820312 1.558594 -4.847656 1.492188 -4.835938 C 1.113281 -4.773438 0.710938 -3.347656 0.589844 -2.914062 C 0.488281 -2.53125 0.382812 -2.109375 0.273438 -1.652344 C 0.09375 -1.632812 -0.105469 -1.621094 -0.347656 -1.601562 C -0.414062 -1.59375 -0.46875 -1.535156 -0.460938 -1.460938 C -0.460938 -1.394531 -0.402344 -1.347656 -0.335938 -1.347656 C -0.335938 -1.347656 -0.328125 -1.347656 -0.328125 -1.347656 C -0.121094 -1.359375 0.0546875 -1.371094 0.207031 -1.386719 C -0.0351562 -0.375 -0.289062 0.757812 -0.507812 1.8125 C -0.667969 2.578125 -0.796875 3.226562 -0.871094 3.703125 C -1.003906 4.492188 -0.992188 4.585938 -0.863281 4.625 C -0.851562 4.625 -0.832031 4.632812 -0.816406 4.632812 C -0.703125 4.632812 -0.644531 4.464844 -0.582031 4.296875 C -0.554688 4.230469 -0.597656 4.15625 -0.664062 4.132812 C -0.667969 4.132812 -0.675781 4.125 -0.683594 4.125 C -0.554688 3.242188 -0.0546875 0.804688 0.480469 -1.414062 C 0.796875 -1.441406 1.058594 -1.472656 1.394531 -1.511719 C 1.460938 -1.527344 1.511719 -1.585938 1.5 -1.660156 C 1.492188 -1.726562 1.425781 -1.78125 1.359375 -1.765625 Z M 1.453125 -4.480469 C 1.425781 -4.238281 1.277344 -3.703125 0.855469 -2.90625 C 1.113281 -3.84375 1.332031 -4.296875 1.453125 -4.480469 Z M 1.453125 -4.480469 "/></g></g></g><g fill="#607eaa" fill-opacity="1"><g transform="translate(72.279444, 36.14601)"><g><path d="M 2.421875 -1.453125 C 2.363281 -1.5 2.28125 -1.488281 2.242188 -1.433594 C 1.960938 -1.070312 1.5 -0.769531 1.144531 -0.835938 C 1.152344 -0.882812 1.160156 -0.929688 1.160156 -0.976562 C 1.207031 -1.734375 0.972656 -1.886719 0.832031 -1.914062 C 0.667969 -1.949219 0.503906 -1.828125 0.421875 -1.628906 C 0.386719 -1.640625 0.347656 -1.640625 0.316406 -1.613281 C 0.046875 -1.445312 -0.175781 -1.019531 -0.0546875 -0.554688 C 0.0273438 -0.28125 0.214844 -0.105469 0.460938 -0.105469 C 0.695312 -0.105469 0.945312 -0.28125 1.070312 -0.589844 C 1.539062 -0.488281 2.101562 -0.835938 2.445312 -1.273438 C 2.492188 -1.332031 2.476562 -1.414062 2.421875 -1.453125 Z M 0.46875 -0.363281 C 0.460938 -0.363281 0.460938 -0.363281 0.460938 -0.363281 C 0.292969 -0.367188 0.222656 -0.527344 0.199219 -0.621094 C 0.132812 -0.851562 0.1875 -1.164062 0.375 -1.339844 C 0.386719 -1.113281 0.515625 -0.863281 0.835938 -0.691406 C 0.742188 -0.476562 0.582031 -0.363281 0.46875 -0.363281 Z M 0.902344 -0.992188 C 0.898438 -0.976562 0.898438 -0.964844 0.898438 -0.949219 C 0.644531 -1.117188 0.601562 -1.332031 0.648438 -1.5 C 0.683594 -1.605469 0.75 -1.660156 0.785156 -1.660156 C 0.816406 -1.652344 0.929688 -1.527344 0.902344 -0.992188 Z M 0.902344 -0.992188 "/></g></g></g><g fill="#607eaa" fill-opacity="1"><g transform="translate(74.421777, 36.14601)"><g><path d="M 2.9375 -1.511719 C 2.871094 -1.546875 2.792969 -1.519531 2.765625 -1.453125 C 1.996094 0.167969 1.265625 0.996094 1.105469 0.972656 C 1.089844 0.964844 0.855469 0.738281 1.613281 -1.585938 C 1.632812 -1.648438 1.679688 -1.789062 1.574219 -1.859375 C 1.472656 -1.941406 1.359375 -1.867188 1.171875 -1.742188 C 0.972656 -1.613281 0.695312 -1.433594 0.480469 -1.460938 C 1.164062 -2.636719 1.097656 -2.898438 0.945312 -3 C 0.703125 -3.140625 0.355469 -2.730469 0.195312 -2.496094 C -0.132812 -1.988281 -0.128906 -1.527344 0.222656 -1.292969 C 0.574219 -1.042969 1.039062 -1.347656 1.3125 -1.527344 C 1.320312 -1.535156 1.320312 -1.535156 1.324219 -1.539062 C 1.066406 -0.714844 0.898438 -0.0664062 0.835938 0.382812 C 0.761719 0.878906 0.816406 1.136719 1.003906 1.210938 C 1.039062 1.21875 1.066406 1.226562 1.097656 1.226562 C 1.632812 1.226562 2.5625 -0.421875 3 -1.339844 C 3.027344 -1.40625 3 -1.488281 2.9375 -1.511719 Z M 0.234375 -1.976562 C 0.328125 -2.335938 0.644531 -2.671875 0.785156 -2.75 C 0.769531 -2.644531 0.695312 -2.34375 0.269531 -1.601562 C 0.222656 -1.675781 0.1875 -1.789062 0.234375 -1.976562 Z M 0.234375 -1.976562 "/></g></g></g><g fill="#607eaa" fill-opacity="1"><g transform="translate(77.092996, 36.14601)"><g><path d="M 3.777344 -1.492188 C 3.722656 -1.539062 3.636719 -1.535156 3.589844 -1.480469 C 3.054688 -0.851562 2.691406 -0.691406 2.53125 -0.75 C 2.390625 -0.804688 2.308594 -1.070312 2.316406 -1.492188 C 2.316406 -1.566406 2.324219 -1.746094 2.175781 -1.78125 C 2.007812 -1.820312 1.886719 -1.628906 1.535156 -0.882812 C 1.472656 -0.757812 1.417969 -0.644531 1.386719 -0.574219 C 1.347656 -0.503906 1.320312 -0.460938 1.300781 -0.441406 C 1.265625 -0.507812 1.21875 -0.683594 1.226562 -0.945312 C 1.226562 -1.078125 1.226562 -1.191406 1.230469 -1.285156 C 1.238281 -1.582031 1.246094 -1.6875 1.125 -1.734375 C 1.019531 -1.765625 0.945312 -1.667969 0.925781 -1.632812 C 0.628906 -1.230469 0.367188 -0.824219 0.09375 -0.328125 C 0.199219 -0.789062 0.394531 -1.453125 0.644531 -2.007812 C 0.667969 -2.074219 0.644531 -2.15625 0.574219 -2.183594 C 0.507812 -2.210938 0.433594 -2.183594 0.402344 -2.117188 C 0.214844 -1.679688 0.0273438 -1.125 -0.113281 -0.574219 C -0.335938 0.308594 -0.246094 0.347656 -0.167969 0.386719 C -0.148438 0.394531 -0.128906 0.402344 -0.105469 0.402344 C -0.0390625 0.402344 0.0195312 0.355469 0.0742188 0.253906 C 0.394531 -0.363281 0.664062 -0.816406 0.972656 -1.265625 C 0.972656 -1.171875 0.964844 -1.066406 0.964844 -0.945312 C 0.964844 -0.738281 0.992188 -0.242188 1.238281 -0.175781 C 1.441406 -0.128906 1.566406 -0.375 1.613281 -0.457031 C 1.652344 -0.527344 1.707031 -0.644531 1.765625 -0.769531 C 1.839844 -0.925781 1.960938 -1.179688 2.0625 -1.351562 C 2.074219 -0.882812 2.203125 -0.597656 2.445312 -0.507812 C 2.773438 -0.382812 3.21875 -0.65625 3.789062 -1.3125 C 3.835938 -1.367188 3.828125 -1.445312 3.777344 -1.492188 Z M 3.777344 -1.492188 "/></g></g></g><g fill="#607eaa" fill-opacity="1"><g transform="translate(80.580983, 36.14601)"><g><path d="M 2.796875 -1.488281 C 2.738281 -1.511719 2.65625 -1.488281 2.632812 -1.425781 C 2.121094 -0.386719 1.742188 -0.0585938 1.558594 -0.09375 C 1.488281 -0.105469 1.246094 -0.246094 1.183594 -1.417969 C 1.183594 -1.472656 1.144531 -1.519531 1.097656 -1.535156 C 1.042969 -1.546875 0.984375 -1.535156 0.957031 -1.488281 C 0.917969 -1.441406 0.878906 -1.386719 0.835938 -1.324219 C 0.667969 -1.097656 0.449219 -0.789062 0.179688 -0.503906 C 0.140625 -0.457031 0.105469 -0.429688 0.0859375 -0.414062 C 0.0390625 -0.648438 0.289062 -1.546875 0.683594 -1.828125 C 0.796875 -1.90625 0.949219 -1.96875 1.160156 -1.726562 C 1.207031 -1.675781 1.285156 -1.667969 1.339844 -1.714844 C 1.394531 -1.753906 1.398438 -1.839844 1.359375 -1.894531 C 1.105469 -2.1875 0.863281 -2.183594 0.703125 -2.128906 C 0.1875 -1.949219 -0.160156 -0.957031 -0.175781 -0.503906 C -0.179688 -0.316406 -0.128906 -0.195312 -0.0195312 -0.152344 C 0.148438 -0.0859375 0.316406 -0.269531 0.367188 -0.328125 C 0.597656 -0.574219 0.804688 -0.84375 0.949219 -1.050781 C 1.023438 -0.289062 1.207031 0.09375 1.507812 0.160156 C 1.535156 0.160156 1.558594 0.167969 1.585938 0.167969 C 2.042969 0.167969 2.53125 -0.628906 2.859375 -1.3125 C 2.890625 -1.378906 2.867188 -1.453125 2.796875 -1.488281 Z M 2.796875 -1.488281 "/></g></g></g><g fill="#607eaa" fill-opacity="1"><g transform="translate(83.071446, 36.14601)"><g/></g></g><g fill="#607eaa" fill-opacity="1"><g transform="translate(85.126746, 36.14601)"><g><path d="M 2.859375 -5.589844 C 2.8125 -5.628906 2.75 -5.644531 2.691406 -5.628906 C 2.402344 -5.535156 1.886719 -4.136719 1.394531 -1.835938 C 1.378906 -1.792969 1.359375 -1.761719 1.339844 -1.722656 C 1.304688 -1.980469 1.132812 -2.054688 1.070312 -2.074219 C 0.785156 -2.164062 0.328125 -1.902344 0.0117188 -1.230469 C -0.226562 -0.730469 -0.273438 -0.0742188 0.0273438 0.101562 C 0.175781 0.1875 0.429688 0.175781 0.796875 -0.363281 C 0.957031 -0.589844 1.097656 -0.808594 1.230469 -1.023438 C 1.160156 -0.644531 1.085938 -0.242188 1.019531 0.179688 C 0.890625 0.929688 0.796875 1.558594 0.742188 2.015625 C 0.636719 2.90625 0.691406 3.027344 0.824219 3.066406 C 0.835938 3.074219 0.855469 3.074219 0.871094 3.074219 C 0.992188 3.074219 1.070312 2.917969 1.113281 2.820312 C 1.144531 2.757812 1.117188 2.679688 1.050781 2.652344 C 1.019531 2.632812 0.976562 2.632812 0.945312 2.644531 C 0.957031 2.355469 1.023438 1.699219 1.273438 0.226562 C 1.394531 -0.507812 1.519531 -1.164062 1.640625 -1.742188 C 2.140625 -2.691406 2.398438 -3.496094 2.605469 -4.132812 C 2.632812 -4.210938 2.65625 -4.285156 2.679688 -4.351562 C 3.03125 -5.417969 2.898438 -5.542969 2.859375 -5.589844 Z M 0.582031 -0.507812 C 0.328125 -0.140625 0.1875 -0.105469 0.152344 -0.121094 C 0.0546875 -0.179688 0.0195312 -0.644531 0.246094 -1.125 C 0.476562 -1.605469 0.785156 -1.835938 0.949219 -1.835938 C 0.972656 -1.835938 0.984375 -1.835938 0.996094 -1.828125 C 1.105469 -1.800781 1.085938 -1.605469 1.078125 -1.554688 C 1.070312 -1.492188 1.105469 -1.433594 1.164062 -1.414062 C 0.996094 -1.125 0.804688 -0.824219 0.582031 -0.507812 Z M 2.4375 -4.433594 C 2.410156 -4.367188 2.382812 -4.292969 2.363281 -4.210938 C 2.242188 -3.851562 2.109375 -3.441406 1.929688 -2.980469 C 2.210938 -4.089844 2.464844 -4.789062 2.625 -5.136719 C 2.597656 -4.976562 2.539062 -4.746094 2.4375 -4.433594 Z M 2.4375 -4.433594 "/></g></g></g><g fill="#607eaa" fill-opacity="1"><g transform="translate(87.222218, 36.14601)"><g><path d="M 2.261719 -1.492188 C 2.203125 -1.535156 2.121094 -1.519531 2.082031 -1.460938 C 1.582031 -0.757812 1.171875 -0.316406 0.769531 -0.0273438 C 0.570312 0.113281 0.375 0.140625 0.246094 0.046875 C 0.167969 -0.0117188 -0.0820312 -0.28125 0.207031 -1.21875 C 0.855469 -1.753906 1.210938 -2.261719 1.117188 -2.53125 C 1.085938 -2.609375 1.003906 -2.664062 0.917969 -2.664062 C 0.648438 -2.65625 0.242188 -2.195312 -0.0273438 -1.332031 C -0.355469 -0.269531 -0.0859375 0.121094 0.101562 0.253906 C 0.195312 0.328125 0.300781 0.363281 0.421875 0.363281 C 0.574219 0.363281 0.75 0.300781 0.917969 0.179688 C 1.347656 -0.128906 1.765625 -0.582031 2.289062 -1.3125 C 2.328125 -1.371094 2.316406 -1.453125 2.261719 -1.492188 Z M 0.863281 -2.382812 C 0.835938 -2.277344 0.722656 -2.0625 0.410156 -1.742188 C 0.582031 -2.128906 0.769531 -2.316406 0.863281 -2.382812 Z M 0.863281 -2.382812 "/></g></g></g><g fill="#607eaa" fill-opacity="1"><g transform="translate(89.170403, 36.14601)"><g/></g></g><g fill="#607eaa" fill-opacity="1"><g transform="translate(91.225703, 36.14601)"><g><path d="M 5.652344 -3.949219 C 5.5625 -4.070312 5.175781 -4.144531 1.019531 -4.050781 C 1.152344 -4.59375 1.273438 -5.082031 1.378906 -5.476562 C 1.398438 -5.550781 1.359375 -5.617188 1.292969 -5.636719 C 1.226562 -5.65625 1.152344 -5.617188 1.132812 -5.550781 C 1.019531 -5.128906 0.890625 -4.621094 0.75 -4.042969 C 0.382812 -4.039062 -0.0195312 -4.03125 -0.457031 -4.015625 C -1.050781 -4.003906 -1.519531 -3.992188 -1.699219 -3.992188 C -1.773438 -3.992188 -1.835938 -3.929688 -1.835938 -3.863281 C -1.835938 -3.789062 -1.773438 -3.730469 -1.699219 -3.730469 C -1.511719 -3.734375 -1.042969 -3.742188 -0.449219 -3.761719 C -0.132812 -3.769531 0.253906 -3.777344 0.691406 -3.789062 C 0.402344 -2.570312 0.0742188 -1.113281 -0.222656 0.316406 C -0.433594 1.359375 -0.609375 2.261719 -0.722656 2.925781 C -0.785156 3.273438 -0.824219 3.546875 -0.84375 3.734375 C -0.871094 3.992188 -0.882812 4.136719 -0.757812 4.183594 C -0.738281 4.183594 -0.722656 4.191406 -0.703125 4.191406 C -0.589844 4.191406 -0.527344 4.03125 -0.476562 3.882812 C -0.449219 3.816406 -0.480469 3.742188 -0.550781 3.714844 C -0.5625 3.714844 -0.570312 3.710938 -0.582031 3.710938 C -0.515625 3.1875 -0.316406 2.015625 0.0742188 0.167969 C 0.363281 -1.230469 0.675781 -2.632812 0.957031 -3.796875 C 2.796875 -3.835938 5.1875 -3.871094 5.464844 -3.777344 C 5.511719 -3.734375 5.570312 -3.734375 5.625 -3.769531 C 5.675781 -3.808594 5.691406 -3.890625 5.652344 -3.949219 Z M 5.652344 -3.949219 "/></g></g></g><g fill="#607eaa" fill-opacity="1"><g transform="translate(92.116111, 36.14601)"><g><path d="M 2.664062 -1.445312 C 2.605469 -1.480469 2.523438 -1.460938 2.492188 -1.398438 C 1.855469 -0.382812 1.320312 0.0742188 1.207031 0.0351562 C 1.207031 0.0351562 1.070312 -0.0390625 1.199219 -0.808594 C 1.246094 -1.070312 1.265625 -1.21875 1.136719 -1.273438 C 1.019531 -1.320312 0.945312 -1.21875 0.804688 -1.019531 C 0.691406 -0.855469 0.535156 -0.644531 0.367188 -0.496094 C 0.347656 -0.480469 0.273438 -0.414062 0.242188 -0.441406 C 0.140625 -0.523438 0.121094 -0.957031 0.355469 -1.359375 C 0.394531 -1.417969 0.367188 -1.5 0.308594 -1.539062 C 0.246094 -1.574219 0.167969 -1.554688 0.132812 -1.492188 C -0.132812 -1.023438 -0.160156 -0.441406 0.0742188 -0.246094 C 0.132812 -0.195312 0.300781 -0.101562 0.535156 -0.292969 C 0.691406 -0.429688 0.824219 -0.601562 0.929688 -0.75 C 0.835938 -0.128906 0.890625 0.1875 1.113281 0.273438 C 1.144531 0.289062 1.179688 0.289062 1.207031 0.289062 C 1.714844 0.289062 2.539062 -0.996094 2.703125 -1.265625 C 2.746094 -1.324219 2.726562 -1.40625 2.664062 -1.445312 Z M 2.664062 -1.445312 "/></g></g></g><g fill="#607eaa" fill-opacity="1"><g transform="translate(94.512846, 36.14601)"><g/></g></g><g fill="#607eaa" fill-opacity="1"><g transform="translate(96.568146, 36.14601)"><g><path d="M 3.359375 -1.460938 C 3.308594 -1.507812 3.226562 -1.5 3.179688 -1.445312 C 2.90625 -1.125 2.539062 -0.964844 2.234375 -1.042969 C 1.988281 -1.113281 1.808594 -1.351562 1.742188 -1.714844 C 1.726562 -1.773438 1.667969 -1.8125 1.605469 -1.8125 C 1.546875 -1.8125 1.492188 -1.765625 1.488281 -1.707031 C 1.347656 -0.703125 0.550781 0.496094 0.167969 0.621094 C 0.121094 0.636719 0.105469 0.628906 0.105469 0.621094 C 0.0742188 0.597656 -0.152344 0.28125 0.554688 -1.828125 C 0.574219 -1.894531 0.542969 -1.96875 0.476562 -1.988281 C 0.410156 -2.015625 0.335938 -1.976562 0.308594 -1.90625 C -0.46875 0.414062 -0.175781 0.710938 -0.0820312 0.804688 C -0.0390625 0.835938 0.0273438 0.890625 0.128906 0.890625 C 0.160156 0.890625 0.199219 0.882812 0.246094 0.863281 C 0.496094 0.785156 0.832031 0.429688 1.132812 -0.0742188 C 1.359375 -0.449219 1.535156 -0.851562 1.640625 -1.226562 C 1.765625 -1.003906 1.949219 -0.855469 2.167969 -0.796875 C 2.5625 -0.695312 3.03125 -0.882812 3.375 -1.277344 C 3.421875 -1.332031 3.414062 -1.414062 3.359375 -1.460938 Z M 3.359375 -1.460938 "/></g></g></g><g fill="#607eaa" fill-opacity="1"><g transform="translate(99.728086, 36.14601)"><g><path d="M 1.953125 -1.519531 C 1.894531 -1.558594 1.820312 -1.539062 1.78125 -1.480469 C 1.332031 -0.757812 0.582031 -0.0742188 0.355469 -0.167969 C 0.328125 -0.179688 0.113281 -0.308594 0.410156 -1.441406 C 0.421875 -1.511719 0.382812 -1.582031 0.316406 -1.601562 C 0.242188 -1.613281 0.175781 -1.574219 0.152344 -1.507812 C -0.0859375 -0.5625 -0.0546875 -0.0585938 0.246094 0.0664062 C 0.292969 0.0859375 0.339844 0.09375 0.386719 0.09375 C 0.890625 0.09375 1.660156 -0.804688 2 -1.347656 C 2.035156 -1.40625 2.015625 -1.488281 1.953125 -1.519531 Z M 0.375 -2.0625 C 0.714844 -2.042969 0.710938 -2.46875 0.433594 -2.375 C 0.292969 -2.335938 0.113281 -2.074219 0.375 -2.0625 Z M 0.375 -2.0625 "/></g></g></g><g fill="#607eaa" fill-opacity="1"><g transform="translate(101.421869, 36.14601)"><g><path d="M 2.859375 -5.589844 C 2.8125 -5.628906 2.75 -5.644531 2.691406 -5.628906 C 2.402344 -5.535156 1.886719 -4.136719 1.394531 -1.835938 C 1.378906 -1.792969 1.359375 -1.761719 1.339844 -1.722656 C 1.304688 -1.980469 1.132812 -2.054688 1.070312 -2.074219 C 0.785156 -2.164062 0.328125 -1.902344 0.0117188 -1.230469 C -0.226562 -0.730469 -0.273438 -0.0742188 0.0273438 0.101562 C 0.175781 0.1875 0.429688 0.175781 0.796875 -0.363281 C 0.957031 -0.589844 1.097656 -0.808594 1.230469 -1.023438 C 1.160156 -0.644531 1.085938 -0.242188 1.019531 0.179688 C 0.890625 0.929688 0.796875 1.558594 0.742188 2.015625 C 0.636719 2.90625 0.691406 3.027344 0.824219 3.066406 C 0.835938 3.074219 0.855469 3.074219 0.871094 3.074219 C 0.992188 3.074219 1.070312 2.917969 1.113281 2.820312 C 1.144531 2.757812 1.117188 2.679688 1.050781 2.652344 C 1.019531 2.632812 0.976562 2.632812 0.945312 2.644531 C 0.957031 2.355469 1.023438 1.699219 1.273438 0.226562 C 1.394531 -0.507812 1.519531 -1.164062 1.640625 -1.742188 C 2.140625 -2.691406 2.398438 -3.496094 2.605469 -4.132812 C 2.632812 -4.210938 2.65625 -4.285156 2.679688 -4.351562 C 3.03125 -5.417969 2.898438 -5.542969 2.859375 -5.589844 Z M 0.582031 -0.507812 C 0.328125 -0.140625 0.1875 -0.105469 0.152344 -0.121094 C 0.0546875 -0.179688 0.0195312 -0.644531 0.246094 -1.125 C 0.476562 -1.605469 0.785156 -1.835938 0.949219 -1.835938 C 0.972656 -1.835938 0.984375 -1.835938 0.996094 -1.828125 C 1.105469 -1.800781 1.085938 -1.605469 1.078125 -1.554688 C 1.070312 -1.492188 1.105469 -1.433594 1.164062 -1.414062 C 0.996094 -1.125 0.804688 -0.824219 0.582031 -0.507812 Z M 2.4375 -4.433594 C 2.410156 -4.367188 2.382812 -4.292969 2.363281 -4.210938 C 2.242188 -3.851562 2.109375 -3.441406 1.929688 -2.980469 C 2.210938 -4.089844 2.464844 -4.789062 2.625 -5.136719 C 2.597656 -4.976562 2.539062 -4.746094 2.4375 -4.433594 Z M 2.4375 -4.433594 "/></g></g></g><g fill="#607eaa" fill-opacity="1"><g transform="translate(103.51734, 36.14601)"><g><path d="M 2.796875 -1.488281 C 2.738281 -1.511719 2.65625 -1.488281 2.632812 -1.425781 C 2.121094 -0.386719 1.742188 -0.0585938 1.558594 -0.09375 C 1.488281 -0.105469 1.246094 -0.246094 1.183594 -1.417969 C 1.183594 -1.472656 1.144531 -1.519531 1.097656 -1.535156 C 1.042969 -1.546875 0.984375 -1.535156 0.957031 -1.488281 C 0.917969 -1.441406 0.878906 -1.386719 0.835938 -1.324219 C 0.667969 -1.097656 0.449219 -0.789062 0.179688 -0.503906 C 0.140625 -0.457031 0.105469 -0.429688 0.0859375 -0.414062 C 0.0390625 -0.648438 0.289062 -1.546875 0.683594 -1.828125 C 0.796875 -1.90625 0.949219 -1.96875 1.160156 -1.726562 C 1.207031 -1.675781 1.285156 -1.667969 1.339844 -1.714844 C 1.394531 -1.753906 1.398438 -1.839844 1.359375 -1.894531 C 1.105469 -2.1875 0.863281 -2.183594 0.703125 -2.128906 C 0.1875 -1.949219 -0.160156 -0.957031 -0.175781 -0.503906 C -0.179688 -0.316406 -0.128906 -0.195312 -0.0195312 -0.152344 C 0.148438 -0.0859375 0.316406 -0.269531 0.367188 -0.328125 C 0.597656 -0.574219 0.804688 -0.84375 0.949219 -1.050781 C 1.023438 -0.289062 1.207031 0.09375 1.507812 0.160156 C 1.535156 0.160156 1.558594 0.167969 1.585938 0.167969 C 2.042969 0.167969 2.53125 -0.628906 2.859375 -1.3125 C 2.890625 -1.378906 2.867188 -1.453125 2.796875 -1.488281 Z M 2.796875 -1.488281 "/></g></g></g><g fill="#607eaa" fill-opacity="1"><g transform="translate(106.003286, 36.14601)"><g/></g></g><g fill="#1c3879" fill-opacity="1"><g transform="translate(31.503912, 28.150085)"><g><path d="M 8.859375 0 L 6.59375 -3.265625 L 4.09375 -3.265625 L 4.09375 0 L 1.390625 0 L 1.390625 -11.71875 L 6.453125 -11.71875 C 7.492188 -11.71875 8.394531 -11.539062 9.15625 -11.1875 C 9.925781 -10.84375 10.515625 -10.351562 10.921875 -9.71875 C 11.335938 -9.082031 11.546875 -8.332031 11.546875 -7.46875 C 11.546875 -6.59375 11.335938 -5.835938 10.921875 -5.203125 C 10.503906 -4.578125 9.910156 -4.097656 9.140625 -3.765625 L 11.765625 0 Z M 8.796875 -7.46875 C 8.796875 -8.125 8.582031 -8.625 8.15625 -8.96875 C 7.738281 -9.320312 7.125 -9.5 6.3125 -9.5 L 4.09375 -9.5 L 4.09375 -5.421875 L 6.3125 -5.421875 C 7.125 -5.421875 7.738281 -5.597656 8.15625 -5.953125 C 8.582031 -6.316406 8.796875 -6.820312 8.796875 -7.46875 Z M 8.796875 -7.46875 "/></g></g></g><g fill="#1c3879" fill-opacity="1"><g transform="translate(43.807322, 28.150085)"><g><path d="M 10.453125 -2.171875 L 10.453125 0 L 1.390625 0 L 1.390625 -11.71875 L 10.234375 -11.71875 L 10.234375 -9.53125 L 4.078125 -9.53125 L 4.078125 -7 L 9.515625 -7 L 9.515625 -4.890625 L 4.078125 -4.890625 L 4.078125 -2.171875 Z M 10.453125 -2.171875 "/></g></g></g><g fill="#1c3879" fill-opacity="1"><g transform="translate(55.039414, 28.150085)"><g><path d="M 4.09375 -9.53125 L 4.09375 -6.4375 L 9.515625 -6.4375 L 9.515625 -4.265625 L 4.09375 -4.265625 L 4.09375 0 L 1.390625 0 L 1.390625 -11.71875 L 10.234375 -11.71875 L 10.234375 -9.53125 Z M 4.09375 -9.53125 "/></g></g></g><g fill="#1c3879" fill-opacity="1"><g transform="translate(65.735848, 28.150085)"><g><path d="M 7.0625 0.203125 C 5.84375 0.203125 4.742188 -0.0546875 3.765625 -0.578125 C 2.796875 -1.109375 2.035156 -1.832031 1.484375 -2.75 C 0.929688 -3.675781 0.65625 -4.710938 0.65625 -5.859375 C 0.65625 -7.003906 0.929688 -8.035156 1.484375 -8.953125 C 2.035156 -9.878906 2.796875 -10.601562 3.765625 -11.125 C 4.742188 -11.65625 5.84375 -11.921875 7.0625 -11.921875 C 8.28125 -11.921875 9.375 -11.65625 10.34375 -11.125 C 11.3125 -10.601562 12.070312 -9.878906 12.625 -8.953125 C 13.1875 -8.035156 13.46875 -7.003906 13.46875 -5.859375 C 13.46875 -4.710938 13.1875 -3.675781 12.625 -2.75 C 12.070312 -1.832031 11.3125 -1.109375 10.34375 -0.578125 C 9.375 -0.0546875 8.28125 0.203125 7.0625 0.203125 Z M 7.0625 -2.109375 C 7.75 -2.109375 8.367188 -2.265625 8.921875 -2.578125 C 9.484375 -2.898438 9.925781 -3.34375 10.25 -3.90625 C 10.570312 -4.476562 10.734375 -5.128906 10.734375 -5.859375 C 10.734375 -6.578125 10.570312 -7.222656 10.25 -7.796875 C 9.925781 -8.367188 9.484375 -8.8125 8.921875 -9.125 C 8.367188 -9.445312 7.75 -9.609375 7.0625 -9.609375 C 6.375 -9.609375 5.75 -9.445312 5.1875 -9.125 C 4.625 -8.8125 4.179688 -8.367188 3.859375 -7.796875 C 3.546875 -7.222656 3.390625 -6.578125 3.390625 -5.859375 C 3.390625 -5.128906 3.546875 -4.476562 3.859375 -3.90625 C 4.179688 -3.34375 4.625 -2.898438 5.1875 -2.578125 C 5.75 -2.265625 6.375 -2.109375 7.0625 -2.109375 Z M 7.0625 -2.109375 "/></g></g></g><g fill="#1c3879" fill-opacity="1"><g transform="translate(79.863846, 28.150085)"><g><path d="M 8.859375 0 L 6.59375 -3.265625 L 4.09375 -3.265625 L 4.09375 0 L 1.390625 0 L 1.390625 -11.71875 L 6.453125 -11.71875 C 7.492188 -11.71875 8.394531 -11.539062 9.15625 -11.1875 C 9.925781 -10.84375 10.515625 -10.351562 10.921875 -9.71875 C 11.335938 -9.082031 11.546875 -8.332031 11.546875 -7.46875 C 11.546875 -6.59375 11.335938 -5.835938 10.921875 -5.203125 C 10.503906 -4.578125 9.910156 -4.097656 9.140625 -3.765625 L 11.765625 0 Z M 8.796875 -7.46875 C 8.796875 -8.125 8.582031 -8.625 8.15625 -8.96875 C 7.738281 -9.320312 7.125 -9.5 6.3125 -9.5 L 4.09375 -9.5 L 4.09375 -5.421875 L 6.3125 -5.421875 C 7.125 -5.421875 7.738281 -5.597656 8.15625 -5.953125 C 8.582031 -6.316406 8.796875 -6.820312 8.796875 -7.46875 Z M 8.796875 -7.46875 "/></g></g></g><g fill="#1c3879" fill-opacity="1"><g transform="translate(92.163867, 28.150085)"><g/></g></g><path stroke-linecap="butt" transform="matrix(0.313894, 0, 0, 0.313894, 92.729799, 10.885933)" fill="none" stroke-linejoin="miter" d="M 4.444821 17.673695 L 13.093749 17.673695 L 13.093749 47.951164 L 31.797833 47.951164 L 31.797833 54.994752 L 4.444821 54.994752 Z M 36.651188 17.673695 L 45.300115 17.673695 L 45.300115 54.994752 L 36.651188 54.994752 Z M 62.784638 24.592837 L 62.784638 34.461326 L 80.070049 34.461326 L 80.070049 41.405357 L 62.784638 41.405357 L 62.784638 54.994752 L 54.148155 54.994752 L 54.148155 17.673695 L 82.359837 17.673695 L 82.359837 24.592837 Z M 117.129771 48.075609 L 117.129771 54.994752 L 88.221197 54.994752 L 88.221197 17.673695 L 116.432879 17.673695 L 116.432879 24.592837 L 96.795458 24.592837 L 96.795458 32.706652 L 114.143091 32.706652 L 114.143091 39.426682 L 96.795458 39.426682 L 96.795458 48.075609 Z M 117.129771 48.075609 " stroke="#1c3879" stroke-width="1.999999" stroke-opacity="1" stroke-miterlimit="4"/><g clip-path="url(#cd2c350265)"><g clip-path="url(#6cdd50fa47)"><g clip-path="url(#b8f3a1fe91)"><path fill="#607eaa" d="M 0 12.503906 L 17.71875 2.480469 L 19.566406 5.742188 L 1.847656 15.769531 Z M 0 12.503906 " fill-opacity="1" fill-rule="nonzero"/></g></g></g><g clip-path="url(#1af0bbf05f)"><g clip-path="url(#7177ef81ac)"><g clip-path="url(#2232728d36)"><path fill="#607eaa" d="M 17.699219 2.425781 L 31.5625 10.554688 L 29.667969 13.789062 L 15.800781 5.660156 Z M 17.699219 2.425781 " fill-opacity="1" fill-rule="nonzero"/></g></g></g><g clip-path="url(#7790526a85)"><path fill="#607eaa" d="M -0.00390625 32.390625 L -0.00390625 12.570312 L 3.746094 12.570312 L 3.746094 32.390625 Z M -0.00390625 32.390625 " fill-opacity="1" fill-rule="nonzero"/></g><g clip-path="url(#47b6c9bc11)"><g clip-path="url(#d6fa5ca735)"><g clip-path="url(#33d87cf339)"><path fill="#607eaa" d="M 1.890625 29.21875 L 19.222656 39.378906 L 17.324219 42.617188 L -0.0078125 32.457031 Z M 1.890625 29.21875 " fill-opacity="1" fill-rule="nonzero"/></g></g></g><g clip-path="url(#ffe2eeecee)"><g clip-path="url(#e67e363c77)"><g clip-path="url(#cd9cbb3c91)"><path fill="#607eaa" d="M 15.5625 39.324219 L 29.550781 31.40625 L 31.394531 34.671875 L 17.40625 42.585938 Z M 15.5625 39.324219 " fill-opacity="1" fill-rule="nonzero"/></g></g></g><g clip-path="url(#d4364e4c7a)"><g clip-path="url(#5913f616cc)"><g clip-path="url(#f62e79bea4)"><path fill="#607eaa" d="M 5.9375 15.777344 L 17.828125 9.050781 L 19.671875 12.3125 L 7.785156 19.039062 Z M 5.9375 15.777344 " fill-opacity="1" fill-rule="nonzero"/></g></g></g><g clip-path="url(#f8e781a17b)"><g clip-path="url(#19573ef615)"><g clip-path="url(#3dfaa14888)"><path fill="#607eaa" d="M 27.484375 18.78125 L 15.816406 12.207031 L 17.65625 8.941406 L 29.324219 15.511719 Z M 27.484375 18.78125 " fill-opacity="1" fill-rule="nonzero"/></g></g></g><g clip-path="url(#74d3c115b4)"><path fill="#607eaa" d="M 5.933594 29.277344 L 5.933594 15.882812 L 9.683594 15.882812 L 9.683594 29.277344 Z M 5.933594 29.277344 " fill-opacity="1" fill-rule="nonzero"/></g><g clip-path="url(#2c34488d4c)"><path fill="#607eaa" d="M 25.585938 28.976562 L 25.585938 15.582031 L 29.335938 15.582031 L 29.335938 28.976562 Z M 25.585938 28.976562 " fill-opacity="1" fill-rule="nonzero"/></g><g clip-path="url(#33533ef22b)"><path fill="#607eaa" d="M 5.929688 11.210938 L 5.929688 2.371094 L 9.679688 2.371094 L 9.679688 11.210938 Z M 5.929688 11.210938 " fill-opacity="1" fill-rule="nonzero"/></g><g clip-path="url(#60c3e9481c)"><g clip-path="url(#f5f1dede85)"><path fill="#607eaa" d="M 9.667969 27.054688 L 9.667969 31.511719 L 5.902344 31.511719 L 5.902344 27.054688 Z M 9.667969 27.054688 " fill-opacity="1" fill-rule="nonzero"/></g></g><g clip-path="url(#a50463a5c3)"><g clip-path="url(#8e7b562be8)"><path fill="#607eaa" d="M 25.578125 31.207031 L 25.578125 26.746094 L 29.339844 26.746094 L 29.339844 31.207031 Z M 25.578125 31.207031 " fill-opacity="1" fill-rule="nonzero"/></g></g><g clip-path="url(#e0d2ca0392)"><g clip-path="url(#14bbcc7705)"><path fill="#607eaa" d="M 31.488281 10.523438 L 31.488281 14.878906 L 27.8125 14.878906 L 27.8125 10.523438 Z M 31.488281 10.523438 " fill-opacity="1" fill-rule="nonzero"/></g></g><g clip-path="url(#6eed3d1b2b)"><g clip-path="url(#3ebd974871)"><path fill="#607eaa" d="M 31.488281 30.21875 L 31.488281 34.578125 L 27.8125 34.578125 L 27.8125 30.21875 Z M 31.488281 30.21875 " fill-opacity="1" fill-rule="nonzero"/></g></g></svg>