<svg xmlns="http://www.w3.org/2000/svg" xmlns:xlink="http://www.w3.org/1999/xlink" width="180" zoomAndPan="magnify" viewBox="0 0 135 44.999999" height="60" preserveAspectRatio="xMidYMid meet" version="1.0"><defs><g/><clipPath id="4cd962fde3"><path d="M 0 2 L 20 2 L 20 16 L 0 16 Z M 0 2 " clip-rule="nonzero"/></clipPath><clipPath id="c50c23d73a"><path d="M 0.00390625 12.515625 L 17.9375 2.363281 L 19.785156 5.625 L 1.847656 15.777344 Z M 0.00390625 12.515625 " clip-rule="nonzero"/></clipPath><clipPath id="585b5b46e1"><path d="M 0.00390625 12.515625 L 17.8125 2.4375 L 19.652344 5.691406 L 1.84375 15.765625 Z M 0.00390625 12.515625 " clip-rule="nonzero"/></clipPath><clipPath id="8c8dbcb021"><path d="M 15 2 L 32 2 L 32 14 L 15 14 Z M 15 2 " clip-rule="nonzero"/></clipPath><clipPath id="3a80144d77"><path d="M 17.683594 2.441406 L 31.535156 10.5625 L 29.640625 13.792969 L 15.789062 5.671875 Z M 17.683594 2.441406 " clip-rule="nonzero"/></clipPath><clipPath id="44d2c8a265"><path d="M 17.683594 2.441406 L 31.46875 10.523438 L 29.578125 13.746094 L 15.792969 5.664062 Z M 17.683594 2.441406 " clip-rule="nonzero"/></clipPath><clipPath id="0fc645c048"><path d="M 0.00390625 12.558594 L 3.738281 12.558594 L 3.738281 32.382812 L 0.00390625 32.382812 Z M 0.00390625 12.558594 " clip-rule="nonzero"/></clipPath><clipPath id="27de2eba27"><path d="M 0 29 L 20 29 L 20 43 L 0 43 Z M 0 29 " clip-rule="nonzero"/></clipPath><clipPath id="db5d574290"><path d="M 1.886719 29.210938 L 19.203125 39.363281 L 17.308594 42.597656 L -0.0078125 32.445312 Z M 1.886719 29.210938 " clip-rule="nonzero"/></clipPath><clipPath id="c95041e5c1"><path d="M 1.886719 29.210938 L 19.160156 39.339844 L 17.269531 42.5625 L -0.00390625 32.4375 Z M 1.886719 29.210938 " clip-rule="nonzero"/></clipPath><clipPath id="653faa9049"><path d="M 15 31 L 32 31 L 32 43 L 15 43 Z M 15 31 " clip-rule="nonzero"/></clipPath><clipPath id="bbe8bfe850"><path d="M 15.550781 39.304688 L 29.757812 31.265625 L 31.605469 34.527344 L 17.394531 42.566406 Z M 15.550781 39.304688 " clip-rule="nonzero"/></clipPath><clipPath id="139d627d27"><path d="M 15.550781 39.304688 L 29.632812 31.335938 L 31.476562 34.589844 L 17.390625 42.558594 Z M 15.550781 39.304688 " clip-rule="nonzero"/></clipPath><clipPath id="0cd6b995f8"><path d="M 5 9 L 20 9 L 20 20 L 5 20 Z M 5 9 " clip-rule="nonzero"/></clipPath><clipPath id="8f56104ba8"><path d="M 5.933594 15.78125 L 17.8125 9.058594 L 19.660156 12.320312 L 7.777344 19.042969 Z M 5.933594 15.78125 " clip-rule="nonzero"/></clipPath><clipPath id="e0b68e6073"><path d="M 5.933594 15.78125 L 17.742188 9.101562 L 19.582031 12.351562 L 7.773438 19.035156 Z M 5.933594 15.78125 " clip-rule="nonzero"/></clipPath><clipPath id="480143e78e"><path d="M 15 8 L 30 8 L 30 19 L 15 19 Z M 15 8 " clip-rule="nonzero"/></clipPath><clipPath id="764b2c3172"><path d="M 27.464844 18.773438 L 15.804688 12.207031 L 17.644531 8.941406 L 29.304688 15.511719 Z M 27.464844 18.773438 " clip-rule="nonzero"/></clipPath><clipPath id="dfcfb2523c"><path d="M 27.464844 18.773438 L 15.863281 12.242188 L 17.699219 8.984375 L 29.296875 15.519531 Z M 27.464844 18.773438 " clip-rule="nonzero"/></clipPath><clipPath id="b4eac6211a"><path d="M 5.933594 15.757812 L 9.671875 15.757812 L 9.671875 29.265625 L 5.933594 29.265625 Z M 5.933594 15.757812 " clip-rule="nonzero"/></clipPath><clipPath id="aa0293477e"><path d="M 25.566406 15.644531 L 29.304688 15.644531 L 29.304688 28.96875 L 25.566406 28.96875 Z M 25.566406 15.644531 " clip-rule="nonzero"/></clipPath><clipPath id="ed17bb959c"><path d="M 5.929688 2.429688 L 9.664062 2.429688 L 9.664062 11.214844 L 5.929688 11.214844 Z M 5.929688 2.429688 " clip-rule="nonzero"/></clipPath><clipPath id="9244cf24de"><path d="M 5.898438 27.042969 L 9.65625 27.042969 L 9.65625 31.5 L 5.898438 31.5 Z M 5.898438 27.042969 " clip-rule="nonzero"/></clipPath><clipPath id="a9f46b61eb"><path d="M 5.917969 29.269531 L 9.65625 31.5 L 9.65625 27.042969 L 5.917969 29.269531 " clip-rule="nonzero"/></clipPath><clipPath id="27cf4589a5"><path d="M 25.5625 26.742188 L 29.324219 26.742188 L 29.324219 31.199219 L 25.5625 31.199219 Z M 25.5625 26.742188 " clip-rule="nonzero"/></clipPath><clipPath id="c95f0a37b2"><path d="M 29.300781 28.96875 L 25.5625 26.742188 L 25.5625 31.199219 L 29.300781 28.96875 " clip-rule="nonzero"/></clipPath><clipPath id="9558e51548"><path d="M 27.792969 10.53125 L 31.464844 10.53125 L 31.464844 14.886719 L 27.792969 14.886719 Z M 27.792969 10.53125 " clip-rule="nonzero"/></clipPath><clipPath id="a87b806808"><path d="M 27.8125 12.707031 L 31.464844 14.886719 L 31.464844 10.53125 L 27.8125 12.707031 " clip-rule="nonzero"/></clipPath><clipPath id="cb0a4e35ae"><path d="M 27.792969 30.210938 L 31.464844 30.210938 L 31.464844 34.566406 L 27.792969 34.566406 Z M 27.792969 30.210938 " clip-rule="nonzero"/></clipPath><clipPath id="2be7d218c6"><path d="M 27.8125 32.390625 L 31.464844 34.566406 L 31.464844 30.210938 L 27.8125 32.390625 " clip-rule="nonzero"/></clipPath></defs><g fill="#607eaa" fill-opacity="1"><g transform="translate(57.008827, 36.134855)"><g><path d="M 5.285156 1.042969 C 4.523438 1.03125 3.480469 1.617188 2.5625 2.140625 C 1.800781 2.570312 0.929688 3.0625 0.683594 2.875 C 0.617188 2.828125 0.527344 2.667969 0.648438 2.121094 C 0.921875 0.910156 1.484375 -1.238281 1.980469 -2.984375 C 2.582031 -5.097656 2.898438 -5.96875 3.050781 -6.320312 C 3.050781 -6.269531 3.042969 -6.195312 3.039062 -6.109375 C 3.03125 -6.035156 3.085938 -5.972656 3.152344 -5.96875 C 3.222656 -5.960938 3.285156 -6.015625 3.292969 -6.085938 C 3.332031 -6.5625 3.324219 -6.785156 3.152344 -6.808594 C 2.996094 -6.835938 2.824219 -6.863281 1.792969 -3.246094 C 1.277344 -1.445312 0.6875 0.789062 0.402344 2.058594 C 0.273438 2.601562 0.3125 2.929688 0.527344 3.085938 C 0.609375 3.144531 0.710938 3.171875 0.828125 3.171875 C 1.257812 3.171875 1.914062 2.804688 2.6875 2.363281 C 3.578125 1.859375 4.589844 1.285156 5.277344 1.296875 C 5.34375 1.304688 5.40625 1.246094 5.40625 1.175781 C 5.414062 1.105469 5.351562 1.042969 5.285156 1.042969 Z M 5.285156 1.042969 "/></g></g></g><g fill="#607eaa" fill-opacity="1"><g transform="translate(61.544182, 36.134855)"><g><path d="M 2.796875 -1.484375 C 2.734375 -1.511719 2.65625 -1.484375 2.628906 -1.425781 C 2.121094 -0.386719 1.738281 -0.0585938 1.558594 -0.09375 C 1.484375 -0.105469 1.246094 -0.246094 1.183594 -1.417969 C 1.183594 -1.472656 1.144531 -1.519531 1.097656 -1.53125 C 1.042969 -1.546875 0.984375 -1.53125 0.957031 -1.484375 C 0.917969 -1.4375 0.875 -1.386719 0.835938 -1.324219 C 0.667969 -1.097656 0.449219 -0.789062 0.179688 -0.5 C 0.140625 -0.453125 0.105469 -0.429688 0.0859375 -0.414062 C 0.0390625 -0.648438 0.289062 -1.546875 0.683594 -1.828125 C 0.796875 -1.90625 0.949219 -1.96875 1.15625 -1.726562 C 1.203125 -1.671875 1.285156 -1.664062 1.339844 -1.710938 C 1.390625 -1.753906 1.398438 -1.839844 1.359375 -1.894531 C 1.105469 -2.1875 0.863281 -2.179688 0.703125 -2.128906 C 0.1875 -1.945312 -0.160156 -0.957031 -0.175781 -0.5 C -0.179688 -0.3125 -0.128906 -0.195312 -0.0195312 -0.152344 C 0.148438 -0.0859375 0.3125 -0.269531 0.367188 -0.328125 C 0.59375 -0.574219 0.804688 -0.84375 0.949219 -1.050781 C 1.023438 -0.289062 1.203125 0.09375 1.503906 0.160156 C 1.53125 0.160156 1.558594 0.167969 1.585938 0.167969 C 2.039062 0.167969 2.527344 -0.628906 2.855469 -1.3125 C 2.890625 -1.378906 2.863281 -1.453125 2.796875 -1.484375 Z M 2.796875 -1.484375 "/></g></g></g><g fill="#607eaa" fill-opacity="1"><g transform="translate(64.032608, 36.134855)"><g/></g></g><g fill="#607eaa" fill-opacity="1"><g transform="translate(66.086228, 36.134855)"><g><path d="M 2.9375 -1.511719 C 2.871094 -1.546875 2.789062 -1.519531 2.761719 -1.453125 C 1.992188 0.167969 1.265625 0.996094 1.105469 0.96875 C 1.089844 0.964844 0.855469 0.734375 1.613281 -1.585938 C 1.632812 -1.644531 1.679688 -1.785156 1.570312 -1.859375 C 1.472656 -1.941406 1.359375 -1.867188 1.171875 -1.738281 C 0.96875 -1.613281 0.695312 -1.429688 0.480469 -1.457031 C 1.164062 -2.636719 1.097656 -2.898438 0.941406 -2.996094 C 0.703125 -3.136719 0.355469 -2.730469 0.195312 -2.496094 C -0.132812 -1.988281 -0.128906 -1.523438 0.222656 -1.292969 C 0.574219 -1.042969 1.035156 -1.34375 1.3125 -1.523438 C 1.316406 -1.53125 1.316406 -1.53125 1.324219 -1.539062 C 1.0625 -0.714844 0.894531 -0.0664062 0.835938 0.382812 C 0.761719 0.875 0.816406 1.136719 1.003906 1.210938 C 1.035156 1.21875 1.0625 1.222656 1.097656 1.222656 C 1.632812 1.222656 2.5625 -0.421875 2.996094 -1.339844 C 3.023438 -1.40625 2.996094 -1.484375 2.9375 -1.511719 Z M 0.234375 -1.972656 C 0.328125 -2.335938 0.640625 -2.667969 0.78125 -2.75 C 0.769531 -2.640625 0.695312 -2.339844 0.269531 -1.597656 C 0.222656 -1.671875 0.1875 -1.785156 0.234375 -1.972656 Z M 0.234375 -1.972656 "/></g></g></g><g fill="#607eaa" fill-opacity="1"><g transform="translate(68.755262, 36.134855)"><g><path d="M 2.261719 -1.492188 C 2.199219 -1.53125 2.121094 -1.519531 2.082031 -1.457031 C 1.578125 -0.757812 1.171875 -0.3125 0.769531 -0.0273438 C 0.570312 0.113281 0.375 0.140625 0.246094 0.046875 C 0.167969 -0.0117188 -0.0820312 -0.28125 0.207031 -1.21875 C 0.855469 -1.753906 1.210938 -2.261719 1.117188 -2.527344 C 1.082031 -2.609375 1.003906 -2.664062 0.917969 -2.664062 C 0.648438 -2.65625 0.242188 -2.195312 -0.0273438 -1.332031 C -0.355469 -0.269531 -0.0859375 0.121094 0.101562 0.253906 C 0.195312 0.328125 0.300781 0.359375 0.421875 0.359375 C 0.574219 0.359375 0.75 0.300781 0.917969 0.179688 C 1.34375 -0.128906 1.765625 -0.582031 2.289062 -1.3125 C 2.328125 -1.371094 2.316406 -1.453125 2.261719 -1.492188 Z M 0.863281 -2.382812 C 0.835938 -2.273438 0.722656 -2.058594 0.40625 -1.738281 C 0.582031 -2.128906 0.769531 -2.316406 0.863281 -2.382812 Z M 0.863281 -2.382812 "/></g></g></g><g fill="#607eaa" fill-opacity="1"><g transform="translate(70.701853, 36.134855)"><g><path d="M 1.359375 -1.765625 C 1.058594 -1.734375 0.816406 -1.699219 0.542969 -1.671875 C 0.570312 -1.785156 0.59375 -1.894531 0.621094 -2 C 0.628906 -2 0.628906 -2.007812 0.636719 -2.011719 C 1.316406 -3.097656 1.894531 -4.414062 1.671875 -4.757812 C 1.625 -4.816406 1.558594 -4.84375 1.492188 -4.832031 C 1.109375 -4.769531 0.710938 -3.34375 0.589844 -2.910156 C 0.488281 -2.527344 0.382812 -2.105469 0.273438 -1.652344 C 0.09375 -1.632812 -0.105469 -1.617188 -0.347656 -1.597656 C -0.414062 -1.59375 -0.46875 -1.53125 -0.460938 -1.457031 C -0.460938 -1.390625 -0.402344 -1.34375 -0.335938 -1.34375 C -0.335938 -1.34375 -0.328125 -1.34375 -0.328125 -1.34375 C -0.121094 -1.359375 0.0546875 -1.371094 0.207031 -1.386719 C -0.0351562 -0.375 -0.289062 0.757812 -0.507812 1.8125 C -0.667969 2.574219 -0.796875 3.222656 -0.871094 3.699219 C -1.003906 4.488281 -0.988281 4.582031 -0.863281 4.621094 C -0.851562 4.621094 -0.828125 4.628906 -0.816406 4.628906 C -0.703125 4.628906 -0.640625 4.460938 -0.582031 4.292969 C -0.554688 4.226562 -0.59375 4.15625 -0.664062 4.128906 C -0.667969 4.128906 -0.675781 4.121094 -0.683594 4.121094 C -0.554688 3.238281 -0.0546875 0.804688 0.480469 -1.410156 C 0.796875 -1.4375 1.058594 -1.472656 1.390625 -1.511719 C 1.457031 -1.523438 1.511719 -1.585938 1.5 -1.660156 C 1.492188 -1.726562 1.425781 -1.78125 1.359375 -1.765625 Z M 1.453125 -4.476562 C 1.425781 -4.234375 1.277344 -3.699219 0.855469 -2.902344 C 1.109375 -3.839844 1.332031 -4.292969 1.453125 -4.476562 Z M 1.453125 -4.476562 "/></g></g></g><g fill="#607eaa" fill-opacity="1"><g transform="translate(72.220329, 36.134855)"><g><path d="M 2.421875 -1.453125 C 2.363281 -1.5 2.28125 -1.484375 2.242188 -1.429688 C 1.960938 -1.070312 1.5 -0.769531 1.144531 -0.835938 C 1.152344 -0.882812 1.15625 -0.929688 1.15625 -0.976562 C 1.203125 -1.734375 0.96875 -1.886719 0.828125 -1.914062 C 0.667969 -1.945312 0.5 -1.828125 0.421875 -1.625 C 0.386719 -1.640625 0.347656 -1.640625 0.3125 -1.613281 C 0.046875 -1.445312 -0.175781 -1.015625 -0.0546875 -0.554688 C 0.0273438 -0.28125 0.214844 -0.105469 0.460938 -0.105469 C 0.695312 -0.105469 0.941406 -0.28125 1.070312 -0.589844 C 1.539062 -0.488281 2.101562 -0.835938 2.441406 -1.269531 C 2.488281 -1.332031 2.476562 -1.410156 2.421875 -1.453125 Z M 0.46875 -0.359375 C 0.460938 -0.359375 0.460938 -0.359375 0.460938 -0.359375 C 0.292969 -0.367188 0.222656 -0.527344 0.199219 -0.621094 C 0.132812 -0.851562 0.1875 -1.164062 0.375 -1.339844 C 0.386719 -1.109375 0.515625 -0.863281 0.835938 -0.6875 C 0.742188 -0.476562 0.582031 -0.359375 0.46875 -0.359375 Z M 0.902344 -0.988281 C 0.894531 -0.976562 0.894531 -0.964844 0.894531 -0.949219 C 0.640625 -1.117188 0.601562 -1.332031 0.648438 -1.5 C 0.683594 -1.605469 0.75 -1.660156 0.78125 -1.660156 C 0.816406 -1.652344 0.929688 -1.523438 0.902344 -0.988281 Z M 0.902344 -0.988281 "/></g></g></g><g fill="#607eaa" fill-opacity="1"><g transform="translate(74.360909, 36.134855)"><g><path d="M 2.9375 -1.511719 C 2.871094 -1.546875 2.789062 -1.519531 2.761719 -1.453125 C 1.992188 0.167969 1.265625 0.996094 1.105469 0.96875 C 1.089844 0.964844 0.855469 0.734375 1.613281 -1.585938 C 1.632812 -1.644531 1.679688 -1.785156 1.570312 -1.859375 C 1.472656 -1.941406 1.359375 -1.867188 1.171875 -1.738281 C 0.96875 -1.613281 0.695312 -1.429688 0.480469 -1.457031 C 1.164062 -2.636719 1.097656 -2.898438 0.941406 -2.996094 C 0.703125 -3.136719 0.355469 -2.730469 0.195312 -2.496094 C -0.132812 -1.988281 -0.128906 -1.523438 0.222656 -1.292969 C 0.574219 -1.042969 1.035156 -1.34375 1.3125 -1.523438 C 1.316406 -1.53125 1.316406 -1.53125 1.324219 -1.539062 C 1.0625 -0.714844 0.894531 -0.0664062 0.835938 0.382812 C 0.761719 0.875 0.816406 1.136719 1.003906 1.210938 C 1.035156 1.21875 1.0625 1.222656 1.097656 1.222656 C 1.632812 1.222656 2.5625 -0.421875 2.996094 -1.339844 C 3.023438 -1.40625 2.996094 -1.484375 2.9375 -1.511719 Z M 0.234375 -1.972656 C 0.328125 -2.335938 0.640625 -2.667969 0.78125 -2.75 C 0.769531 -2.640625 0.695312 -2.339844 0.269531 -1.597656 C 0.222656 -1.671875 0.1875 -1.785156 0.234375 -1.972656 Z M 0.234375 -1.972656 "/></g></g></g><g fill="#607eaa" fill-opacity="1"><g transform="translate(77.029944, 36.134855)"><g><path d="M 3.773438 -1.492188 C 3.71875 -1.539062 3.632812 -1.53125 3.585938 -1.476562 C 3.050781 -0.851562 2.6875 -0.6875 2.527344 -0.75 C 2.386719 -0.804688 2.308594 -1.070312 2.316406 -1.492188 C 2.316406 -1.566406 2.320312 -1.746094 2.175781 -1.78125 C 2.007812 -1.820312 1.886719 -1.625 1.53125 -0.882812 C 1.472656 -0.757812 1.417969 -0.640625 1.386719 -0.574219 C 1.34375 -0.5 1.316406 -0.460938 1.296875 -0.441406 C 1.265625 -0.507812 1.21875 -0.683594 1.222656 -0.941406 C 1.222656 -1.078125 1.222656 -1.191406 1.230469 -1.285156 C 1.238281 -1.578125 1.246094 -1.6875 1.125 -1.734375 C 1.015625 -1.765625 0.941406 -1.664062 0.921875 -1.632812 C 0.628906 -1.230469 0.367188 -0.824219 0.09375 -0.328125 C 0.199219 -0.789062 0.394531 -1.453125 0.640625 -2.007812 C 0.667969 -2.074219 0.640625 -2.152344 0.574219 -2.179688 C 0.507812 -2.207031 0.433594 -2.179688 0.402344 -2.113281 C 0.214844 -1.679688 0.0273438 -1.125 -0.113281 -0.574219 C -0.335938 0.308594 -0.246094 0.347656 -0.167969 0.386719 C -0.148438 0.394531 -0.128906 0.402344 -0.105469 0.402344 C -0.0390625 0.402344 0.0195312 0.355469 0.0742188 0.253906 C 0.394531 -0.359375 0.664062 -0.816406 0.96875 -1.265625 C 0.96875 -1.171875 0.964844 -1.0625 0.964844 -0.941406 C 0.964844 -0.734375 0.988281 -0.242188 1.238281 -0.175781 C 1.4375 -0.128906 1.566406 -0.375 1.613281 -0.453125 C 1.652344 -0.527344 1.707031 -0.640625 1.765625 -0.769531 C 1.839844 -0.921875 1.960938 -1.175781 2.058594 -1.351562 C 2.074219 -0.882812 2.199219 -0.59375 2.441406 -0.507812 C 2.769531 -0.382812 3.21875 -0.65625 3.785156 -1.3125 C 3.832031 -1.363281 3.828125 -1.445312 3.773438 -1.492188 Z M 3.773438 -1.492188 "/></g></g></g><g fill="#607eaa" fill-opacity="1"><g transform="translate(80.515077, 36.134855)"><g><path d="M 2.796875 -1.484375 C 2.734375 -1.511719 2.65625 -1.484375 2.628906 -1.425781 C 2.121094 -0.386719 1.738281 -0.0585938 1.558594 -0.09375 C 1.484375 -0.105469 1.246094 -0.246094 1.183594 -1.417969 C 1.183594 -1.472656 1.144531 -1.519531 1.097656 -1.53125 C 1.042969 -1.546875 0.984375 -1.53125 0.957031 -1.484375 C 0.917969 -1.4375 0.875 -1.386719 0.835938 -1.324219 C 0.667969 -1.097656 0.449219 -0.789062 0.179688 -0.5 C 0.140625 -0.453125 0.105469 -0.429688 0.0859375 -0.414062 C 0.0390625 -0.648438 0.289062 -1.546875 0.683594 -1.828125 C 0.796875 -1.90625 0.949219 -1.96875 1.15625 -1.726562 C 1.203125 -1.671875 1.285156 -1.664062 1.339844 -1.710938 C 1.390625 -1.753906 1.398438 -1.839844 1.359375 -1.894531 C 1.105469 -2.1875 0.863281 -2.179688 0.703125 -2.128906 C 0.1875 -1.945312 -0.160156 -0.957031 -0.175781 -0.5 C -0.179688 -0.3125 -0.128906 -0.195312 -0.0195312 -0.152344 C 0.148438 -0.0859375 0.3125 -0.269531 0.367188 -0.328125 C 0.59375 -0.574219 0.804688 -0.84375 0.949219 -1.050781 C 1.023438 -0.289062 1.203125 0.09375 1.503906 0.160156 C 1.53125 0.160156 1.558594 0.167969 1.585938 0.167969 C 2.039062 0.167969 2.527344 -0.628906 2.855469 -1.3125 C 2.890625 -1.378906 2.863281 -1.453125 2.796875 -1.484375 Z M 2.796875 -1.484375 "/></g></g></g><g fill="#607eaa" fill-opacity="1"><g transform="translate(83.003503, 36.134855)"><g/></g></g><g fill="#607eaa" fill-opacity="1"><g transform="translate(85.057122, 36.134855)"><g><path d="M 2.855469 -5.585938 C 2.808594 -5.625 2.75 -5.640625 2.6875 -5.625 C 2.402344 -5.53125 1.886719 -4.132812 1.390625 -1.832031 C 1.378906 -1.792969 1.359375 -1.757812 1.339844 -1.71875 C 1.304688 -1.980469 1.128906 -2.054688 1.070312 -2.074219 C 0.78125 -2.160156 0.328125 -1.898438 0.0117188 -1.230469 C -0.226562 -0.730469 -0.273438 -0.0742188 0.0273438 0.101562 C 0.175781 0.1875 0.429688 0.175781 0.796875 -0.359375 C 0.957031 -0.589844 1.097656 -0.808594 1.230469 -1.023438 C 1.15625 -0.640625 1.082031 -0.242188 1.015625 0.179688 C 0.890625 0.929688 0.796875 1.558594 0.742188 2.011719 C 0.636719 2.902344 0.6875 3.023438 0.824219 3.0625 C 0.835938 3.070312 0.855469 3.070312 0.871094 3.070312 C 0.988281 3.070312 1.070312 2.917969 1.109375 2.816406 C 1.144531 2.757812 1.117188 2.675781 1.050781 2.648438 C 1.015625 2.628906 0.976562 2.628906 0.941406 2.640625 C 0.957031 2.355469 1.023438 1.699219 1.269531 0.226562 C 1.390625 -0.507812 1.519531 -1.164062 1.640625 -1.738281 C 2.140625 -2.6875 2.394531 -3.492188 2.601562 -4.128906 C 2.628906 -4.207031 2.65625 -4.28125 2.675781 -4.347656 C 3.03125 -5.414062 2.898438 -5.539062 2.855469 -5.585938 Z M 0.582031 -0.507812 C 0.328125 -0.140625 0.1875 -0.105469 0.152344 -0.121094 C 0.0546875 -0.179688 0.0195312 -0.640625 0.246094 -1.125 C 0.476562 -1.605469 0.78125 -1.832031 0.949219 -1.832031 C 0.96875 -1.832031 0.984375 -1.832031 0.996094 -1.828125 C 1.105469 -1.800781 1.082031 -1.605469 1.078125 -1.550781 C 1.070312 -1.492188 1.105469 -1.429688 1.164062 -1.410156 C 0.996094 -1.125 0.804688 -0.824219 0.582031 -0.507812 Z M 2.433594 -4.429688 C 2.410156 -4.363281 2.382812 -4.289062 2.363281 -4.207031 C 2.242188 -3.847656 2.105469 -3.4375 1.925781 -2.976562 C 2.207031 -4.085938 2.460938 -4.785156 2.621094 -5.132812 C 2.59375 -4.96875 2.535156 -4.742188 2.433594 -4.429688 Z M 2.433594 -4.429688 "/></g></g></g><g fill="#607eaa" fill-opacity="1"><g transform="translate(87.150879, 36.134855)"><g><path d="M 2.261719 -1.492188 C 2.199219 -1.53125 2.121094 -1.519531 2.082031 -1.457031 C 1.578125 -0.757812 1.171875 -0.3125 0.769531 -0.0273438 C 0.570312 0.113281 0.375 0.140625 0.246094 0.046875 C 0.167969 -0.0117188 -0.0820312 -0.28125 0.207031 -1.21875 C 0.855469 -1.753906 1.210938 -2.261719 1.117188 -2.527344 C 1.082031 -2.609375 1.003906 -2.664062 0.917969 -2.664062 C 0.648438 -2.65625 0.242188 -2.195312 -0.0273438 -1.332031 C -0.355469 -0.269531 -0.0859375 0.121094 0.101562 0.253906 C 0.195312 0.328125 0.300781 0.359375 0.421875 0.359375 C 0.574219 0.359375 0.75 0.300781 0.917969 0.179688 C 1.34375 -0.128906 1.765625 -0.582031 2.289062 -1.3125 C 2.328125 -1.371094 2.316406 -1.453125 2.261719 -1.492188 Z M 0.863281 -2.382812 C 0.835938 -2.273438 0.722656 -2.058594 0.40625 -1.738281 C 0.582031 -2.128906 0.769531 -2.316406 0.863281 -2.382812 Z M 0.863281 -2.382812 "/></g></g></g><g fill="#607eaa" fill-opacity="1"><g transform="translate(89.097471, 36.134855)"><g/></g></g><g fill="#607eaa" fill-opacity="1"><g transform="translate(91.15109, 36.134855)"><g><path d="M 5.644531 -3.945312 C 5.558594 -4.066406 5.171875 -4.140625 1.015625 -4.046875 C 1.152344 -4.589844 1.269531 -5.078125 1.378906 -5.472656 C 1.398438 -5.546875 1.359375 -5.613281 1.292969 -5.632812 C 1.222656 -5.652344 1.152344 -5.613281 1.128906 -5.546875 C 1.015625 -5.125 0.890625 -4.617188 0.75 -4.039062 C 0.382812 -4.035156 -0.0195312 -4.027344 -0.453125 -4.015625 C -1.050781 -4 -1.519531 -3.988281 -1.699219 -3.988281 C -1.773438 -3.988281 -1.832031 -3.925781 -1.832031 -3.859375 C -1.832031 -3.785156 -1.773438 -3.726562 -1.699219 -3.726562 C -1.511719 -3.734375 -1.042969 -3.738281 -0.449219 -3.757812 C -0.132812 -3.765625 0.253906 -3.773438 0.6875 -3.785156 C 0.402344 -2.570312 0.0742188 -1.109375 -0.222656 0.3125 C -0.433594 1.359375 -0.609375 2.261719 -0.722656 2.921875 C -0.78125 3.269531 -0.824219 3.546875 -0.84375 3.734375 C -0.871094 3.988281 -0.882812 4.132812 -0.757812 4.179688 C -0.734375 4.179688 -0.722656 4.1875 -0.703125 4.1875 C -0.589844 4.1875 -0.527344 4.027344 -0.476562 3.878906 C -0.449219 3.8125 -0.480469 3.738281 -0.546875 3.710938 C -0.5625 3.710938 -0.570312 3.707031 -0.582031 3.707031 C -0.515625 3.183594 -0.3125 2.011719 0.0742188 0.167969 C 0.359375 -1.230469 0.675781 -2.628906 0.957031 -3.792969 C 2.796875 -3.832031 5.183594 -3.867188 5.457031 -3.773438 C 5.503906 -3.734375 5.566406 -3.734375 5.621094 -3.765625 C 5.671875 -3.804688 5.6875 -3.886719 5.644531 -3.945312 Z M 5.644531 -3.945312 "/></g></g></g><g fill="#607eaa" fill-opacity="1"><g transform="translate(92.04077, 36.134855)"><g><path d="M 2.664062 -1.445312 C 2.601562 -1.476562 2.523438 -1.457031 2.488281 -1.398438 C 1.851562 -0.382812 1.316406 0.0742188 1.203125 0.0351562 C 1.203125 0.0351562 1.070312 -0.0390625 1.199219 -0.808594 C 1.246094 -1.070312 1.265625 -1.21875 1.136719 -1.269531 C 1.015625 -1.316406 0.941406 -1.21875 0.804688 -1.015625 C 0.6875 -0.855469 0.535156 -0.640625 0.367188 -0.496094 C 0.347656 -0.480469 0.273438 -0.414062 0.242188 -0.441406 C 0.140625 -0.523438 0.121094 -0.957031 0.355469 -1.359375 C 0.394531 -1.417969 0.367188 -1.5 0.308594 -1.539062 C 0.246094 -1.570312 0.167969 -1.550781 0.132812 -1.492188 C -0.132812 -1.023438 -0.160156 -0.441406 0.0742188 -0.246094 C 0.132812 -0.195312 0.300781 -0.101562 0.535156 -0.292969 C 0.6875 -0.429688 0.824219 -0.601562 0.929688 -0.75 C 0.835938 -0.128906 0.890625 0.1875 1.109375 0.273438 C 1.144531 0.289062 1.175781 0.289062 1.203125 0.289062 C 1.710938 0.289062 2.535156 -0.996094 2.703125 -1.265625 C 2.742188 -1.324219 2.722656 -1.40625 2.664062 -1.445312 Z M 2.664062 -1.445312 "/></g></g></g><g fill="#607eaa" fill-opacity="1"><g transform="translate(94.435544, 36.134855)"><g/></g></g><g fill="#607eaa" fill-opacity="1"><g transform="translate(96.489164, 36.134855)"><g><path d="M 3.359375 -1.457031 C 3.304688 -1.503906 3.222656 -1.5 3.175781 -1.445312 C 2.902344 -1.125 2.535156 -0.964844 2.234375 -1.042969 C 1.988281 -1.109375 1.804688 -1.351562 1.738281 -1.710938 C 1.726562 -1.773438 1.664062 -1.8125 1.605469 -1.8125 C 1.546875 -1.8125 1.492188 -1.765625 1.484375 -1.707031 C 1.34375 -0.703125 0.546875 0.496094 0.167969 0.621094 C 0.121094 0.636719 0.105469 0.628906 0.105469 0.621094 C 0.0742188 0.59375 -0.152344 0.28125 0.554688 -1.828125 C 0.574219 -1.894531 0.542969 -1.96875 0.476562 -1.988281 C 0.40625 -2.011719 0.335938 -1.972656 0.308594 -1.90625 C -0.46875 0.414062 -0.175781 0.710938 -0.0820312 0.804688 C -0.0390625 0.835938 0.0273438 0.890625 0.128906 0.890625 C 0.160156 0.890625 0.199219 0.882812 0.246094 0.863281 C 0.496094 0.78125 0.828125 0.429688 1.128906 -0.0742188 C 1.359375 -0.449219 1.53125 -0.851562 1.640625 -1.222656 C 1.765625 -1.003906 1.945312 -0.855469 2.167969 -0.796875 C 2.5625 -0.695312 3.03125 -0.882812 3.371094 -1.277344 C 3.417969 -1.332031 3.410156 -1.410156 3.359375 -1.457031 Z M 3.359375 -1.457031 "/></g></g></g><g fill="#607eaa" fill-opacity="1"><g transform="translate(99.646518, 36.134855)"><g><path d="M 1.953125 -1.519531 C 1.894531 -1.558594 1.820312 -1.539062 1.78125 -1.476562 C 1.332031 -0.757812 0.582031 -0.0742188 0.355469 -0.167969 C 0.328125 -0.179688 0.113281 -0.308594 0.40625 -1.4375 C 0.421875 -1.511719 0.382812 -1.578125 0.3125 -1.597656 C 0.242188 -1.613281 0.175781 -1.570312 0.152344 -1.503906 C -0.0859375 -0.5625 -0.0546875 -0.0585938 0.246094 0.0664062 C 0.292969 0.0859375 0.339844 0.09375 0.386719 0.09375 C 0.890625 0.09375 1.660156 -0.804688 2 -1.34375 C 2.035156 -1.40625 2.011719 -1.484375 1.953125 -1.519531 Z M 0.375 -2.058594 C 0.714844 -2.039062 0.710938 -2.46875 0.433594 -2.375 C 0.292969 -2.335938 0.113281 -2.074219 0.375 -2.058594 Z M 0.375 -2.058594 "/></g></g></g><g fill="#607eaa" fill-opacity="1"><g transform="translate(101.338916, 36.134855)"><g><path d="M 2.855469 -5.585938 C 2.808594 -5.625 2.75 -5.640625 2.6875 -5.625 C 2.402344 -5.53125 1.886719 -4.132812 1.390625 -1.832031 C 1.378906 -1.792969 1.359375 -1.757812 1.339844 -1.71875 C 1.304688 -1.980469 1.128906 -2.054688 1.070312 -2.074219 C 0.78125 -2.160156 0.328125 -1.898438 0.0117188 -1.230469 C -0.226562 -0.730469 -0.273438 -0.0742188 0.0273438 0.101562 C 0.175781 0.1875 0.429688 0.175781 0.796875 -0.359375 C 0.957031 -0.589844 1.097656 -0.808594 1.230469 -1.023438 C 1.15625 -0.640625 1.082031 -0.242188 1.015625 0.179688 C 0.890625 0.929688 0.796875 1.558594 0.742188 2.011719 C 0.636719 2.902344 0.6875 3.023438 0.824219 3.0625 C 0.835938 3.070312 0.855469 3.070312 0.871094 3.070312 C 0.988281 3.070312 1.070312 2.917969 1.109375 2.816406 C 1.144531 2.757812 1.117188 2.675781 1.050781 2.648438 C 1.015625 2.628906 0.976562 2.628906 0.941406 2.640625 C 0.957031 2.355469 1.023438 1.699219 1.269531 0.226562 C 1.390625 -0.507812 1.519531 -1.164062 1.640625 -1.738281 C 2.140625 -2.6875 2.394531 -3.492188 2.601562 -4.128906 C 2.628906 -4.207031 2.65625 -4.28125 2.675781 -4.347656 C 3.03125 -5.414062 2.898438 -5.539062 2.855469 -5.585938 Z M 0.582031 -0.507812 C 0.328125 -0.140625 0.1875 -0.105469 0.152344 -0.121094 C 0.0546875 -0.179688 0.0195312 -0.640625 0.246094 -1.125 C 0.476562 -1.605469 0.78125 -1.832031 0.949219 -1.832031 C 0.96875 -1.832031 0.984375 -1.832031 0.996094 -1.828125 C 1.105469 -1.800781 1.082031 -1.605469 1.078125 -1.550781 C 1.070312 -1.492188 1.105469 -1.429688 1.164062 -1.410156 C 0.996094 -1.125 0.804688 -0.824219 0.582031 -0.507812 Z M 2.433594 -4.429688 C 2.410156 -4.363281 2.382812 -4.289062 2.363281 -4.207031 C 2.242188 -3.847656 2.105469 -3.4375 1.925781 -2.976562 C 2.207031 -4.085938 2.460938 -4.785156 2.621094 -5.132812 C 2.59375 -4.96875 2.535156 -4.742188 2.433594 -4.429688 Z M 2.433594 -4.429688 "/></g></g></g><g fill="#607eaa" fill-opacity="1"><g transform="translate(103.432673, 36.134855)"><g><path d="M 2.796875 -1.484375 C 2.734375 -1.511719 2.65625 -1.484375 2.628906 -1.425781 C 2.121094 -0.386719 1.738281 -0.0585938 1.558594 -0.09375 C 1.484375 -0.105469 1.246094 -0.246094 1.183594 -1.417969 C 1.183594 -1.472656 1.144531 -1.519531 1.097656 -1.53125 C 1.042969 -1.546875 0.984375 -1.53125 0.957031 -1.484375 C 0.917969 -1.4375 0.875 -1.386719 0.835938 -1.324219 C 0.667969 -1.097656 0.449219 -0.789062 0.179688 -0.5 C 0.140625 -0.453125 0.105469 -0.429688 0.0859375 -0.414062 C 0.0390625 -0.648438 0.289062 -1.546875 0.683594 -1.828125 C 0.796875 -1.90625 0.949219 -1.96875 1.15625 -1.726562 C 1.203125 -1.671875 1.285156 -1.664062 1.339844 -1.710938 C 1.390625 -1.753906 1.398438 -1.839844 1.359375 -1.894531 C 1.105469 -2.1875 0.863281 -2.179688 0.703125 -2.128906 C 0.1875 -1.945312 -0.160156 -0.957031 -0.175781 -0.5 C -0.179688 -0.3125 -0.128906 -0.195312 -0.0195312 -0.152344 C 0.148438 -0.0859375 0.3125 -0.269531 0.367188 -0.328125 C 0.59375 -0.574219 0.804688 -0.84375 0.949219 -1.050781 C 1.023438 -0.289062 1.203125 0.09375 1.503906 0.160156 C 1.53125 0.160156 1.558594 0.167969 1.585938 0.167969 C 2.039062 0.167969 2.527344 -0.628906 2.855469 -1.3125 C 2.890625 -1.378906 2.863281 -1.453125 2.796875 -1.484375 Z M 2.796875 -1.484375 "/></g></g></g><g fill="#607eaa" fill-opacity="1"><g transform="translate(105.916586, 36.134855)"><g/></g></g><g fill="#ffffff" fill-opacity="1"><g transform="translate(31.478145, 28.145469)"><g><path d="M 8.84375 0 L 6.59375 -3.265625 L 4.09375 -3.265625 L 4.09375 0 L 1.390625 0 L 1.390625 -11.703125 L 6.453125 -11.703125 C 7.492188 -11.703125 8.394531 -11.53125 9.15625 -11.1875 C 9.914062 -10.84375 10.5 -10.351562 10.90625 -9.71875 C 11.320312 -9.082031 11.53125 -8.328125 11.53125 -7.453125 C 11.53125 -6.585938 11.320312 -5.835938 10.90625 -5.203125 C 10.488281 -4.578125 9.894531 -4.097656 9.125 -3.765625 L 11.75 0 Z M 8.796875 -7.453125 C 8.796875 -8.109375 8.582031 -8.613281 8.15625 -8.96875 C 7.738281 -9.320312 7.117188 -9.5 6.296875 -9.5 L 4.09375 -9.5 L 4.09375 -5.421875 L 6.296875 -5.421875 C 7.117188 -5.421875 7.738281 -5.597656 8.15625 -5.953125 C 8.582031 -6.304688 8.796875 -6.804688 8.796875 -7.453125 Z M 8.796875 -7.453125 "/></g></g></g><g fill="#ffffff" fill-opacity="1"><g transform="translate(43.771491, 28.145469)"><g><path d="M 10.453125 -2.171875 L 10.453125 0 L 1.390625 0 L 1.390625 -11.703125 L 10.234375 -11.703125 L 10.234375 -9.53125 L 4.078125 -9.53125 L 4.078125 -6.984375 L 9.515625 -6.984375 L 9.515625 -4.875 L 4.078125 -4.875 L 4.078125 -2.171875 Z M 10.453125 -2.171875 "/></g></g></g><g fill="#ffffff" fill-opacity="1"><g transform="translate(54.994396, 28.145469)"><g><path d="M 4.09375 -9.53125 L 4.09375 -6.4375 L 9.515625 -6.4375 L 9.515625 -4.265625 L 4.09375 -4.265625 L 4.09375 0 L 1.390625 0 L 1.390625 -11.703125 L 10.234375 -11.703125 L 10.234375 -9.53125 Z M 4.09375 -9.53125 "/></g></g></g><g fill="#ffffff" fill-opacity="1"><g transform="translate(65.682081, 28.145469)"><g><path d="M 7.0625 0.203125 C 5.84375 0.203125 4.742188 -0.0546875 3.765625 -0.578125 C 2.796875 -1.109375 2.035156 -1.832031 1.484375 -2.75 C 0.929688 -3.664062 0.65625 -4.703125 0.65625 -5.859375 C 0.65625 -7.003906 0.929688 -8.035156 1.484375 -8.953125 C 2.035156 -9.867188 2.796875 -10.585938 3.765625 -11.109375 C 4.742188 -11.640625 5.84375 -11.90625 7.0625 -11.90625 C 8.269531 -11.90625 9.359375 -11.640625 10.328125 -11.109375 C 11.296875 -10.585938 12.054688 -9.867188 12.609375 -8.953125 C 13.171875 -8.035156 13.453125 -7.003906 13.453125 -5.859375 C 13.453125 -4.703125 13.171875 -3.664062 12.609375 -2.75 C 12.054688 -1.832031 11.296875 -1.109375 10.328125 -0.578125 C 9.359375 -0.0546875 8.269531 0.203125 7.0625 0.203125 Z M 7.0625 -2.109375 C 7.75 -2.109375 8.367188 -2.265625 8.921875 -2.578125 C 9.484375 -2.898438 9.921875 -3.34375 10.234375 -3.90625 C 10.554688 -4.476562 10.71875 -5.128906 10.71875 -5.859375 C 10.71875 -6.578125 10.554688 -7.21875 10.234375 -7.78125 C 9.921875 -8.351562 9.484375 -8.796875 8.921875 -9.109375 C 8.367188 -9.429688 7.75 -9.59375 7.0625 -9.59375 C 6.363281 -9.59375 5.734375 -9.429688 5.171875 -9.109375 C 4.617188 -8.796875 4.179688 -8.351562 3.859375 -7.78125 C 3.546875 -7.21875 3.390625 -6.578125 3.390625 -5.859375 C 3.390625 -5.128906 3.546875 -4.476562 3.859375 -3.90625 C 4.179688 -3.34375 4.617188 -2.898438 5.171875 -2.578125 C 5.734375 -2.265625 6.363281 -2.109375 7.0625 -2.109375 Z M 7.0625 -2.109375 "/></g></g></g><g fill="#ffffff" fill-opacity="1"><g transform="translate(79.798523, 28.145469)"><g><path d="M 8.84375 0 L 6.59375 -3.265625 L 4.09375 -3.265625 L 4.09375 0 L 1.390625 0 L 1.390625 -11.703125 L 6.453125 -11.703125 C 7.492188 -11.703125 8.394531 -11.53125 9.15625 -11.1875 C 9.914062 -10.84375 10.5 -10.351562 10.90625 -9.71875 C 11.320312 -9.082031 11.53125 -8.328125 11.53125 -7.453125 C 11.53125 -6.585938 11.320312 -5.835938 10.90625 -5.203125 C 10.488281 -4.578125 9.894531 -4.097656 9.125 -3.765625 L 11.75 0 Z M 8.796875 -7.453125 C 8.796875 -8.109375 8.582031 -8.613281 8.15625 -8.96875 C 7.738281 -9.320312 7.117188 -9.5 6.296875 -9.5 L 4.09375 -9.5 L 4.09375 -5.421875 L 6.296875 -5.421875 C 7.117188 -5.421875 7.738281 -5.597656 8.15625 -5.953125 C 8.582031 -6.304688 8.796875 -6.804688 8.796875 -7.453125 Z M 8.796875 -7.453125 "/></g></g></g><g fill="#ffffff" fill-opacity="1"><g transform="translate(92.088483, 28.145469)"><g/></g></g><path stroke-linecap="butt" transform="matrix(0.313637, 0, 0, 0.313637, 92.653956, 10.895437)" fill="none" stroke-linejoin="miter" d="M 4.441182 17.670312 L 13.084735 17.670312 L 13.084735 47.960113 L 31.791676 47.960113 L 31.791676 54.997011 L 4.441182 54.997011 Z M 36.649004 17.670312 L 45.292557 17.670312 L 45.292557 54.997011 L 36.649004 54.997011 Z M 62.791393 24.595119 L 62.791393 34.471686 L 80.066045 34.471686 L 80.066045 41.408947 L 62.791393 41.408947 L 62.791393 54.997011 L 54.14784 54.997011 L 54.14784 17.670312 L 82.357707 17.670312 L 82.357707 24.595119 Z M 117.131195 48.072205 L 117.131195 54.997011 L 88.223865 54.997011 L 88.223865 17.670312 L 116.433733 17.670312 L 116.433733 24.595119 L 96.805145 24.595119 L 96.805145 32.715575 L 114.14207 32.715575 L 114.14207 39.428652 L 96.805145 39.428652 L 96.805145 48.072205 Z M 117.131195 48.072205 " stroke="#ffffff" stroke-width="1.999999" stroke-opacity="1" stroke-miterlimit="4"/><g clip-path="url(#4cd962fde3)"><g clip-path="url(#c50c23d73a)"><g clip-path="url(#585b5b46e1)"><path fill="#eae3d2" d="M 0.00390625 12.515625 L 17.707031 2.496094 L 19.550781 5.757812 L 1.847656 15.777344 Z M 0.00390625 12.515625 " fill-opacity="1" fill-rule="nonzero"/></g></g></g><g clip-path="url(#8c8dbcb021)"><g clip-path="url(#3a80144d77)"><g clip-path="url(#44d2c8a265)"><path fill="#eae3d2" d="M 17.683594 2.441406 L 31.535156 10.5625 L 29.640625 13.792969 L 15.789062 5.671875 Z M 17.683594 2.441406 " fill-opacity="1" fill-rule="nonzero"/></g></g></g><g clip-path="url(#0fc645c048)"><path fill="#eae3d2" d="M 0.00390625 32.382812 L 0.00390625 12.574219 L 3.75 12.574219 L 3.75 32.382812 Z M 0.00390625 32.382812 " fill-opacity="1" fill-rule="nonzero"/></g><g clip-path="url(#27de2eba27)"><g clip-path="url(#db5d574290)"><g clip-path="url(#c95041e5c1)"><path fill="#eae3d2" d="M 1.886719 29.210938 L 19.203125 39.363281 L 17.308594 42.597656 L -0.0078125 32.445312 Z M 1.886719 29.210938 " fill-opacity="1" fill-rule="nonzero"/></g></g></g><g clip-path="url(#653faa9049)"><g clip-path="url(#bbe8bfe850)"><g clip-path="url(#139d627d27)"><path fill="#eae3d2" d="M 15.550781 39.304688 L 29.527344 31.398438 L 31.371094 34.660156 L 17.394531 42.566406 Z M 15.550781 39.304688 " fill-opacity="1" fill-rule="nonzero"/></g></g></g><g clip-path="url(#0cd6b995f8)"><g clip-path="url(#8f56104ba8)"><g clip-path="url(#e0b68e6073)"><path fill="#eae3d2" d="M 5.933594 15.78125 L 17.8125 9.058594 L 19.660156 12.320312 L 7.777344 19.042969 Z M 5.933594 15.78125 " fill-opacity="1" fill-rule="nonzero"/></g></g></g><g clip-path="url(#480143e78e)"><g clip-path="url(#764b2c3172)"><g clip-path="url(#dfcfb2523c)"><path fill="#eae3d2" d="M 27.464844 18.773438 L 15.804688 12.207031 L 17.644531 8.941406 L 29.304688 15.511719 Z M 27.464844 18.773438 " fill-opacity="1" fill-rule="nonzero"/></g></g></g><g clip-path="url(#b4eac6211a)"><path fill="#eae3d2" d="M 5.933594 29.265625 L 5.933594 15.882812 L 9.679688 15.882812 L 9.679688 29.265625 Z M 5.933594 29.265625 " fill-opacity="1" fill-rule="nonzero"/></g><g clip-path="url(#aa0293477e)"><path fill="#eae3d2" d="M 25.566406 28.96875 L 25.566406 15.585938 L 29.316406 15.585938 L 29.316406 28.96875 Z M 25.566406 28.96875 " fill-opacity="1" fill-rule="nonzero"/></g><g clip-path="url(#ed17bb959c)"><path fill="#eae3d2" d="M 5.929688 11.214844 L 5.929688 2.378906 L 9.675781 2.378906 L 9.675781 11.214844 Z M 5.929688 11.214844 " fill-opacity="1" fill-rule="nonzero"/></g><g clip-path="url(#9244cf24de)"><g clip-path="url(#a9f46b61eb)"><path fill="#eae3d2" d="M 9.65625 27.042969 L 9.65625 31.5 L 5.898438 31.5 L 5.898438 27.042969 Z M 9.65625 27.042969 " fill-opacity="1" fill-rule="nonzero"/></g></g><g clip-path="url(#27cf4589a5)"><g clip-path="url(#c95f0a37b2)"><path fill="#eae3d2" d="M 25.5625 31.199219 L 25.5625 26.742188 L 29.324219 26.742188 L 29.324219 31.199219 Z M 25.5625 31.199219 " fill-opacity="1" fill-rule="nonzero"/></g></g><g clip-path="url(#9558e51548)"><g clip-path="url(#a87b806808)"><path fill="#eae3d2" d="M 31.464844 10.53125 L 31.464844 14.886719 L 27.792969 14.886719 L 27.792969 10.53125 Z M 31.464844 10.53125 " fill-opacity="1" fill-rule="nonzero"/></g></g><g clip-path="url(#cb0a4e35ae)"><g clip-path="url(#2be7d218c6)"><path fill="#eae3d2" d="M 31.464844 30.210938 L 31.464844 34.566406 L 27.792969 34.566406 L 27.792969 30.210938 Z M 31.464844 30.210938 " fill-opacity="1" fill-rule="nonzero"/></g></g></svg>