<svg xmlns="http://www.w3.org/2000/svg" xmlns:xlink="http://www.w3.org/1999/xlink" width="500" zoomAndPan="magnify" viewBox="0 0 375 374.999991" height="500" preserveAspectRatio="xMidYMid meet" version="1.0"><defs><g/><clipPath id="64dc53c4c6"><path d="M 24 140 L 72 140 L 72 173 L 24 173 Z M 24 140 " clip-rule="nonzero"/></clipPath><clipPath id="50ab51b92d"><path d="M 24.738281 164.585938 L 67.632812 140.316406 L 72.042969 148.113281 L 29.152344 172.382812 Z M 24.738281 164.585938 " clip-rule="nonzero"/></clipPath><clipPath id="1db9811453"><path d="M 24.738281 164.585938 L 67.324219 140.488281 L 71.726562 148.265625 L 29.140625 172.363281 Z M 24.738281 164.585938 " clip-rule="nonzero"/></clipPath><clipPath id="c9a5752e67"><path d="M 62 140 L 100 140 L 100 168 L 62 168 Z M 62 140 " clip-rule="nonzero"/></clipPath><clipPath id="598a81838d"><path d="M 67.027344 140.492188 L 100.15625 159.910156 L 95.625 167.640625 L 62.496094 148.21875 Z M 67.027344 140.492188 " clip-rule="nonzero"/></clipPath><clipPath id="a6368b3334"><path d="M 67.027344 140.492188 L 100 159.820312 L 95.480469 167.527344 L 62.507812 148.199219 Z M 67.027344 140.492188 " clip-rule="nonzero"/></clipPath><clipPath id="096e790998"><path d="M 24.738281 164.703125 L 33.671875 164.703125 L 33.671875 212.105469 L 24.738281 212.105469 Z M 24.738281 164.703125 " clip-rule="nonzero"/></clipPath><clipPath id="623a8949de"><path d="M 24 204 L 71 204 L 71 237 L 24 237 Z M 24 204 " clip-rule="nonzero"/></clipPath><clipPath id="5dd0b50f1f"><path d="M 29.253906 204.515625 L 70.664062 228.792969 L 66.132812 236.523438 L 24.722656 212.246094 Z M 29.253906 204.515625 " clip-rule="nonzero"/></clipPath><clipPath id="99933ff508"><path d="M 29.253906 204.515625 L 70.558594 228.726562 L 66.039062 236.4375 L 24.734375 212.222656 Z M 29.253906 204.515625 " clip-rule="nonzero"/></clipPath><clipPath id="16a6836b22"><path d="M 61 209 L 100 209 L 100 237 L 61 237 Z M 61 209 " clip-rule="nonzero"/></clipPath><clipPath id="bb714d9996"><path d="M 61.917969 228.65625 L 95.898438 209.429688 L 100.3125 217.230469 L 66.332031 236.457031 Z M 61.917969 228.65625 " clip-rule="nonzero"/></clipPath><clipPath id="3d2d9d3a1d"><path d="M 61.917969 228.65625 L 95.601562 209.597656 L 100 217.375 L 66.320312 236.433594 Z M 61.917969 228.65625 " clip-rule="nonzero"/></clipPath><clipPath id="cea31612b8"><path d="M 38 156 L 72 156 L 72 181 L 38 181 Z M 38 156 " clip-rule="nonzero"/></clipPath><clipPath id="df6913e242"><path d="M 38.925781 172.402344 L 67.332031 156.328125 L 71.746094 164.125 L 43.335938 180.203125 Z M 38.925781 172.402344 " clip-rule="nonzero"/></clipPath><clipPath id="204bf34b0e"><path d="M 38.925781 172.402344 L 67.160156 156.425781 L 71.5625 164.203125 L 43.324219 180.179688 Z M 38.925781 172.402344 " clip-rule="nonzero"/></clipPath><clipPath id="84fa518e2c"><path d="M 62 156 L 95 156 L 95 180 L 62 180 Z M 62 156 " clip-rule="nonzero"/></clipPath><clipPath id="f471089225"><path d="M 90.402344 179.570312 L 62.523438 163.863281 L 66.917969 156.058594 L 94.800781 171.765625 Z M 90.402344 179.570312 " clip-rule="nonzero"/></clipPath><clipPath id="f6265fcd12"><path d="M 90.402344 179.570312 L 62.664062 163.945312 L 67.050781 156.160156 L 94.789062 171.785156 Z M 90.402344 179.570312 " clip-rule="nonzero"/></clipPath><clipPath id="252e07e583"><path d="M 38.925781 172.359375 L 47.859375 172.359375 L 47.859375 204.660156 L 38.925781 204.660156 Z M 38.925781 172.359375 " clip-rule="nonzero"/></clipPath><clipPath id="9312d16f23"><path d="M 85.878906 172.089844 L 94.8125 172.089844 L 94.8125 203.945312 L 85.878906 203.945312 Z M 85.878906 172.089844 " clip-rule="nonzero"/></clipPath><clipPath id="f59b4688f8"><path d="M 38.910156 140.484375 L 47.847656 140.484375 L 47.847656 161.488281 L 38.910156 161.488281 Z M 38.910156 140.484375 " clip-rule="nonzero"/></clipPath><clipPath id="26d5e73562"><path d="M 38.851562 199.335938 L 47.839844 199.335938 L 47.839844 209.988281 L 38.851562 209.988281 Z M 38.851562 199.335938 " clip-rule="nonzero"/></clipPath><clipPath id="69d189326f"><path d="M 38.902344 204.664062 L 47.839844 209.988281 L 47.839844 199.335938 L 38.902344 204.664062 " clip-rule="nonzero"/></clipPath><clipPath id="36a3a0eda8"><path d="M 85.863281 198.617188 L 94.851562 198.617188 L 94.851562 209.273438 L 85.863281 209.273438 Z M 85.863281 198.617188 " clip-rule="nonzero"/></clipPath><clipPath id="666925108d"><path d="M 94.796875 203.945312 L 85.863281 198.617188 L 85.863281 209.273438 L 94.796875 203.945312 " clip-rule="nonzero"/></clipPath><clipPath id="6f62f02f82"><path d="M 91.207031 159.84375 L 99.996094 159.84375 L 99.996094 170.257812 L 91.207031 170.257812 Z M 91.207031 159.84375 " clip-rule="nonzero"/></clipPath><clipPath id="79276c3d15"><path d="M 91.261719 165.050781 L 99.996094 170.257812 L 99.996094 159.84375 L 91.261719 165.050781 " clip-rule="nonzero"/></clipPath><clipPath id="05486ee60f"><path d="M 91.207031 206.90625 L 99.996094 206.90625 L 99.996094 217.320312 L 91.207031 217.320312 Z M 91.207031 206.90625 " clip-rule="nonzero"/></clipPath><clipPath id="b589692d22"><path d="M 91.261719 212.113281 L 99.996094 217.320312 L 99.996094 206.90625 L 91.261719 212.113281 " clip-rule="nonzero"/></clipPath></defs><g fill="#607eaa" fill-opacity="1"><g transform="translate(161.063358, 221.068169)"><g><path d="M 12.636719 2.496094 C 10.8125 2.464844 8.320312 3.871094 6.128906 5.121094 C 4.304688 6.144531 2.222656 7.328125 1.632812 6.878906 C 1.472656 6.765625 1.265625 6.382812 1.550781 5.070312 C 2.207031 2.175781 3.550781 -2.960938 4.734375 -7.136719 C 6.175781 -12.191406 6.925781 -14.269531 7.292969 -15.117188 C 7.292969 -14.988281 7.277344 -14.8125 7.261719 -14.605469 C 7.246094 -14.429688 7.375 -14.285156 7.535156 -14.269531 C 7.710938 -14.253906 7.855469 -14.382812 7.871094 -14.558594 C 7.964844 -15.695312 7.949219 -16.222656 7.535156 -16.285156 C 7.167969 -16.347656 6.75 -16.414062 4.289062 -7.757812 C 3.054688 -3.457031 1.648438 1.886719 0.960938 4.925781 C 0.65625 6.222656 0.75 7.007812 1.265625 7.375 C 1.457031 7.519531 1.695312 7.582031 1.984375 7.582031 C 3.007812 7.582031 4.574219 6.703125 6.429688 5.648438 C 8.558594 4.449219 10.972656 3.070312 12.621094 3.101562 C 12.78125 3.121094 12.925781 2.976562 12.925781 2.816406 C 12.941406 2.640625 12.796875 2.496094 12.636719 2.496094 Z M 12.636719 2.496094 "/></g></g></g><g fill="#607eaa" fill-opacity="1"><g transform="translate(171.908751, 221.068169)"><g><path d="M 6.6875 -3.550781 C 6.542969 -3.617188 6.351562 -3.550781 6.285156 -3.40625 C 5.070312 -0.929688 4.160156 -0.144531 3.726562 -0.222656 C 3.550781 -0.257812 2.976562 -0.59375 2.832031 -3.390625 C 2.832031 -3.519531 2.734375 -3.632812 2.625 -3.664062 C 2.496094 -3.695312 2.351562 -3.664062 2.289062 -3.550781 C 2.191406 -3.441406 2.09375 -3.3125 2 -3.167969 C 1.601562 -2.625 1.070312 -1.886719 0.433594 -1.199219 C 0.335938 -1.085938 0.257812 -1.023438 0.207031 -0.992188 C 0.0976562 -1.550781 0.6875 -3.695312 1.632812 -4.367188 C 1.902344 -4.558594 2.273438 -4.703125 2.765625 -4.128906 C 2.878906 -4 3.070312 -3.984375 3.199219 -4.09375 C 3.328125 -4.191406 3.34375 -4.398438 3.246094 -4.527344 C 2.640625 -5.230469 2.0625 -5.214844 1.679688 -5.085938 C 0.449219 -4.65625 -0.382812 -2.289062 -0.414062 -1.199219 C -0.433594 -0.75 -0.304688 -0.464844 -0.046875 -0.367188 C 0.351562 -0.207031 0.75 -0.640625 0.878906 -0.785156 C 1.421875 -1.375 1.917969 -2.015625 2.273438 -2.511719 C 2.449219 -0.6875 2.878906 0.222656 3.597656 0.382812 C 3.664062 0.382812 3.726562 0.398438 3.792969 0.398438 C 4.878906 0.398438 6.046875 -1.503906 6.832031 -3.136719 C 6.910156 -3.296875 6.847656 -3.472656 6.6875 -3.550781 Z M 6.6875 -3.550781 "/></g></g></g><g fill="#607eaa" fill-opacity="1"><g transform="translate(177.859324, 221.068169)"><g/></g></g><g fill="#607eaa" fill-opacity="1"><g transform="translate(182.770144, 221.068169)"><g><path d="M 7.023438 -3.617188 C 6.863281 -3.695312 6.671875 -3.632812 6.605469 -3.472656 C 4.765625 0.398438 3.023438 2.382812 2.640625 2.320312 C 2.609375 2.304688 2.046875 1.757812 3.855469 -3.792969 C 3.902344 -3.933594 4.015625 -4.269531 3.757812 -4.449219 C 3.519531 -4.640625 3.246094 -4.464844 2.800781 -4.160156 C 2.320312 -3.855469 1.664062 -3.421875 1.152344 -3.488281 C 2.785156 -6.304688 2.625 -6.925781 2.253906 -7.167969 C 1.679688 -7.503906 0.847656 -6.527344 0.464844 -5.96875 C -0.320312 -4.75 -0.304688 -3.648438 0.527344 -3.085938 C 1.375 -2.496094 2.480469 -3.214844 3.136719 -3.648438 C 3.152344 -3.664062 3.152344 -3.664062 3.167969 -3.679688 C 2.542969 -1.710938 2.144531 -0.160156 2 0.910156 C 1.824219 2.09375 1.953125 2.71875 2.398438 2.894531 C 2.480469 2.910156 2.542969 2.925781 2.625 2.925781 C 3.902344 2.925781 6.128906 -1.007812 7.167969 -3.199219 C 7.230469 -3.359375 7.167969 -3.550781 7.023438 -3.617188 Z M 0.558594 -4.71875 C 0.785156 -5.582031 1.535156 -6.382812 1.871094 -6.574219 C 1.839844 -6.320312 1.664062 -5.597656 0.640625 -3.824219 C 0.527344 -4 0.449219 -4.269531 0.558594 -4.71875 Z M 0.558594 -4.71875 "/></g></g></g><g fill="#607eaa" fill-opacity="1"><g transform="translate(189.152605, 221.068169)"><g><path d="M 5.40625 -3.566406 C 5.261719 -3.664062 5.070312 -3.632812 4.976562 -3.488281 C 3.777344 -1.808594 2.800781 -0.75 1.839844 -0.0625 C 1.359375 0.273438 0.894531 0.335938 0.59375 0.113281 C 0.398438 -0.03125 -0.191406 -0.671875 0.496094 -2.910156 C 2.046875 -4.191406 2.894531 -5.40625 2.671875 -6.046875 C 2.589844 -6.238281 2.398438 -6.367188 2.191406 -6.367188 C 1.550781 -6.351562 0.574219 -5.246094 -0.0625 -3.183594 C -0.847656 -0.640625 -0.207031 0.289062 0.238281 0.609375 C 0.464844 0.785156 0.71875 0.863281 1.007812 0.863281 C 1.375 0.863281 1.792969 0.71875 2.191406 0.433594 C 3.214844 -0.304688 4.222656 -1.390625 5.472656 -3.136719 C 5.566406 -3.28125 5.535156 -3.472656 5.40625 -3.566406 Z M 2.0625 -5.695312 C 2 -5.4375 1.726562 -4.925781 0.976562 -4.160156 C 1.390625 -5.085938 1.839844 -5.535156 2.0625 -5.695312 Z M 2.0625 -5.695312 "/></g></g></g><g fill="#607eaa" fill-opacity="1"><g transform="translate(193.807489, 221.068169)"><g><path d="M 3.246094 -4.222656 C 2.527344 -4.144531 1.953125 -4.0625 1.296875 -4 C 1.359375 -4.269531 1.421875 -4.527344 1.488281 -4.785156 C 1.503906 -4.785156 1.503906 -4.800781 1.519531 -4.816406 C 3.152344 -7.40625 4.527344 -10.558594 4 -11.375 C 3.886719 -11.519531 3.726562 -11.582031 3.566406 -11.550781 C 2.65625 -11.40625 1.695312 -8 1.40625 -6.957031 C 1.167969 -6.046875 0.910156 -5.039062 0.65625 -3.953125 C 0.222656 -3.902344 -0.257812 -3.871094 -0.832031 -3.824219 C -0.992188 -3.808594 -1.121094 -3.664062 -1.105469 -3.488281 C -1.105469 -3.328125 -0.960938 -3.214844 -0.800781 -3.214844 C -0.800781 -3.214844 -0.785156 -3.214844 -0.785156 -3.214844 C -0.289062 -3.246094 0.128906 -3.28125 0.496094 -3.3125 C -0.078125 -0.894531 -0.6875 1.808594 -1.214844 4.335938 C -1.601562 6.160156 -1.902344 7.710938 -2.078125 8.847656 C -2.398438 10.734375 -2.367188 10.957031 -2.0625 11.054688 C -2.03125 11.054688 -1.984375 11.070312 -1.953125 11.070312 C -1.679688 11.070312 -1.535156 10.671875 -1.390625 10.269531 C -1.328125 10.109375 -1.421875 9.933594 -1.582031 9.871094 C -1.601562 9.871094 -1.617188 9.855469 -1.632812 9.855469 C -1.328125 7.742188 -0.128906 1.917969 1.152344 -3.375 C 1.902344 -3.441406 2.527344 -3.519531 3.328125 -3.617188 C 3.488281 -3.648438 3.617188 -3.792969 3.582031 -3.96875 C 3.566406 -4.128906 3.40625 -4.253906 3.246094 -4.222656 Z M 3.472656 -10.703125 C 3.40625 -10.125 3.054688 -8.847656 2.046875 -6.941406 C 2.65625 -9.183594 3.183594 -10.269531 3.472656 -10.703125 Z M 3.472656 -10.703125 "/></g></g></g><g fill="#607eaa" fill-opacity="1"><g transform="translate(197.438619, 221.068169)"><g><path d="M 5.792969 -3.472656 C 5.648438 -3.582031 5.457031 -3.550781 5.359375 -3.421875 C 4.6875 -2.558594 3.582031 -1.839844 2.734375 -2 C 2.75 -2.113281 2.765625 -2.222656 2.765625 -2.335938 C 2.878906 -4.144531 2.320312 -4.511719 1.984375 -4.574219 C 1.601562 -4.65625 1.199219 -4.367188 1.007812 -3.886719 C 0.929688 -3.917969 0.832031 -3.917969 0.75 -3.855469 C 0.113281 -3.457031 -0.414062 -2.429688 -0.128906 -1.328125 C 0.0625 -0.671875 0.511719 -0.257812 1.105469 -0.257812 C 1.664062 -0.257812 2.253906 -0.671875 2.558594 -1.40625 C 3.679688 -1.167969 5.023438 -2 5.839844 -3.039062 C 5.949219 -3.183594 5.917969 -3.375 5.792969 -3.472656 Z M 1.121094 -0.863281 C 1.105469 -0.863281 1.105469 -0.863281 1.105469 -0.863281 C 0.703125 -0.878906 0.527344 -1.265625 0.480469 -1.488281 C 0.320312 -2.03125 0.449219 -2.785156 0.894531 -3.199219 C 0.929688 -2.65625 1.230469 -2.0625 2 -1.648438 C 1.777344 -1.136719 1.390625 -0.863281 1.121094 -0.863281 Z M 2.160156 -2.367188 C 2.144531 -2.335938 2.144531 -2.304688 2.144531 -2.273438 C 1.535156 -2.671875 1.441406 -3.183594 1.550781 -3.582031 C 1.632812 -3.839844 1.792969 -3.96875 1.871094 -3.96875 C 1.953125 -3.953125 2.222656 -3.648438 2.160156 -2.367188 Z M 2.160156 -2.367188 "/></g></g></g><g fill="#607eaa" fill-opacity="1"><g transform="translate(202.557389, 221.068169)"><g><path d="M 7.023438 -3.617188 C 6.863281 -3.695312 6.671875 -3.632812 6.605469 -3.472656 C 4.765625 0.398438 3.023438 2.382812 2.640625 2.320312 C 2.609375 2.304688 2.046875 1.757812 3.855469 -3.792969 C 3.902344 -3.933594 4.015625 -4.269531 3.757812 -4.449219 C 3.519531 -4.640625 3.246094 -4.464844 2.800781 -4.160156 C 2.320312 -3.855469 1.664062 -3.421875 1.152344 -3.488281 C 2.785156 -6.304688 2.625 -6.925781 2.253906 -7.167969 C 1.679688 -7.503906 0.847656 -6.527344 0.464844 -5.96875 C -0.320312 -4.75 -0.304688 -3.648438 0.527344 -3.085938 C 1.375 -2.496094 2.480469 -3.214844 3.136719 -3.648438 C 3.152344 -3.664062 3.152344 -3.664062 3.167969 -3.679688 C 2.542969 -1.710938 2.144531 -0.160156 2 0.910156 C 1.824219 2.09375 1.953125 2.71875 2.398438 2.894531 C 2.480469 2.910156 2.542969 2.925781 2.625 2.925781 C 3.902344 2.925781 6.128906 -1.007812 7.167969 -3.199219 C 7.230469 -3.359375 7.167969 -3.550781 7.023438 -3.617188 Z M 0.558594 -4.71875 C 0.785156 -5.582031 1.535156 -6.382812 1.871094 -6.574219 C 1.839844 -6.320312 1.664062 -5.597656 0.640625 -3.824219 C 0.527344 -4 0.449219 -4.269531 0.558594 -4.71875 Z M 0.558594 -4.71875 "/></g></g></g><g fill="#607eaa" fill-opacity="1"><g transform="translate(208.93985, 221.068169)"><g><path d="M 9.023438 -3.566406 C 8.894531 -3.679688 8.6875 -3.664062 8.574219 -3.535156 C 7.292969 -2.03125 6.429688 -1.648438 6.046875 -1.792969 C 5.710938 -1.917969 5.519531 -2.558594 5.535156 -3.566406 C 5.535156 -3.742188 5.550781 -4.175781 5.199219 -4.253906 C 4.800781 -4.351562 4.511719 -3.886719 3.664062 -2.113281 C 3.519531 -1.808594 3.390625 -1.535156 3.3125 -1.375 C 3.214844 -1.199219 3.152344 -1.105469 3.101562 -1.054688 C 3.023438 -1.214844 2.910156 -1.632812 2.925781 -2.253906 C 2.925781 -2.574219 2.925781 -2.847656 2.945312 -3.070312 C 2.960938 -3.777344 2.976562 -4.03125 2.6875 -4.144531 C 2.429688 -4.222656 2.253906 -3.984375 2.207031 -3.902344 C 1.503906 -2.945312 0.878906 -1.96875 0.222656 -0.785156 C 0.480469 -1.886719 0.945312 -3.472656 1.535156 -4.800781 C 1.601562 -4.960938 1.535156 -5.152344 1.375 -5.214844 C 1.214844 -5.277344 1.039062 -5.214844 0.960938 -5.054688 C 0.511719 -4.015625 0.0625 -2.6875 -0.273438 -1.375 C -0.800781 0.734375 -0.59375 0.832031 -0.398438 0.929688 C -0.351562 0.945312 -0.304688 0.960938 -0.257812 0.960938 C -0.0976562 0.960938 0.046875 0.847656 0.175781 0.609375 C 0.945312 -0.863281 1.582031 -1.953125 2.320312 -3.023438 C 2.320312 -2.800781 2.304688 -2.542969 2.304688 -2.253906 C 2.304688 -1.757812 2.367188 -0.574219 2.960938 -0.414062 C 3.441406 -0.304688 3.742188 -0.894531 3.855469 -1.085938 C 3.953125 -1.265625 4.078125 -1.535156 4.222656 -1.839844 C 4.398438 -2.207031 4.6875 -2.816406 4.925781 -3.230469 C 4.960938 -2.113281 5.261719 -1.421875 5.839844 -1.214844 C 6.621094 -0.910156 7.695312 -1.566406 9.054688 -3.136719 C 9.167969 -3.261719 9.152344 -3.457031 9.023438 -3.566406 Z M 9.023438 -3.566406 "/></g></g></g><g fill="#607eaa" fill-opacity="1"><g transform="translate(217.273849, 221.068169)"><g><path d="M 6.6875 -3.550781 C 6.542969 -3.617188 6.351562 -3.550781 6.285156 -3.40625 C 5.070312 -0.929688 4.160156 -0.144531 3.726562 -0.222656 C 3.550781 -0.257812 2.976562 -0.59375 2.832031 -3.390625 C 2.832031 -3.519531 2.734375 -3.632812 2.625 -3.664062 C 2.496094 -3.695312 2.351562 -3.664062 2.289062 -3.550781 C 2.191406 -3.441406 2.09375 -3.3125 2 -3.167969 C 1.601562 -2.625 1.070312 -1.886719 0.433594 -1.199219 C 0.335938 -1.085938 0.257812 -1.023438 0.207031 -0.992188 C 0.0976562 -1.550781 0.6875 -3.695312 1.632812 -4.367188 C 1.902344 -4.558594 2.273438 -4.703125 2.765625 -4.128906 C 2.878906 -4 3.070312 -3.984375 3.199219 -4.09375 C 3.328125 -4.191406 3.34375 -4.398438 3.246094 -4.527344 C 2.640625 -5.230469 2.0625 -5.214844 1.679688 -5.085938 C 0.449219 -4.65625 -0.382812 -2.289062 -0.414062 -1.199219 C -0.433594 -0.75 -0.304688 -0.464844 -0.046875 -0.367188 C 0.351562 -0.207031 0.75 -0.640625 0.878906 -0.785156 C 1.421875 -1.375 1.917969 -2.015625 2.273438 -2.511719 C 2.449219 -0.6875 2.878906 0.222656 3.597656 0.382812 C 3.664062 0.382812 3.726562 0.398438 3.792969 0.398438 C 4.878906 0.398438 6.046875 -1.503906 6.832031 -3.136719 C 6.910156 -3.296875 6.847656 -3.472656 6.6875 -3.550781 Z M 6.6875 -3.550781 "/></g></g></g><g fill="#607eaa" fill-opacity="1"><g transform="translate(223.224422, 221.068169)"><g/></g></g><g fill="#607eaa" fill-opacity="1"><g transform="translate(228.135242, 221.068169)"><g><path d="M 6.832031 -13.359375 C 6.71875 -13.453125 6.574219 -13.484375 6.429688 -13.453125 C 5.742188 -13.230469 4.511719 -9.886719 3.328125 -4.382812 C 3.296875 -4.289062 3.246094 -4.207031 3.199219 -4.113281 C 3.121094 -4.734375 2.703125 -4.910156 2.558594 -4.960938 C 1.871094 -5.167969 0.785156 -4.542969 0.03125 -2.945312 C -0.542969 -1.742188 -0.65625 -0.175781 0.0625 0.238281 C 0.414062 0.449219 1.023438 0.414062 1.902344 -0.863281 C 2.289062 -1.40625 2.625 -1.9375 2.945312 -2.449219 C 2.765625 -1.535156 2.589844 -0.574219 2.429688 0.433594 C 2.128906 2.222656 1.902344 3.726562 1.777344 4.816406 C 1.519531 6.941406 1.648438 7.230469 1.96875 7.328125 C 2 7.34375 2.046875 7.34375 2.078125 7.34375 C 2.367188 7.34375 2.558594 6.976562 2.65625 6.734375 C 2.734375 6.589844 2.671875 6.398438 2.511719 6.335938 C 2.429688 6.285156 2.335938 6.285156 2.253906 6.320312 C 2.289062 5.632812 2.449219 4.0625 3.039062 0.542969 C 3.328125 -1.214844 3.632812 -2.785156 3.917969 -4.160156 C 5.121094 -6.429688 5.726562 -8.351562 6.222656 -9.871094 C 6.285156 -10.0625 6.351562 -10.238281 6.398438 -10.398438 C 7.246094 -12.941406 6.925781 -13.246094 6.832031 -13.359375 Z M 1.390625 -1.214844 C 0.785156 -0.335938 0.449219 -0.257812 0.367188 -0.289062 C 0.128906 -0.433594 0.046875 -1.535156 0.59375 -2.6875 C 1.136719 -3.839844 1.871094 -4.382812 2.273438 -4.382812 C 2.320312 -4.382812 2.351562 -4.382812 2.382812 -4.367188 C 2.640625 -4.304688 2.589844 -3.839844 2.574219 -3.710938 C 2.558594 -3.566406 2.640625 -3.421875 2.785156 -3.375 C 2.382812 -2.6875 1.917969 -1.96875 1.390625 -1.214844 Z M 5.824219 -10.589844 C 5.757812 -10.429688 5.695312 -10.253906 5.648438 -10.0625 C 5.359375 -9.199219 5.039062 -8.222656 4.605469 -7.117188 C 5.277344 -9.773438 5.886719 -11.4375 6.269531 -12.269531 C 6.207031 -11.886719 6.0625 -11.34375 5.824219 -10.589844 Z M 5.824219 -10.589844 "/></g></g></g><g fill="#607eaa" fill-opacity="1"><g transform="translate(233.142043, 221.068169)"><g><path d="M 5.40625 -3.566406 C 5.261719 -3.664062 5.070312 -3.632812 4.976562 -3.488281 C 3.777344 -1.808594 2.800781 -0.75 1.839844 -0.0625 C 1.359375 0.273438 0.894531 0.335938 0.59375 0.113281 C 0.398438 -0.03125 -0.191406 -0.671875 0.496094 -2.910156 C 2.046875 -4.191406 2.894531 -5.40625 2.671875 -6.046875 C 2.589844 -6.238281 2.398438 -6.367188 2.191406 -6.367188 C 1.550781 -6.351562 0.574219 -5.246094 -0.0625 -3.183594 C -0.847656 -0.640625 -0.207031 0.289062 0.238281 0.609375 C 0.464844 0.785156 0.71875 0.863281 1.007812 0.863281 C 1.375 0.863281 1.792969 0.71875 2.191406 0.433594 C 3.214844 -0.304688 4.222656 -1.390625 5.472656 -3.136719 C 5.566406 -3.28125 5.535156 -3.472656 5.40625 -3.566406 Z M 2.0625 -5.695312 C 2 -5.4375 1.726562 -4.925781 0.976562 -4.160156 C 1.390625 -5.085938 1.839844 -5.535156 2.0625 -5.695312 Z M 2.0625 -5.695312 "/></g></g></g><g fill="#607eaa" fill-opacity="1"><g transform="translate(237.796927, 221.068169)"><g/></g></g><g fill="#607eaa" fill-opacity="1"><g transform="translate(242.707747, 221.068169)"><g><path d="M 13.5 -9.4375 C 13.292969 -9.726562 12.367188 -9.902344 2.429688 -9.679688 C 2.75 -10.972656 3.039062 -12.140625 3.296875 -13.085938 C 3.34375 -13.261719 3.246094 -13.421875 3.085938 -13.46875 C 2.925781 -13.519531 2.75 -13.421875 2.703125 -13.261719 C 2.429688 -12.253906 2.128906 -11.039062 1.792969 -9.664062 C 0.910156 -9.648438 -0.046875 -9.628906 -1.085938 -9.597656 C -2.511719 -9.566406 -3.632812 -9.535156 -4.0625 -9.535156 C -4.238281 -9.535156 -4.382812 -9.390625 -4.382812 -9.230469 C -4.382812 -9.054688 -4.238281 -8.910156 -4.0625 -8.910156 C -3.617188 -8.925781 -2.496094 -8.941406 -1.070312 -8.992188 C -0.320312 -9.007812 0.609375 -9.023438 1.648438 -9.054688 C 0.960938 -6.144531 0.175781 -2.65625 -0.527344 0.75 C -1.039062 3.246094 -1.457031 5.40625 -1.726562 6.992188 C -1.871094 7.824219 -1.96875 8.480469 -2.015625 8.925781 C -2.078125 9.535156 -2.113281 9.886719 -1.808594 10 C -1.757812 10 -1.726562 10.015625 -1.679688 10.015625 C -1.40625 10.015625 -1.265625 9.628906 -1.136719 9.277344 C -1.070312 9.117188 -1.152344 8.941406 -1.3125 8.878906 C -1.34375 8.878906 -1.359375 8.863281 -1.390625 8.863281 C -1.230469 7.613281 -0.75 4.816406 0.175781 0.398438 C 0.863281 -2.945312 1.617188 -6.285156 2.289062 -9.070312 C 6.6875 -9.167969 12.398438 -9.246094 13.054688 -9.023438 C 13.164062 -8.925781 13.308594 -8.925781 13.4375 -9.007812 C 13.566406 -9.101562 13.597656 -9.292969 13.5 -9.4375 Z M 13.5 -9.4375 "/></g></g></g><g fill="#607eaa" fill-opacity="1"><g transform="translate(244.835237, 221.068169)"><g><path d="M 6.367188 -3.457031 C 6.222656 -3.535156 6.03125 -3.488281 5.949219 -3.34375 C 4.429688 -0.910156 3.152344 0.175781 2.878906 0.078125 C 2.878906 0.078125 2.558594 -0.0976562 2.863281 -1.9375 C 2.976562 -2.558594 3.023438 -2.910156 2.71875 -3.039062 C 2.429688 -3.152344 2.253906 -2.910156 1.917969 -2.429688 C 1.648438 -2.046875 1.28125 -1.535156 0.878906 -1.183594 C 0.832031 -1.152344 0.65625 -0.992188 0.574219 -1.054688 C 0.335938 -1.246094 0.289062 -2.289062 0.847656 -3.246094 C 0.945312 -3.390625 0.878906 -3.582031 0.734375 -3.679688 C 0.59375 -3.757812 0.398438 -3.710938 0.320312 -3.566406 C -0.320312 -2.449219 -0.382812 -1.054688 0.175781 -0.59375 C 0.320312 -0.464844 0.71875 -0.238281 1.28125 -0.703125 C 1.648438 -1.023438 1.96875 -1.441406 2.222656 -1.792969 C 2 -0.304688 2.128906 0.449219 2.65625 0.65625 C 2.734375 0.6875 2.816406 0.6875 2.878906 0.6875 C 4.09375 0.6875 6.0625 -2.382812 6.464844 -3.023438 C 6.558594 -3.167969 6.511719 -3.359375 6.367188 -3.457031 Z M 6.367188 -3.457031 "/></g></g></g><g fill="#607eaa" fill-opacity="1"><g transform="translate(250.561861, 221.068169)"><g/></g></g><g fill="#607eaa" fill-opacity="1"><g transform="translate(255.47268, 221.068169)"><g><path d="M 8.03125 -3.488281 C 7.902344 -3.597656 7.710938 -3.582031 7.597656 -3.457031 C 6.941406 -2.6875 6.0625 -2.304688 5.34375 -2.496094 C 4.75 -2.65625 4.320312 -3.230469 4.160156 -4.09375 C 4.128906 -4.238281 3.984375 -4.335938 3.839844 -4.335938 C 3.695312 -4.335938 3.566406 -4.222656 3.550781 -4.078125 C 3.214844 -1.679688 1.3125 1.183594 0.398438 1.488281 C 0.289062 1.519531 0.257812 1.503906 0.257812 1.488281 C 0.175781 1.421875 -0.367188 0.671875 1.328125 -4.367188 C 1.375 -4.527344 1.296875 -4.703125 1.136719 -4.75 C 0.976562 -4.816406 0.800781 -4.71875 0.734375 -4.558594 C -1.121094 0.992188 -0.414062 1.695312 -0.191406 1.917969 C -0.0976562 2 0.0625 2.128906 0.304688 2.128906 C 0.382812 2.128906 0.480469 2.113281 0.59375 2.0625 C 1.183594 1.871094 1.984375 1.023438 2.703125 -0.175781 C 3.246094 -1.070312 3.664062 -2.03125 3.917969 -2.925781 C 4.222656 -2.398438 4.65625 -2.046875 5.183594 -1.902344 C 6.128906 -1.664062 7.246094 -2.113281 8.0625 -3.054688 C 8.175781 -3.183594 8.160156 -3.375 8.03125 -3.488281 Z M 8.03125 -3.488281 "/></g></g></g><g fill="#607eaa" fill-opacity="1"><g transform="translate(263.022862, 221.068169)"><g><path d="M 4.671875 -3.632812 C 4.527344 -3.726562 4.351562 -3.679688 4.253906 -3.535156 C 3.183594 -1.808594 1.390625 -0.175781 0.847656 -0.398438 C 0.785156 -0.433594 0.273438 -0.734375 0.976562 -3.441406 C 1.007812 -3.617188 0.910156 -3.777344 0.75 -3.824219 C 0.574219 -3.855469 0.414062 -3.757812 0.367188 -3.597656 C -0.207031 -1.34375 -0.128906 -0.144531 0.59375 0.160156 C 0.703125 0.207031 0.816406 0.222656 0.929688 0.222656 C 2.128906 0.222656 3.96875 -1.917969 4.785156 -3.214844 C 4.863281 -3.359375 4.816406 -3.550781 4.671875 -3.632812 Z M 0.894531 -4.925781 C 1.710938 -4.878906 1.695312 -5.902344 1.039062 -5.679688 C 0.703125 -5.582031 0.273438 -4.960938 0.894531 -4.925781 Z M 0.894531 -4.925781 "/></g></g></g><g fill="#607eaa" fill-opacity="1"><g transform="translate(267.069893, 221.068169)"><g><path d="M 6.832031 -13.359375 C 6.71875 -13.453125 6.574219 -13.484375 6.429688 -13.453125 C 5.742188 -13.230469 4.511719 -9.886719 3.328125 -4.382812 C 3.296875 -4.289062 3.246094 -4.207031 3.199219 -4.113281 C 3.121094 -4.734375 2.703125 -4.910156 2.558594 -4.960938 C 1.871094 -5.167969 0.785156 -4.542969 0.03125 -2.945312 C -0.542969 -1.742188 -0.65625 -0.175781 0.0625 0.238281 C 0.414062 0.449219 1.023438 0.414062 1.902344 -0.863281 C 2.289062 -1.40625 2.625 -1.9375 2.945312 -2.449219 C 2.765625 -1.535156 2.589844 -0.574219 2.429688 0.433594 C 2.128906 2.222656 1.902344 3.726562 1.777344 4.816406 C 1.519531 6.941406 1.648438 7.230469 1.96875 7.328125 C 2 7.34375 2.046875 7.34375 2.078125 7.34375 C 2.367188 7.34375 2.558594 6.976562 2.65625 6.734375 C 2.734375 6.589844 2.671875 6.398438 2.511719 6.335938 C 2.429688 6.285156 2.335938 6.285156 2.253906 6.320312 C 2.289062 5.632812 2.449219 4.0625 3.039062 0.542969 C 3.328125 -1.214844 3.632812 -2.785156 3.917969 -4.160156 C 5.121094 -6.429688 5.726562 -8.351562 6.222656 -9.871094 C 6.285156 -10.0625 6.351562 -10.238281 6.398438 -10.398438 C 7.246094 -12.941406 6.925781 -13.246094 6.832031 -13.359375 Z M 1.390625 -1.214844 C 0.785156 -0.335938 0.449219 -0.257812 0.367188 -0.289062 C 0.128906 -0.433594 0.046875 -1.535156 0.59375 -2.6875 C 1.136719 -3.839844 1.871094 -4.382812 2.273438 -4.382812 C 2.320312 -4.382812 2.351562 -4.382812 2.382812 -4.367188 C 2.640625 -4.304688 2.589844 -3.839844 2.574219 -3.710938 C 2.558594 -3.566406 2.640625 -3.421875 2.785156 -3.375 C 2.382812 -2.6875 1.917969 -1.96875 1.390625 -1.214844 Z M 5.824219 -10.589844 C 5.757812 -10.429688 5.695312 -10.253906 5.648438 -10.0625 C 5.359375 -9.199219 5.039062 -8.222656 4.605469 -7.117188 C 5.277344 -9.773438 5.886719 -11.4375 6.269531 -12.269531 C 6.207031 -11.886719 6.0625 -11.34375 5.824219 -10.589844 Z M 5.824219 -10.589844 "/></g></g></g><g fill="#607eaa" fill-opacity="1"><g transform="translate(272.076695, 221.068169)"><g><path d="M 6.6875 -3.550781 C 6.542969 -3.617188 6.351562 -3.550781 6.285156 -3.40625 C 5.070312 -0.929688 4.160156 -0.144531 3.726562 -0.222656 C 3.550781 -0.257812 2.976562 -0.59375 2.832031 -3.390625 C 2.832031 -3.519531 2.734375 -3.632812 2.625 -3.664062 C 2.496094 -3.695312 2.351562 -3.664062 2.289062 -3.550781 C 2.191406 -3.441406 2.09375 -3.3125 2 -3.167969 C 1.601562 -2.625 1.070312 -1.886719 0.433594 -1.199219 C 0.335938 -1.085938 0.257812 -1.023438 0.207031 -0.992188 C 0.0976562 -1.550781 0.6875 -3.695312 1.632812 -4.367188 C 1.902344 -4.558594 2.273438 -4.703125 2.765625 -4.128906 C 2.878906 -4 3.070312 -3.984375 3.199219 -4.09375 C 3.328125 -4.191406 3.34375 -4.398438 3.246094 -4.527344 C 2.640625 -5.230469 2.0625 -5.214844 1.679688 -5.085938 C 0.449219 -4.65625 -0.382812 -2.289062 -0.414062 -1.199219 C -0.433594 -0.75 -0.304688 -0.464844 -0.046875 -0.367188 C 0.351562 -0.207031 0.75 -0.640625 0.878906 -0.785156 C 1.421875 -1.375 1.917969 -2.015625 2.273438 -2.511719 C 2.449219 -0.6875 2.878906 0.222656 3.597656 0.382812 C 3.664062 0.382812 3.726562 0.398438 3.792969 0.398438 C 4.878906 0.398438 6.046875 -1.503906 6.832031 -3.136719 C 6.910156 -3.296875 6.847656 -3.472656 6.6875 -3.550781 Z M 6.6875 -3.550781 "/></g></g></g><g fill="#607eaa" fill-opacity="1"><g transform="translate(278.016475, 221.068169)"><g/></g></g><g fill="#ffffff" fill-opacity="1"><g transform="translate(100.011854, 201.963035)"><g><path d="M 21.15625 0 L 15.765625 -7.796875 L 9.796875 -7.796875 L 9.796875 0 L 3.3125 0 L 3.3125 -28 L 15.4375 -28 C 17.914062 -28 20.066406 -27.582031 21.890625 -26.75 C 23.722656 -25.925781 25.128906 -24.753906 26.109375 -23.234375 C 27.097656 -21.710938 27.59375 -19.914062 27.59375 -17.84375 C 27.59375 -15.757812 27.09375 -13.960938 26.09375 -12.453125 C 25.09375 -10.953125 23.675781 -9.800781 21.84375 -9 L 28.125 0 Z M 21.046875 -17.84375 C 21.046875 -19.414062 20.535156 -20.617188 19.515625 -21.453125 C 18.503906 -22.296875 17.023438 -22.71875 15.078125 -22.71875 L 9.796875 -22.71875 L 9.796875 -12.953125 L 15.078125 -12.953125 C 17.023438 -12.953125 18.503906 -13.378906 19.515625 -14.234375 C 20.535156 -15.085938 21.046875 -16.289062 21.046875 -17.84375 Z M 21.046875 -17.84375 "/></g></g></g><g fill="#ffffff" fill-opacity="1"><g transform="translate(129.408932, 201.963035)"><g><path d="M 25 -5.203125 L 25 0 L 3.3125 0 L 3.3125 -28 L 24.484375 -28 L 24.484375 -22.796875 L 9.765625 -22.796875 L 9.765625 -16.71875 L 22.765625 -16.71875 L 22.765625 -11.6875 L 9.765625 -11.6875 L 9.765625 -5.203125 Z M 25 -5.203125 "/></g></g></g><g fill="#ffffff" fill-opacity="1"><g transform="translate(156.246264, 201.963035)"><g><path d="M 9.796875 -22.796875 L 9.796875 -15.40625 L 22.765625 -15.40625 L 22.765625 -10.203125 L 9.796875 -10.203125 L 9.796875 0 L 3.3125 0 L 3.3125 -28 L 24.484375 -28 L 24.484375 -22.796875 Z M 9.796875 -22.796875 "/></g></g></g><g fill="#ffffff" fill-opacity="1"><g transform="translate(181.803723, 201.963035)"><g><path d="M 16.875 0.484375 C 13.96875 0.484375 11.347656 -0.140625 9.015625 -1.390625 C 6.679688 -2.648438 4.851562 -4.378906 3.53125 -6.578125 C 2.21875 -8.773438 1.5625 -11.25 1.5625 -14 C 1.5625 -16.75 2.21875 -19.222656 3.53125 -21.421875 C 4.851562 -23.617188 6.679688 -25.34375 9.015625 -26.59375 C 11.347656 -27.851562 13.96875 -28.484375 16.875 -28.484375 C 19.78125 -28.484375 22.394531 -27.851562 24.71875 -26.59375 C 27.039062 -25.34375 28.867188 -23.617188 30.203125 -21.421875 C 31.535156 -19.222656 32.203125 -16.75 32.203125 -14 C 32.203125 -11.25 31.535156 -8.773438 30.203125 -6.578125 C 28.867188 -4.378906 27.039062 -2.648438 24.71875 -1.390625 C 22.394531 -0.140625 19.78125 0.484375 16.875 0.484375 Z M 16.875 -5.046875 C 18.53125 -5.046875 20.023438 -5.421875 21.359375 -6.171875 C 22.691406 -6.929688 23.738281 -7.992188 24.5 -9.359375 C 25.257812 -10.722656 25.640625 -12.269531 25.640625 -14 C 25.640625 -15.726562 25.257812 -17.273438 24.5 -18.640625 C 23.738281 -20.003906 22.691406 -21.0625 21.359375 -21.8125 C 20.023438 -22.570312 18.53125 -22.953125 16.875 -22.953125 C 15.226562 -22.953125 13.738281 -22.570312 12.40625 -21.8125 C 11.070312 -21.0625 10.023438 -20.003906 9.265625 -18.640625 C 8.503906 -17.273438 8.125 -15.726562 8.125 -14 C 8.125 -12.269531 8.503906 -10.722656 9.265625 -9.359375 C 10.023438 -7.992188 11.070312 -6.929688 12.40625 -6.171875 C 13.738281 -5.421875 15.226562 -5.046875 16.875 -5.046875 Z M 16.875 -5.046875 "/></g></g></g><g fill="#ffffff" fill-opacity="1"><g transform="translate(215.560369, 201.963035)"><g><path d="M 21.15625 0 L 15.765625 -7.796875 L 9.796875 -7.796875 L 9.796875 0 L 3.3125 0 L 3.3125 -28 L 15.4375 -28 C 17.914062 -28 20.066406 -27.582031 21.890625 -26.75 C 23.722656 -25.925781 25.128906 -24.753906 26.109375 -23.234375 C 27.097656 -21.710938 27.59375 -19.914062 27.59375 -17.84375 C 27.59375 -15.757812 27.09375 -13.960938 26.09375 -12.453125 C 25.09375 -10.953125 23.675781 -9.800781 21.84375 -9 L 28.125 0 Z M 21.046875 -17.84375 C 21.046875 -19.414062 20.535156 -20.617188 19.515625 -21.453125 C 18.503906 -22.296875 17.023438 -22.71875 15.078125 -22.71875 L 9.796875 -22.71875 L 9.796875 -12.953125 L 15.078125 -12.953125 C 17.023438 -12.953125 18.503906 -13.378906 19.515625 -14.234375 C 20.535156 -15.085938 21.046875 -16.289062 21.046875 -17.84375 Z M 21.046875 -17.84375 "/></g></g></g><g fill="#ffffff" fill-opacity="1"><g transform="translate(244.949349, 201.963035)"><g/></g></g><path stroke-linecap="butt" transform="matrix(0.75, 0, 0, 0.75, 246.30157, 160.713037)" fill="none" stroke-linejoin="miter" d="M 4.441657 17.669076 L 13.087491 17.669076 L 13.087491 47.955537 L 31.795826 47.955537 L 31.795826 55.002412 L 4.441657 55.002412 Z M 36.649993 17.669076 L 45.295826 17.669076 L 45.295826 55.002412 L 36.649993 55.002412 Z M 62.790619 24.59616 L 62.790619 34.465952 L 80.066662 34.465952 L 80.066662 41.408661 L 62.790619 41.408661 L 62.790619 55.002412 L 54.144785 55.002412 L 54.144785 17.669076 L 82.358329 17.669076 L 82.358329 24.59616 Z M 117.123956 48.075328 L 117.123956 55.002412 L 88.222913 55.002412 L 88.222913 17.669076 L 116.436456 17.669076 L 116.436456 24.59616 L 96.801038 24.59616 L 96.801038 32.710744 L 114.144789 32.710744 L 114.144789 39.429494 L 96.801038 39.429494 L 96.801038 48.075328 Z M 117.123956 48.075328 " stroke="#ffffff" stroke-width="1.999999" stroke-opacity="1" stroke-miterlimit="4"/><g clip-path="url(#64dc53c4c6)"><g clip-path="url(#50ab51b92d)"><g clip-path="url(#1db9811453)"><path fill="#eae3d2" d="M 24.738281 164.585938 L 67.074219 140.628906 L 71.488281 148.429688 L 29.152344 172.382812 Z M 24.738281 164.585938 " fill-opacity="1" fill-rule="nonzero"/></g></g></g><g clip-path="url(#c9a5752e67)"><g clip-path="url(#598a81838d)"><g clip-path="url(#a6368b3334)"><path fill="#eae3d2" d="M 67.027344 140.492188 L 100.15625 159.910156 L 95.625 167.640625 L 62.496094 148.21875 Z M 67.027344 140.492188 " fill-opacity="1" fill-rule="nonzero"/></g></g></g><g clip-path="url(#096e790998)"><path fill="#eae3d2" d="M 24.738281 212.105469 L 24.738281 164.742188 L 33.695312 164.742188 L 33.695312 212.105469 Z M 24.738281 212.105469 " fill-opacity="1" fill-rule="nonzero"/></g><g clip-path="url(#623a8949de)"><g clip-path="url(#5dd0b50f1f)"><g clip-path="url(#99933ff508)"><path fill="#eae3d2" d="M 29.253906 204.515625 L 70.664062 228.792969 L 66.132812 236.523438 L 24.722656 212.246094 Z M 29.253906 204.515625 " fill-opacity="1" fill-rule="nonzero"/></g></g></g><g clip-path="url(#16a6836b22)"><g clip-path="url(#bb714d9996)"><g clip-path="url(#3d2d9d3a1d)"><path fill="#eae3d2" d="M 61.917969 228.65625 L 95.339844 209.746094 L 99.753906 217.542969 L 66.332031 236.457031 Z M 61.917969 228.65625 " fill-opacity="1" fill-rule="nonzero"/></g></g></g><g clip-path="url(#cea31612b8)"><g clip-path="url(#df6913e242)"><g clip-path="url(#204bf34b0e)"><path fill="#eae3d2" d="M 38.925781 172.402344 L 67.332031 156.328125 L 71.746094 164.125 L 43.335938 180.203125 Z M 38.925781 172.402344 " fill-opacity="1" fill-rule="nonzero"/></g></g></g><g clip-path="url(#84fa518e2c)"><g clip-path="url(#f471089225)"><g clip-path="url(#f6265fcd12)"><path fill="#eae3d2" d="M 90.402344 179.570312 L 62.523438 163.867188 L 66.917969 156.058594 L 94.800781 171.765625 Z M 90.402344 179.570312 " fill-opacity="1" fill-rule="nonzero"/></g></g></g><g clip-path="url(#252e07e583)"><path fill="#eae3d2" d="M 38.925781 204.660156 L 38.925781 172.65625 L 47.886719 172.65625 L 47.886719 204.660156 Z M 38.925781 204.660156 " fill-opacity="1" fill-rule="nonzero"/></g><g clip-path="url(#9312d16f23)"><path fill="#eae3d2" d="M 85.878906 203.945312 L 85.878906 171.945312 L 94.835938 171.945312 L 94.835938 203.945312 Z M 85.878906 203.945312 " fill-opacity="1" fill-rule="nonzero"/></g><g clip-path="url(#f59b4688f8)"><path fill="#eae3d2" d="M 38.910156 161.488281 L 38.910156 140.367188 L 47.871094 140.367188 L 47.871094 161.488281 Z M 38.910156 161.488281 " fill-opacity="1" fill-rule="nonzero"/></g><g clip-path="url(#26d5e73562)"><g clip-path="url(#69d189326f)"><path fill="#eae3d2" d="M 47.839844 199.335938 L 47.839844 209.988281 L 38.851562 209.988281 L 38.851562 199.335938 Z M 47.839844 199.335938 " fill-opacity="1" fill-rule="nonzero"/></g></g><g clip-path="url(#36a3a0eda8)"><g clip-path="url(#666925108d)"><path fill="#eae3d2" d="M 85.863281 209.273438 L 85.863281 198.617188 L 94.851562 198.617188 L 94.851562 209.273438 Z M 85.863281 209.273438 " fill-opacity="1" fill-rule="nonzero"/></g></g><g clip-path="url(#6f62f02f82)"><g clip-path="url(#79276c3d15)"><path fill="#eae3d2" d="M 99.996094 159.84375 L 99.996094 170.257812 L 91.207031 170.257812 L 91.207031 159.84375 Z M 99.996094 159.84375 " fill-opacity="1" fill-rule="nonzero"/></g></g><g clip-path="url(#05486ee60f)"><g clip-path="url(#b589692d22)"><path fill="#eae3d2" d="M 99.996094 206.90625 L 99.996094 217.320312 L 91.207031 217.320312 L 91.207031 206.90625 Z M 99.996094 206.90625 " fill-opacity="1" fill-rule="nonzero"/></g></g></svg>